G04 MADE WITH FRITZING*
G04 WWW.FRITZING.ORG*
G04 DOUBLE SIDED*
G04 HOLES PLATED*
G04 CONTOUR ON CENTER OF CONTOUR VECTOR*
%ASAXBY*%
%FSLAX23Y23*%
%MOIN*%
%OFA0B0*%
%SFA1.0B1.0*%
%ADD10C,0.088000*%
%ADD11C,0.089370*%
%ADD12C,0.049370*%
%ADD13C,0.102000*%
%ADD14C,0.085000*%
%ADD15C,0.073307*%
%ADD16C,0.167480*%
%ADD17R,0.102000X0.102000*%
%LNMASK1*%
G90*
G70*
G54D10*
X409Y1615D03*
X409Y1515D03*
X409Y1415D03*
X409Y1315D03*
G54D11*
X1580Y2775D03*
X1580Y2675D03*
X1580Y2575D03*
X1580Y2475D03*
X1580Y2375D03*
X1580Y2275D03*
X1580Y2175D03*
X1580Y2075D03*
X1580Y1975D03*
X1580Y1875D03*
X1580Y1775D03*
X1580Y1675D03*
X1580Y1575D03*
X1580Y1475D03*
X2181Y2776D03*
X2181Y2676D03*
X2181Y2576D03*
X2181Y2476D03*
X2181Y2376D03*
X2181Y2276D03*
X2181Y2176D03*
X2181Y2076D03*
X2181Y1976D03*
X2181Y1876D03*
X2181Y1776D03*
X2181Y1676D03*
X2181Y1576D03*
X2181Y1476D03*
G54D12*
X843Y3086D03*
X3322Y2851D03*
G54D13*
X1299Y681D03*
X1599Y681D03*
X599Y681D03*
X899Y681D03*
X1899Y681D03*
X2199Y681D03*
X2417Y685D03*
X2717Y685D03*
G54D14*
X409Y2575D03*
X409Y2275D03*
X409Y3166D03*
X409Y2766D03*
G54D15*
X3099Y781D03*
X3099Y595D03*
X3100Y411D03*
X3099Y781D03*
X3099Y595D03*
X3100Y411D03*
X3099Y1681D03*
X3099Y1495D03*
X3100Y1311D03*
X3099Y1681D03*
X3099Y1495D03*
X3100Y1311D03*
X3099Y3181D03*
X3099Y2995D03*
X3100Y2811D03*
X3099Y3181D03*
X3099Y2995D03*
X3100Y2811D03*
X3099Y2381D03*
X3099Y2195D03*
X3100Y2011D03*
X3099Y2381D03*
X3099Y2195D03*
X3100Y2011D03*
G54D14*
X2399Y781D03*
X2399Y1181D03*
X1899Y781D03*
X1899Y1181D03*
X1299Y781D03*
X1299Y1181D03*
X599Y781D03*
X599Y1181D03*
G54D12*
X843Y3086D03*
X1946Y3089D03*
G54D16*
X1787Y213D03*
X1787Y3362D03*
X212Y213D03*
X212Y3362D03*
X3362Y3362D03*
X3362Y213D03*
G54D17*
X1299Y681D03*
X599Y681D03*
X1899Y681D03*
X2417Y685D03*
G04 End of Mask1*
M02*