; NON-PLATED HOLES START AT T1
; THROUGH (PLATED) HOLES START AT T100
M48
INCH
T1C0.157480
T100C0.035000
T101C0.052000
T102C0.039370
T103C0.038000
T104C0.015748
T105C0.043307
%
T1
X017867Y002128
X017867Y033624
X033615Y002128
X033615Y033624
X002119Y002128
X002119Y033624
T100
X004088Y025750
X018993Y007813
X018993Y011813
X012993Y007813
X012993Y011813
X023993Y007813
X004088Y027656
X004088Y022750
X005993Y007813
X023993Y011813
X004088Y031656
X005993Y011813
T101
X021993Y006813
X008993Y006813
X018993Y006813
X027166Y006853
X005993Y006813
X015993Y006813
X024166Y006853
X012993Y006813
T102
X015796Y027750
X015796Y024750
X015796Y017750
X015796Y021750
X021810Y025760
X015796Y014750
X021810Y018760
X021810Y022760
X021810Y015760
X015796Y026750
X015796Y019750
X015796Y023750
X021810Y027760
X015796Y016750
X015796Y020750
X021810Y024760
X021810Y017760
X021810Y021760
X021810Y014760
X015796Y025750
X015796Y018750
X015796Y022750
X021810Y026760
X015796Y015750
X021810Y019760
X021810Y023760
X021810Y016760
X021810Y020760
T103
X004088Y014152
X004088Y015152
X004088Y013152
X004088Y016152
T104
X033223Y028513
X008427Y030862
X019461Y030886
T105
X030997Y020112
X030993Y014951
X030993Y016813
X030993Y005951
X030993Y007813
X030997Y028112
X030993Y031813
X030997Y013112
X030993Y021951
X030993Y023813
X030997Y004112
X030993Y029951
T00
M30
