G04 MADE WITH FRITZING*
G04 WWW.FRITZING.ORG*
G04 DOUBLE SIDED*
G04 HOLES PLATED*
G04 CONTOUR ON CENTER OF CONTOUR VECTOR*
%ASAXBY*%
%FSLAX23Y23*%
%MOIN*%
%OFA0B0*%
%SFA1.0B1.0*%
%ADD10C,0.078000*%
%ADD11C,0.079370*%
%ADD12C,0.039370*%
%ADD13C,0.092000*%
%ADD14C,0.075000*%
%ADD15C,0.063307*%
%ADD16R,0.092000X0.092000*%
%ADD17C,0.024000*%
%LNCOPPER0*%
G90*
G70*
G54D10*
X409Y1615D03*
X409Y1515D03*
X409Y1415D03*
X409Y1315D03*
G54D11*
X1580Y2775D03*
X1580Y2675D03*
X1580Y2575D03*
X1580Y2475D03*
X1580Y2375D03*
X1580Y2275D03*
X1580Y2175D03*
X1580Y2075D03*
X1580Y1975D03*
X1580Y1875D03*
X1580Y1775D03*
X1580Y1675D03*
X1580Y1575D03*
X1580Y1475D03*
X2181Y2776D03*
X2181Y2676D03*
X2181Y2576D03*
X2181Y2476D03*
X2181Y2376D03*
X2181Y2276D03*
X2181Y2176D03*
X2181Y2076D03*
X2181Y1976D03*
X2181Y1876D03*
X2181Y1776D03*
X2181Y1676D03*
X2181Y1576D03*
X2181Y1476D03*
G54D12*
X843Y3086D03*
X3322Y2851D03*
G54D13*
X1299Y681D03*
X1599Y681D03*
X599Y681D03*
X899Y681D03*
X1899Y681D03*
X2199Y681D03*
X2417Y685D03*
X2717Y685D03*
G54D14*
X409Y2575D03*
X409Y2275D03*
X409Y3166D03*
X409Y2766D03*
G54D15*
X3099Y781D03*
X3099Y595D03*
X3100Y411D03*
X3099Y1681D03*
X3099Y1495D03*
X3100Y1311D03*
X3099Y3181D03*
X3099Y2995D03*
X3100Y2811D03*
X3099Y2381D03*
X3099Y2195D03*
X3100Y2011D03*
G54D14*
X2399Y781D03*
X2399Y1181D03*
X1899Y781D03*
X1899Y1181D03*
X1299Y781D03*
X1299Y1181D03*
X599Y781D03*
X599Y1181D03*
G54D12*
X843Y3086D03*
X1946Y3089D03*
G54D16*
X1299Y681D03*
X599Y681D03*
X1899Y681D03*
X2417Y685D03*
G54D17*
X1395Y1354D02*
X1880Y803D01*
D02*
X1395Y2259D02*
X1395Y1354D01*
D02*
X1549Y2273D02*
X1395Y2259D01*
D02*
X1785Y2181D02*
X1610Y2176D01*
D02*
X2025Y1317D02*
X1785Y2181D01*
D02*
X2383Y805D02*
X2025Y1317D01*
D02*
X1234Y2457D02*
X1549Y2474D01*
D02*
X765Y1042D02*
X1234Y2457D01*
D02*
X615Y806D02*
X765Y1042D01*
D02*
X1317Y2338D02*
X1549Y2371D01*
D02*
X999Y1000D02*
X1317Y2338D01*
D02*
X1276Y798D02*
X999Y1000D01*
D02*
X2417Y1669D02*
X2212Y1675D01*
D02*
X3082Y623D02*
X2417Y1669D01*
D02*
X2733Y1788D02*
X3074Y1516D01*
D02*
X2212Y1777D02*
X2733Y1788D01*
D02*
X2770Y1869D02*
X3076Y2172D01*
D02*
X2212Y1876D02*
X2770Y1869D01*
D02*
X2575Y2258D02*
X3080Y2968D01*
D02*
X2212Y2275D02*
X2575Y2258D01*
D02*
X604Y1512D02*
X439Y1515D01*
D02*
X1037Y2653D02*
X604Y1512D01*
D02*
X1549Y2674D02*
X1037Y2653D01*
D02*
X2064Y2930D02*
X2162Y2801D01*
D02*
X1037Y2930D02*
X2064Y2930D01*
D02*
X422Y1642D02*
X1037Y2930D01*
D02*
X1117Y2535D02*
X1549Y2572D01*
D02*
X680Y1410D02*
X1117Y2535D01*
D02*
X439Y1415D02*
X680Y1410D01*
D02*
X862Y3086D02*
X1927Y3089D01*
D02*
X3308Y2822D02*
X3108Y2399D01*
G04 End of Copper0*
M02*