G04 MADE WITH FRITZING*
G04 WWW.FRITZING.ORG*
G04 DOUBLE SIDED*
G04 HOLES PLATED*
G04 CONTOUR ON CENTER OF CONTOUR VECTOR*
%ASAXBY*%
%FSLAX23Y23*%
%MOIN*%
%OFA0B0*%
%SFA1.0B1.0*%
%ADD10C,0.078000*%
%ADD11C,0.079370*%
%ADD12C,0.039370*%
%ADD13C,0.092000*%
%ADD14C,0.075000*%
%ADD15C,0.063307*%
%ADD16R,0.092000X0.092000*%
%ADD17C,0.024000*%
%ADD18C,0.011111*%
%ADD19R,0.001000X0.001000*%
%LNCOPPER1*%
G90*
G70*
G54D10*
X409Y1615D03*
X409Y1515D03*
X409Y1415D03*
X409Y1315D03*
G54D11*
X1580Y2775D03*
X1580Y2675D03*
X1580Y2575D03*
X1580Y2475D03*
X1580Y2375D03*
X1580Y2275D03*
X1580Y2175D03*
X1580Y2075D03*
X1580Y1975D03*
X1580Y1875D03*
X1580Y1775D03*
X1580Y1675D03*
X1580Y1575D03*
X1580Y1475D03*
X2181Y2776D03*
X2181Y2676D03*
X2181Y2576D03*
X2181Y2476D03*
X2181Y2376D03*
X2181Y2276D03*
X2181Y2176D03*
X2181Y2076D03*
X2181Y1976D03*
X2181Y1876D03*
X2181Y1776D03*
X2181Y1676D03*
X2181Y1576D03*
X2181Y1476D03*
G54D12*
X843Y3086D03*
X3322Y2851D03*
G54D13*
X1299Y681D03*
X1599Y681D03*
X599Y681D03*
X899Y681D03*
X1899Y681D03*
X2199Y681D03*
X2417Y685D03*
X2717Y685D03*
G54D14*
X409Y2575D03*
X409Y2275D03*
X409Y3166D03*
X409Y2766D03*
G54D15*
X3099Y781D03*
X3099Y595D03*
X3100Y411D03*
X3099Y781D03*
X3099Y595D03*
X3100Y411D03*
X3099Y1681D03*
X3099Y1495D03*
X3100Y1311D03*
X3099Y1681D03*
X3099Y1495D03*
X3100Y1311D03*
X3099Y3181D03*
X3099Y2995D03*
X3100Y2811D03*
X3099Y3181D03*
X3099Y2995D03*
X3100Y2811D03*
X3099Y2381D03*
X3099Y2195D03*
X3100Y2011D03*
X3099Y2381D03*
X3099Y2195D03*
X3100Y2011D03*
G54D14*
X2399Y781D03*
X2399Y1181D03*
X1899Y781D03*
X1899Y1181D03*
X1299Y781D03*
X1299Y1181D03*
X599Y781D03*
X599Y1181D03*
G54D12*
X843Y3086D03*
X1946Y3089D03*
G54D16*
X1299Y681D03*
X599Y681D03*
X1899Y681D03*
X2417Y685D03*
G54D17*
X1590Y3165D02*
X3067Y3181D01*
D02*
X437Y3166D02*
X1590Y3165D01*
D02*
X1590Y3165D02*
X1581Y2806D01*
D02*
X252Y1001D02*
X251Y2259D01*
D02*
X487Y528D02*
X252Y1001D01*
D02*
X251Y2259D02*
X380Y2272D01*
D02*
X852Y518D02*
X487Y528D01*
D02*
X852Y518D02*
X889Y646D01*
D02*
X1625Y481D02*
X852Y518D01*
D02*
X1625Y481D02*
X1604Y645D01*
D02*
X2222Y489D02*
X1625Y481D01*
D02*
X2222Y489D02*
X3067Y414D01*
D02*
X2204Y645D02*
X2222Y489D01*
D02*
X2211Y2583D02*
X2336Y2615D01*
D02*
X2336Y2615D02*
X3068Y2803D01*
D02*
X3284Y2574D02*
X3120Y2785D01*
D02*
X3284Y1370D02*
X3284Y2574D01*
D02*
X3284Y1370D02*
X3109Y1980D01*
D02*
X576Y1198D02*
X433Y1298D01*
G54D18*
D02*
X1322Y1181D02*
X1876Y1181D01*
G54D17*
D02*
X628Y1181D02*
X1271Y1181D01*
D02*
X2747Y664D02*
X3073Y430D01*
G54D18*
D02*
X2411Y716D02*
X2403Y759D01*
G54D17*
D02*
X599Y744D02*
X599Y710D01*
D02*
X1299Y744D02*
X1299Y710D01*
G54D18*
D02*
X1922Y1181D02*
X2376Y1181D01*
G54D17*
D02*
X409Y2604D02*
X409Y2737D01*
G54D18*
D02*
X1899Y758D02*
X1899Y713D01*
G54D17*
D02*
X830Y3072D02*
X855Y3101D01*
D02*
X421Y2590D02*
X824Y3064D01*
D02*
X3312Y2867D02*
X3118Y3154D01*
D02*
X3076Y1665D02*
X2426Y1200D01*
D02*
X3071Y798D02*
X2424Y1167D01*
D02*
X1946Y3089D02*
X1943Y2200D01*
D02*
X1974Y2181D02*
X2181Y2176D01*
D02*
X2794Y2046D02*
X3099Y2381D01*
D02*
X3099Y1681D02*
X2794Y1999D01*
D02*
X3105Y1344D02*
X3100Y1311D01*
D02*
X3100Y1311D02*
X3284Y1370D01*
D02*
X3284Y607D02*
X3122Y435D01*
D02*
X3284Y1370D02*
X3284Y607D01*
G54D19*
X557Y303D02*
X558Y303D01*
X596Y303D02*
X597Y303D01*
X773Y303D02*
X773Y303D01*
X922Y303D02*
X950Y303D01*
X1205Y303D02*
X1205Y303D01*
X554Y302D02*
X560Y302D01*
X594Y302D02*
X599Y302D01*
X770Y302D02*
X776Y302D01*
X919Y302D02*
X953Y302D01*
X1202Y302D02*
X1208Y302D01*
X554Y301D02*
X561Y301D01*
X593Y301D02*
X600Y301D01*
X770Y301D02*
X777Y301D01*
X917Y301D02*
X955Y301D01*
X1201Y301D02*
X1209Y301D01*
X553Y300D02*
X561Y300D01*
X592Y300D02*
X601Y300D01*
X769Y300D02*
X777Y300D01*
X916Y300D02*
X956Y300D01*
X1201Y300D02*
X1209Y300D01*
X553Y299D02*
X562Y299D01*
X590Y299D02*
X601Y299D01*
X769Y299D02*
X777Y299D01*
X915Y299D02*
X957Y299D01*
X1201Y299D02*
X1209Y299D01*
X553Y298D02*
X562Y298D01*
X589Y298D02*
X601Y298D01*
X769Y298D02*
X778Y298D01*
X914Y298D02*
X958Y298D01*
X1141Y298D02*
X1145Y298D01*
X1200Y298D02*
X1210Y298D01*
X553Y297D02*
X562Y297D01*
X588Y297D02*
X601Y297D01*
X769Y297D02*
X778Y297D01*
X914Y297D02*
X959Y297D01*
X1140Y297D02*
X1146Y297D01*
X1200Y297D02*
X1210Y297D01*
X553Y296D02*
X562Y296D01*
X587Y296D02*
X601Y296D01*
X769Y296D02*
X778Y296D01*
X913Y296D02*
X960Y296D01*
X1139Y296D02*
X1147Y296D01*
X1200Y296D02*
X1210Y296D01*
X553Y295D02*
X562Y295D01*
X586Y295D02*
X600Y295D01*
X769Y295D02*
X778Y295D01*
X913Y295D02*
X960Y295D01*
X1139Y295D02*
X1147Y295D01*
X1200Y295D02*
X1210Y295D01*
X553Y294D02*
X562Y294D01*
X585Y294D02*
X599Y294D01*
X769Y294D02*
X778Y294D01*
X913Y294D02*
X961Y294D01*
X1138Y294D02*
X1147Y294D01*
X1200Y294D02*
X1210Y294D01*
X553Y293D02*
X562Y293D01*
X583Y293D02*
X598Y293D01*
X769Y293D02*
X778Y293D01*
X913Y293D02*
X923Y293D01*
X949Y293D02*
X961Y293D01*
X1138Y293D02*
X1148Y293D01*
X1200Y293D02*
X1210Y293D01*
X553Y292D02*
X562Y292D01*
X582Y292D02*
X597Y292D01*
X769Y292D02*
X778Y292D01*
X913Y292D02*
X922Y292D01*
X951Y292D02*
X961Y292D01*
X1138Y292D02*
X1148Y292D01*
X1200Y292D02*
X1210Y292D01*
X553Y291D02*
X562Y291D01*
X581Y291D02*
X596Y291D01*
X769Y291D02*
X778Y291D01*
X913Y291D02*
X922Y291D01*
X952Y291D02*
X961Y291D01*
X1138Y291D02*
X1148Y291D01*
X1200Y291D02*
X1210Y291D01*
X553Y290D02*
X562Y290D01*
X580Y290D02*
X595Y290D01*
X769Y290D02*
X778Y290D01*
X913Y290D02*
X923Y290D01*
X952Y290D02*
X961Y290D01*
X1138Y290D02*
X1148Y290D01*
X1200Y290D02*
X1210Y290D01*
X553Y289D02*
X562Y289D01*
X579Y289D02*
X593Y289D01*
X769Y289D02*
X778Y289D01*
X913Y289D02*
X923Y289D01*
X952Y289D02*
X961Y289D01*
X1138Y289D02*
X1148Y289D01*
X1200Y289D02*
X1210Y289D01*
X553Y288D02*
X562Y288D01*
X578Y288D02*
X592Y288D01*
X769Y288D02*
X778Y288D01*
X913Y288D02*
X924Y288D01*
X953Y288D02*
X961Y288D01*
X1138Y288D02*
X1148Y288D01*
X1200Y288D02*
X1210Y288D01*
X553Y287D02*
X562Y287D01*
X576Y287D02*
X591Y287D01*
X769Y287D02*
X778Y287D01*
X914Y287D02*
X925Y287D01*
X953Y287D02*
X960Y287D01*
X1138Y287D02*
X1148Y287D01*
X1200Y287D02*
X1210Y287D01*
X553Y286D02*
X562Y286D01*
X575Y286D02*
X590Y286D01*
X769Y286D02*
X778Y286D01*
X914Y286D02*
X926Y286D01*
X954Y286D02*
X960Y286D01*
X1138Y286D02*
X1148Y286D01*
X1200Y286D02*
X1210Y286D01*
X553Y285D02*
X562Y285D01*
X574Y285D02*
X589Y285D01*
X769Y285D02*
X778Y285D01*
X915Y285D02*
X927Y285D01*
X955Y285D02*
X958Y285D01*
X1138Y285D02*
X1148Y285D01*
X1200Y285D02*
X1210Y285D01*
X553Y284D02*
X562Y284D01*
X573Y284D02*
X588Y284D01*
X769Y284D02*
X778Y284D01*
X915Y284D02*
X927Y284D01*
X1138Y284D02*
X1148Y284D01*
X1200Y284D02*
X1210Y284D01*
X553Y283D02*
X562Y283D01*
X572Y283D02*
X586Y283D01*
X769Y283D02*
X778Y283D01*
X916Y283D02*
X928Y283D01*
X1138Y283D02*
X1148Y283D01*
X1200Y283D02*
X1210Y283D01*
X553Y282D02*
X562Y282D01*
X571Y282D02*
X585Y282D01*
X769Y282D02*
X778Y282D01*
X917Y282D02*
X929Y282D01*
X1138Y282D02*
X1148Y282D01*
X1200Y282D02*
X1210Y282D01*
X553Y281D02*
X562Y281D01*
X569Y281D02*
X584Y281D01*
X638Y281D02*
X660Y281D01*
X699Y281D02*
X703Y281D01*
X719Y281D02*
X734Y281D01*
X769Y281D02*
X778Y281D01*
X805Y281D02*
X810Y281D01*
X853Y281D02*
X878Y281D01*
X918Y281D02*
X930Y281D01*
X987Y281D02*
X991Y281D01*
X1026Y281D02*
X1031Y281D01*
X1059Y281D02*
X1063Y281D01*
X1079Y281D02*
X1094Y281D01*
X1131Y281D02*
X1170Y281D01*
X1200Y281D02*
X1210Y281D01*
X1223Y281D02*
X1238Y281D01*
X553Y280D02*
X562Y280D01*
X568Y280D02*
X583Y280D01*
X636Y280D02*
X662Y280D01*
X698Y280D02*
X704Y280D01*
X717Y280D02*
X736Y280D01*
X769Y280D02*
X778Y280D01*
X804Y280D02*
X811Y280D01*
X852Y280D02*
X880Y280D01*
X919Y280D02*
X930Y280D01*
X986Y280D02*
X992Y280D01*
X1025Y280D02*
X1032Y280D01*
X1058Y280D02*
X1064Y280D01*
X1077Y280D02*
X1096Y280D01*
X1130Y280D02*
X1171Y280D01*
X1200Y280D02*
X1210Y280D01*
X1221Y280D02*
X1240Y280D01*
X553Y279D02*
X562Y279D01*
X567Y279D02*
X582Y279D01*
X634Y279D02*
X664Y279D01*
X697Y279D02*
X705Y279D01*
X715Y279D02*
X738Y279D01*
X769Y279D02*
X778Y279D01*
X803Y279D02*
X812Y279D01*
X851Y279D02*
X882Y279D01*
X919Y279D02*
X931Y279D01*
X985Y279D02*
X993Y279D01*
X1025Y279D02*
X1033Y279D01*
X1057Y279D02*
X1065Y279D01*
X1075Y279D02*
X1098Y279D01*
X1129Y279D02*
X1172Y279D01*
X1200Y279D02*
X1210Y279D01*
X1219Y279D02*
X1242Y279D01*
X553Y278D02*
X562Y278D01*
X566Y278D02*
X581Y278D01*
X633Y278D02*
X665Y278D01*
X697Y278D02*
X705Y278D01*
X714Y278D02*
X739Y278D01*
X769Y278D02*
X778Y278D01*
X802Y278D02*
X812Y278D01*
X851Y278D02*
X883Y278D01*
X920Y278D02*
X932Y278D01*
X985Y278D02*
X993Y278D01*
X1024Y278D02*
X1033Y278D01*
X1057Y278D02*
X1065Y278D01*
X1074Y278D02*
X1099Y278D01*
X1129Y278D02*
X1172Y278D01*
X1200Y278D02*
X1210Y278D01*
X1218Y278D02*
X1243Y278D01*
X553Y277D02*
X562Y277D01*
X565Y277D02*
X579Y277D01*
X632Y277D02*
X666Y277D01*
X697Y277D02*
X706Y277D01*
X712Y277D02*
X740Y277D01*
X769Y277D02*
X778Y277D01*
X801Y277D02*
X812Y277D01*
X850Y277D02*
X884Y277D01*
X921Y277D02*
X933Y277D01*
X985Y277D02*
X994Y277D01*
X1024Y277D02*
X1033Y277D01*
X1057Y277D02*
X1066Y277D01*
X1072Y277D02*
X1100Y277D01*
X1129Y277D02*
X1172Y277D01*
X1200Y277D02*
X1210Y277D01*
X1216Y277D02*
X1244Y277D01*
X553Y276D02*
X562Y276D01*
X564Y276D02*
X578Y276D01*
X631Y276D02*
X667Y276D01*
X697Y276D02*
X706Y276D01*
X711Y276D02*
X741Y276D01*
X769Y276D02*
X778Y276D01*
X799Y276D02*
X812Y276D01*
X851Y276D02*
X885Y276D01*
X922Y276D02*
X934Y276D01*
X985Y276D02*
X994Y276D01*
X1024Y276D02*
X1033Y276D01*
X1056Y276D02*
X1066Y276D01*
X1071Y276D02*
X1101Y276D01*
X1129Y276D02*
X1172Y276D01*
X1200Y276D02*
X1210Y276D01*
X1215Y276D02*
X1245Y276D01*
X553Y275D02*
X577Y275D01*
X630Y275D02*
X668Y275D01*
X697Y275D02*
X706Y275D01*
X709Y275D02*
X742Y275D01*
X769Y275D02*
X778Y275D01*
X798Y275D02*
X812Y275D01*
X851Y275D02*
X886Y275D01*
X922Y275D02*
X934Y275D01*
X985Y275D02*
X994Y275D01*
X1024Y275D02*
X1033Y275D01*
X1056Y275D02*
X1066Y275D01*
X1069Y275D02*
X1102Y275D01*
X1129Y275D02*
X1172Y275D01*
X1200Y275D02*
X1210Y275D01*
X1213Y275D02*
X1246Y275D01*
X553Y274D02*
X576Y274D01*
X629Y274D02*
X669Y274D01*
X697Y274D02*
X742Y274D01*
X769Y274D02*
X778Y274D01*
X797Y274D02*
X811Y274D01*
X851Y274D02*
X886Y274D01*
X923Y274D02*
X935Y274D01*
X985Y274D02*
X994Y274D01*
X1024Y274D02*
X1033Y274D01*
X1056Y274D02*
X1102Y274D01*
X1129Y274D02*
X1171Y274D01*
X1200Y274D02*
X1246Y274D01*
X553Y273D02*
X575Y273D01*
X628Y273D02*
X670Y273D01*
X697Y273D02*
X743Y273D01*
X769Y273D02*
X778Y273D01*
X796Y273D02*
X810Y273D01*
X852Y273D02*
X887Y273D01*
X924Y273D02*
X936Y273D01*
X985Y273D02*
X994Y273D01*
X1024Y273D02*
X1033Y273D01*
X1056Y273D02*
X1103Y273D01*
X1130Y273D02*
X1170Y273D01*
X1200Y273D02*
X1247Y273D01*
X553Y272D02*
X574Y272D01*
X627Y272D02*
X671Y272D01*
X697Y272D02*
X743Y272D01*
X769Y272D02*
X778Y272D01*
X795Y272D02*
X809Y272D01*
X855Y272D02*
X887Y272D01*
X925Y272D02*
X937Y272D01*
X985Y272D02*
X994Y272D01*
X1024Y272D02*
X1033Y272D01*
X1056Y272D02*
X1103Y272D01*
X1133Y272D02*
X1168Y272D01*
X1200Y272D02*
X1247Y272D01*
X553Y271D02*
X572Y271D01*
X627Y271D02*
X639Y271D01*
X659Y271D02*
X671Y271D01*
X697Y271D02*
X721Y271D01*
X733Y271D02*
X743Y271D01*
X769Y271D02*
X778Y271D01*
X794Y271D02*
X808Y271D01*
X877Y271D02*
X887Y271D01*
X926Y271D02*
X937Y271D01*
X985Y271D02*
X994Y271D01*
X1024Y271D02*
X1033Y271D01*
X1056Y271D02*
X1081Y271D01*
X1093Y271D02*
X1103Y271D01*
X1138Y271D02*
X1148Y271D01*
X1200Y271D02*
X1225Y271D01*
X1237Y271D02*
X1247Y271D01*
X553Y270D02*
X571Y270D01*
X626Y270D02*
X638Y270D01*
X660Y270D02*
X672Y270D01*
X697Y270D02*
X719Y270D01*
X734Y270D02*
X744Y270D01*
X769Y270D02*
X778Y270D01*
X792Y270D02*
X807Y270D01*
X878Y270D02*
X888Y270D01*
X926Y270D02*
X938Y270D01*
X985Y270D02*
X994Y270D01*
X1024Y270D02*
X1033Y270D01*
X1056Y270D02*
X1079Y270D01*
X1094Y270D02*
X1104Y270D01*
X1138Y270D02*
X1148Y270D01*
X1200Y270D02*
X1223Y270D01*
X1238Y270D02*
X1248Y270D01*
X553Y269D02*
X570Y269D01*
X626Y269D02*
X637Y269D01*
X661Y269D02*
X672Y269D01*
X697Y269D02*
X717Y269D01*
X734Y269D02*
X744Y269D01*
X769Y269D02*
X778Y269D01*
X791Y269D02*
X806Y269D01*
X878Y269D02*
X888Y269D01*
X927Y269D02*
X939Y269D01*
X985Y269D02*
X994Y269D01*
X1024Y269D02*
X1033Y269D01*
X1056Y269D02*
X1077Y269D01*
X1094Y269D02*
X1104Y269D01*
X1138Y269D02*
X1148Y269D01*
X1200Y269D02*
X1221Y269D01*
X1238Y269D02*
X1248Y269D01*
X553Y268D02*
X569Y268D01*
X625Y268D02*
X636Y268D01*
X662Y268D02*
X673Y268D01*
X697Y268D02*
X716Y268D01*
X735Y268D02*
X744Y268D01*
X769Y268D02*
X778Y268D01*
X790Y268D02*
X805Y268D01*
X879Y268D02*
X888Y268D01*
X928Y268D02*
X940Y268D01*
X985Y268D02*
X994Y268D01*
X1023Y268D02*
X1033Y268D01*
X1056Y268D02*
X1076Y268D01*
X1095Y268D02*
X1104Y268D01*
X1138Y268D02*
X1148Y268D01*
X1200Y268D02*
X1220Y268D01*
X1239Y268D02*
X1248Y268D01*
X553Y267D02*
X568Y267D01*
X625Y267D02*
X635Y267D01*
X663Y267D02*
X673Y267D01*
X697Y267D02*
X714Y267D01*
X735Y267D02*
X744Y267D01*
X769Y267D02*
X778Y267D01*
X789Y267D02*
X803Y267D01*
X879Y267D02*
X888Y267D01*
X929Y267D02*
X941Y267D01*
X985Y267D02*
X995Y267D01*
X1023Y267D02*
X1033Y267D01*
X1056Y267D02*
X1074Y267D01*
X1095Y267D02*
X1104Y267D01*
X1138Y267D02*
X1148Y267D01*
X1200Y267D02*
X1218Y267D01*
X1239Y267D02*
X1248Y267D01*
X553Y266D02*
X567Y266D01*
X625Y266D02*
X634Y266D01*
X664Y266D02*
X673Y266D01*
X697Y266D02*
X713Y266D01*
X735Y266D02*
X744Y266D01*
X769Y266D02*
X778Y266D01*
X788Y266D02*
X802Y266D01*
X879Y266D02*
X888Y266D01*
X929Y266D02*
X941Y266D01*
X985Y266D02*
X995Y266D01*
X1023Y266D02*
X1033Y266D01*
X1056Y266D02*
X1073Y266D01*
X1095Y266D02*
X1104Y266D01*
X1138Y266D02*
X1148Y266D01*
X1200Y266D02*
X1217Y266D01*
X1239Y266D02*
X1248Y266D01*
X553Y265D02*
X565Y265D01*
X625Y265D02*
X634Y265D01*
X664Y265D02*
X673Y265D01*
X697Y265D02*
X711Y265D01*
X735Y265D02*
X744Y265D01*
X769Y265D02*
X778Y265D01*
X787Y265D02*
X801Y265D01*
X879Y265D02*
X888Y265D01*
X930Y265D02*
X942Y265D01*
X986Y265D02*
X996Y265D01*
X1022Y265D02*
X1032Y265D01*
X1056Y265D02*
X1071Y265D01*
X1095Y265D02*
X1104Y265D01*
X1138Y265D02*
X1148Y265D01*
X1200Y265D02*
X1215Y265D01*
X1239Y265D02*
X1248Y265D01*
X553Y264D02*
X565Y264D01*
X625Y264D02*
X634Y264D01*
X664Y264D02*
X673Y264D01*
X697Y264D02*
X710Y264D01*
X735Y264D02*
X744Y264D01*
X769Y264D02*
X778Y264D01*
X785Y264D02*
X800Y264D01*
X879Y264D02*
X888Y264D01*
X931Y264D02*
X943Y264D01*
X986Y264D02*
X996Y264D01*
X1022Y264D02*
X1032Y264D01*
X1056Y264D02*
X1070Y264D01*
X1095Y264D02*
X1104Y264D01*
X1138Y264D02*
X1148Y264D01*
X1200Y264D02*
X1214Y264D01*
X1239Y264D02*
X1248Y264D01*
X553Y263D02*
X566Y263D01*
X625Y263D02*
X634Y263D01*
X664Y263D02*
X673Y263D01*
X697Y263D02*
X708Y263D01*
X735Y263D02*
X744Y263D01*
X769Y263D02*
X778Y263D01*
X784Y263D02*
X799Y263D01*
X879Y263D02*
X888Y263D01*
X932Y263D02*
X944Y263D01*
X986Y263D02*
X996Y263D01*
X1021Y263D02*
X1031Y263D01*
X1056Y263D02*
X1068Y263D01*
X1095Y263D02*
X1104Y263D01*
X1138Y263D02*
X1148Y263D01*
X1200Y263D02*
X1212Y263D01*
X1239Y263D02*
X1248Y263D01*
X553Y262D02*
X567Y262D01*
X625Y262D02*
X634Y262D01*
X664Y262D02*
X673Y262D01*
X697Y262D02*
X707Y262D01*
X735Y262D02*
X744Y262D01*
X769Y262D02*
X778Y262D01*
X783Y262D02*
X798Y262D01*
X879Y262D02*
X888Y262D01*
X932Y262D02*
X944Y262D01*
X987Y262D02*
X997Y262D01*
X1021Y262D02*
X1031Y262D01*
X1056Y262D02*
X1067Y262D01*
X1095Y262D02*
X1104Y262D01*
X1138Y262D02*
X1148Y262D01*
X1200Y262D02*
X1211Y262D01*
X1239Y262D02*
X1248Y262D01*
X553Y261D02*
X568Y261D01*
X625Y261D02*
X634Y261D01*
X664Y261D02*
X673Y261D01*
X697Y261D02*
X706Y261D01*
X735Y261D02*
X744Y261D01*
X769Y261D02*
X778Y261D01*
X782Y261D02*
X796Y261D01*
X879Y261D02*
X888Y261D01*
X933Y261D02*
X945Y261D01*
X987Y261D02*
X997Y261D01*
X1020Y261D02*
X1030Y261D01*
X1056Y261D02*
X1066Y261D01*
X1095Y261D02*
X1104Y261D01*
X1138Y261D02*
X1148Y261D01*
X1200Y261D02*
X1210Y261D01*
X1239Y261D02*
X1248Y261D01*
X553Y260D02*
X569Y260D01*
X625Y260D02*
X634Y260D01*
X664Y260D02*
X673Y260D01*
X697Y260D02*
X706Y260D01*
X735Y260D02*
X744Y260D01*
X769Y260D02*
X778Y260D01*
X781Y260D02*
X795Y260D01*
X851Y260D02*
X888Y260D01*
X934Y260D02*
X946Y260D01*
X988Y260D02*
X998Y260D01*
X1020Y260D02*
X1030Y260D01*
X1056Y260D02*
X1066Y260D01*
X1095Y260D02*
X1104Y260D01*
X1138Y260D02*
X1148Y260D01*
X1200Y260D02*
X1210Y260D01*
X1239Y260D02*
X1248Y260D01*
X553Y259D02*
X570Y259D01*
X625Y259D02*
X634Y259D01*
X664Y259D02*
X673Y259D01*
X697Y259D02*
X706Y259D01*
X735Y259D02*
X744Y259D01*
X769Y259D02*
X794Y259D01*
X848Y259D02*
X888Y259D01*
X935Y259D02*
X947Y259D01*
X988Y259D02*
X998Y259D01*
X1019Y259D02*
X1030Y259D01*
X1056Y259D02*
X1066Y259D01*
X1095Y259D02*
X1104Y259D01*
X1138Y259D02*
X1148Y259D01*
X1200Y259D02*
X1210Y259D01*
X1239Y259D02*
X1248Y259D01*
X553Y258D02*
X572Y258D01*
X625Y258D02*
X634Y258D01*
X664Y258D02*
X673Y258D01*
X697Y258D02*
X706Y258D01*
X735Y258D02*
X744Y258D01*
X769Y258D02*
X793Y258D01*
X847Y258D02*
X888Y258D01*
X936Y258D02*
X948Y258D01*
X989Y258D02*
X999Y258D01*
X1019Y258D02*
X1029Y258D01*
X1056Y258D02*
X1066Y258D01*
X1095Y258D02*
X1104Y258D01*
X1138Y258D02*
X1148Y258D01*
X1200Y258D02*
X1210Y258D01*
X1239Y258D02*
X1248Y258D01*
X553Y257D02*
X573Y257D01*
X625Y257D02*
X634Y257D01*
X664Y257D02*
X673Y257D01*
X697Y257D02*
X706Y257D01*
X735Y257D02*
X744Y257D01*
X769Y257D02*
X792Y257D01*
X846Y257D02*
X888Y257D01*
X936Y257D02*
X948Y257D01*
X989Y257D02*
X999Y257D01*
X1019Y257D02*
X1029Y257D01*
X1056Y257D02*
X1066Y257D01*
X1095Y257D02*
X1104Y257D01*
X1138Y257D02*
X1148Y257D01*
X1200Y257D02*
X1210Y257D01*
X1239Y257D02*
X1248Y257D01*
X553Y256D02*
X574Y256D01*
X625Y256D02*
X634Y256D01*
X664Y256D02*
X673Y256D01*
X697Y256D02*
X706Y256D01*
X735Y256D02*
X744Y256D01*
X769Y256D02*
X791Y256D01*
X845Y256D02*
X888Y256D01*
X937Y256D02*
X949Y256D01*
X989Y256D02*
X1000Y256D01*
X1018Y256D02*
X1028Y256D01*
X1056Y256D02*
X1066Y256D01*
X1095Y256D02*
X1104Y256D01*
X1138Y256D02*
X1148Y256D01*
X1200Y256D02*
X1210Y256D01*
X1239Y256D02*
X1248Y256D01*
X553Y255D02*
X575Y255D01*
X625Y255D02*
X634Y255D01*
X664Y255D02*
X673Y255D01*
X697Y255D02*
X706Y255D01*
X735Y255D02*
X744Y255D01*
X769Y255D02*
X791Y255D01*
X844Y255D02*
X888Y255D01*
X938Y255D02*
X950Y255D01*
X990Y255D02*
X1000Y255D01*
X1018Y255D02*
X1028Y255D01*
X1056Y255D02*
X1066Y255D01*
X1095Y255D02*
X1104Y255D01*
X1138Y255D02*
X1148Y255D01*
X1200Y255D02*
X1210Y255D01*
X1239Y255D02*
X1248Y255D01*
X553Y254D02*
X576Y254D01*
X625Y254D02*
X634Y254D01*
X664Y254D02*
X673Y254D01*
X697Y254D02*
X706Y254D01*
X735Y254D02*
X744Y254D01*
X769Y254D02*
X792Y254D01*
X843Y254D02*
X889Y254D01*
X939Y254D02*
X951Y254D01*
X990Y254D02*
X1000Y254D01*
X1017Y254D02*
X1027Y254D01*
X1056Y254D02*
X1066Y254D01*
X1095Y254D02*
X1104Y254D01*
X1138Y254D02*
X1148Y254D01*
X1200Y254D02*
X1210Y254D01*
X1239Y254D02*
X1248Y254D01*
X553Y253D02*
X577Y253D01*
X625Y253D02*
X634Y253D01*
X664Y253D02*
X673Y253D01*
X697Y253D02*
X706Y253D01*
X735Y253D02*
X745Y253D01*
X769Y253D02*
X793Y253D01*
X842Y253D02*
X889Y253D01*
X939Y253D02*
X951Y253D01*
X991Y253D02*
X1001Y253D01*
X1017Y253D02*
X1027Y253D01*
X1056Y253D02*
X1066Y253D01*
X1095Y253D02*
X1104Y253D01*
X1138Y253D02*
X1148Y253D01*
X1200Y253D02*
X1210Y253D01*
X1239Y253D02*
X1248Y253D01*
X553Y252D02*
X562Y252D01*
X564Y252D02*
X579Y252D01*
X625Y252D02*
X634Y252D01*
X664Y252D02*
X673Y252D01*
X697Y252D02*
X706Y252D01*
X735Y252D02*
X745Y252D01*
X769Y252D02*
X795Y252D01*
X842Y252D02*
X889Y252D01*
X940Y252D02*
X952Y252D01*
X991Y252D02*
X1001Y252D01*
X1016Y252D02*
X1027Y252D01*
X1056Y252D02*
X1066Y252D01*
X1095Y252D02*
X1105Y252D01*
X1138Y252D02*
X1148Y252D01*
X1200Y252D02*
X1210Y252D01*
X1239Y252D02*
X1248Y252D01*
X553Y251D02*
X562Y251D01*
X565Y251D02*
X580Y251D01*
X625Y251D02*
X634Y251D01*
X664Y251D02*
X673Y251D01*
X697Y251D02*
X706Y251D01*
X736Y251D02*
X745Y251D01*
X769Y251D02*
X796Y251D01*
X841Y251D02*
X889Y251D01*
X941Y251D02*
X953Y251D01*
X992Y251D02*
X1002Y251D01*
X1016Y251D02*
X1026Y251D01*
X1056Y251D02*
X1066Y251D01*
X1095Y251D02*
X1105Y251D01*
X1138Y251D02*
X1148Y251D01*
X1200Y251D02*
X1210Y251D01*
X1239Y251D02*
X1249Y251D01*
X553Y250D02*
X562Y250D01*
X566Y250D02*
X581Y250D01*
X625Y250D02*
X634Y250D01*
X664Y250D02*
X673Y250D01*
X697Y250D02*
X706Y250D01*
X736Y250D02*
X745Y250D01*
X769Y250D02*
X797Y250D01*
X841Y250D02*
X852Y250D01*
X877Y250D02*
X889Y250D01*
X942Y250D02*
X954Y250D01*
X992Y250D02*
X1002Y250D01*
X1016Y250D02*
X1026Y250D01*
X1056Y250D02*
X1066Y250D01*
X1096Y250D02*
X1105Y250D01*
X1138Y250D02*
X1148Y250D01*
X1200Y250D02*
X1210Y250D01*
X1239Y250D02*
X1249Y250D01*
X553Y249D02*
X562Y249D01*
X568Y249D02*
X582Y249D01*
X625Y249D02*
X634Y249D01*
X664Y249D02*
X673Y249D01*
X697Y249D02*
X706Y249D01*
X736Y249D02*
X745Y249D01*
X769Y249D02*
X798Y249D01*
X841Y249D02*
X851Y249D01*
X878Y249D02*
X889Y249D01*
X943Y249D02*
X955Y249D01*
X993Y249D02*
X1003Y249D01*
X1015Y249D02*
X1025Y249D01*
X1056Y249D02*
X1066Y249D01*
X1096Y249D02*
X1105Y249D01*
X1138Y249D02*
X1148Y249D01*
X1200Y249D02*
X1210Y249D01*
X1240Y249D02*
X1249Y249D01*
X553Y248D02*
X562Y248D01*
X569Y248D02*
X583Y248D01*
X625Y248D02*
X634Y248D01*
X664Y248D02*
X673Y248D01*
X697Y248D02*
X706Y248D01*
X736Y248D02*
X745Y248D01*
X769Y248D02*
X781Y248D01*
X785Y248D02*
X799Y248D01*
X841Y248D02*
X850Y248D01*
X879Y248D02*
X889Y248D01*
X943Y248D02*
X955Y248D01*
X993Y248D02*
X1003Y248D01*
X1015Y248D02*
X1025Y248D01*
X1056Y248D02*
X1066Y248D01*
X1096Y248D02*
X1105Y248D01*
X1138Y248D02*
X1148Y248D01*
X1200Y248D02*
X1210Y248D01*
X1240Y248D02*
X1249Y248D01*
X553Y247D02*
X562Y247D01*
X570Y247D02*
X584Y247D01*
X625Y247D02*
X634Y247D01*
X664Y247D02*
X673Y247D01*
X697Y247D02*
X706Y247D01*
X736Y247D02*
X745Y247D01*
X769Y247D02*
X780Y247D01*
X786Y247D02*
X800Y247D01*
X841Y247D02*
X850Y247D01*
X879Y247D02*
X889Y247D01*
X944Y247D02*
X956Y247D01*
X993Y247D02*
X1003Y247D01*
X1014Y247D02*
X1024Y247D01*
X1056Y247D02*
X1066Y247D01*
X1096Y247D02*
X1105Y247D01*
X1138Y247D02*
X1148Y247D01*
X1200Y247D02*
X1210Y247D01*
X1240Y247D02*
X1249Y247D01*
X553Y246D02*
X562Y246D01*
X571Y246D02*
X586Y246D01*
X625Y246D02*
X634Y246D01*
X664Y246D02*
X673Y246D01*
X697Y246D02*
X706Y246D01*
X736Y246D02*
X745Y246D01*
X769Y246D02*
X779Y246D01*
X787Y246D02*
X802Y246D01*
X841Y246D02*
X850Y246D01*
X880Y246D02*
X889Y246D01*
X945Y246D02*
X957Y246D01*
X994Y246D02*
X1004Y246D01*
X1014Y246D02*
X1024Y246D01*
X1056Y246D02*
X1066Y246D01*
X1096Y246D02*
X1105Y246D01*
X1138Y246D02*
X1148Y246D01*
X1200Y246D02*
X1210Y246D01*
X1240Y246D02*
X1249Y246D01*
X553Y245D02*
X562Y245D01*
X572Y245D02*
X587Y245D01*
X625Y245D02*
X634Y245D01*
X664Y245D02*
X673Y245D01*
X697Y245D02*
X706Y245D01*
X736Y245D02*
X745Y245D01*
X769Y245D02*
X778Y245D01*
X788Y245D02*
X803Y245D01*
X841Y245D02*
X850Y245D01*
X880Y245D02*
X889Y245D01*
X946Y245D02*
X958Y245D01*
X994Y245D02*
X1004Y245D01*
X1013Y245D02*
X1023Y245D01*
X1056Y245D02*
X1066Y245D01*
X1096Y245D02*
X1105Y245D01*
X1138Y245D02*
X1148Y245D01*
X1200Y245D02*
X1210Y245D01*
X1240Y245D02*
X1249Y245D01*
X553Y244D02*
X562Y244D01*
X573Y244D02*
X588Y244D01*
X625Y244D02*
X634Y244D01*
X664Y244D02*
X673Y244D01*
X697Y244D02*
X706Y244D01*
X736Y244D02*
X745Y244D01*
X769Y244D02*
X778Y244D01*
X789Y244D02*
X804Y244D01*
X841Y244D02*
X850Y244D01*
X880Y244D02*
X889Y244D01*
X946Y244D02*
X958Y244D01*
X995Y244D02*
X1005Y244D01*
X1013Y244D02*
X1023Y244D01*
X1056Y244D02*
X1066Y244D01*
X1096Y244D02*
X1105Y244D01*
X1138Y244D02*
X1148Y244D01*
X1200Y244D02*
X1210Y244D01*
X1240Y244D02*
X1249Y244D01*
X553Y243D02*
X562Y243D01*
X575Y243D02*
X589Y243D01*
X625Y243D02*
X634Y243D01*
X664Y243D02*
X673Y243D01*
X697Y243D02*
X706Y243D01*
X736Y243D02*
X745Y243D01*
X769Y243D02*
X778Y243D01*
X791Y243D02*
X805Y243D01*
X841Y243D02*
X850Y243D01*
X880Y243D02*
X889Y243D01*
X915Y243D02*
X919Y243D01*
X947Y243D02*
X959Y243D01*
X995Y243D02*
X1005Y243D01*
X1012Y243D02*
X1023Y243D01*
X1056Y243D02*
X1066Y243D01*
X1096Y243D02*
X1105Y243D01*
X1138Y243D02*
X1148Y243D01*
X1171Y243D02*
X1175Y243D01*
X1200Y243D02*
X1210Y243D01*
X1240Y243D02*
X1249Y243D01*
X553Y242D02*
X562Y242D01*
X576Y242D02*
X590Y242D01*
X625Y242D02*
X634Y242D01*
X664Y242D02*
X673Y242D01*
X697Y242D02*
X706Y242D01*
X736Y242D02*
X745Y242D01*
X769Y242D02*
X778Y242D01*
X792Y242D02*
X806Y242D01*
X841Y242D02*
X850Y242D01*
X880Y242D02*
X889Y242D01*
X914Y242D02*
X920Y242D01*
X948Y242D02*
X960Y242D01*
X996Y242D02*
X1006Y242D01*
X1012Y242D02*
X1022Y242D01*
X1056Y242D02*
X1066Y242D01*
X1096Y242D02*
X1105Y242D01*
X1138Y242D02*
X1148Y242D01*
X1170Y242D02*
X1176Y242D01*
X1200Y242D02*
X1210Y242D01*
X1240Y242D02*
X1249Y242D01*
X553Y241D02*
X562Y241D01*
X577Y241D02*
X591Y241D01*
X625Y241D02*
X634Y241D01*
X664Y241D02*
X673Y241D01*
X697Y241D02*
X706Y241D01*
X736Y241D02*
X745Y241D01*
X769Y241D02*
X778Y241D01*
X793Y241D02*
X807Y241D01*
X841Y241D02*
X850Y241D01*
X879Y241D02*
X889Y241D01*
X913Y241D02*
X921Y241D01*
X949Y241D02*
X960Y241D01*
X996Y241D02*
X1006Y241D01*
X1012Y241D02*
X1022Y241D01*
X1056Y241D02*
X1066Y241D01*
X1096Y241D02*
X1105Y241D01*
X1138Y241D02*
X1148Y241D01*
X1169Y241D02*
X1177Y241D01*
X1200Y241D02*
X1210Y241D01*
X1240Y241D02*
X1249Y241D01*
X553Y240D02*
X562Y240D01*
X578Y240D02*
X593Y240D01*
X625Y240D02*
X635Y240D01*
X663Y240D02*
X673Y240D01*
X697Y240D02*
X706Y240D01*
X736Y240D02*
X745Y240D01*
X769Y240D02*
X778Y240D01*
X794Y240D02*
X809Y240D01*
X841Y240D02*
X850Y240D01*
X877Y240D02*
X889Y240D01*
X913Y240D02*
X921Y240D01*
X950Y240D02*
X961Y240D01*
X997Y240D02*
X1006Y240D01*
X1011Y240D02*
X1021Y240D01*
X1056Y240D02*
X1066Y240D01*
X1096Y240D02*
X1105Y240D01*
X1138Y240D02*
X1148Y240D01*
X1168Y240D02*
X1177Y240D01*
X1200Y240D02*
X1210Y240D01*
X1240Y240D02*
X1249Y240D01*
X553Y239D02*
X562Y239D01*
X579Y239D02*
X594Y239D01*
X625Y239D02*
X636Y239D01*
X662Y239D02*
X673Y239D01*
X697Y239D02*
X706Y239D01*
X736Y239D02*
X745Y239D01*
X769Y239D02*
X778Y239D01*
X795Y239D02*
X810Y239D01*
X841Y239D02*
X850Y239D01*
X875Y239D02*
X889Y239D01*
X913Y239D02*
X922Y239D01*
X950Y239D02*
X961Y239D01*
X997Y239D02*
X1021Y239D01*
X1056Y239D02*
X1066Y239D01*
X1096Y239D02*
X1105Y239D01*
X1138Y239D02*
X1148Y239D01*
X1168Y239D02*
X1177Y239D01*
X1200Y239D02*
X1210Y239D01*
X1240Y239D02*
X1249Y239D01*
X553Y238D02*
X562Y238D01*
X580Y238D02*
X595Y238D01*
X625Y238D02*
X637Y238D01*
X661Y238D02*
X672Y238D01*
X697Y238D02*
X706Y238D01*
X736Y238D02*
X745Y238D01*
X769Y238D02*
X778Y238D01*
X796Y238D02*
X811Y238D01*
X841Y238D02*
X850Y238D01*
X874Y238D02*
X889Y238D01*
X913Y238D02*
X922Y238D01*
X951Y238D02*
X961Y238D01*
X997Y238D02*
X1020Y238D01*
X1056Y238D02*
X1066Y238D01*
X1096Y238D02*
X1105Y238D01*
X1139Y238D02*
X1148Y238D01*
X1168Y238D02*
X1177Y238D01*
X1200Y238D02*
X1210Y238D01*
X1240Y238D02*
X1249Y238D01*
X553Y237D02*
X562Y237D01*
X582Y237D02*
X596Y237D01*
X626Y237D02*
X638Y237D01*
X660Y237D02*
X672Y237D01*
X697Y237D02*
X706Y237D01*
X736Y237D02*
X745Y237D01*
X769Y237D02*
X778Y237D01*
X798Y237D02*
X812Y237D01*
X841Y237D02*
X851Y237D01*
X872Y237D02*
X889Y237D01*
X913Y237D02*
X922Y237D01*
X952Y237D02*
X961Y237D01*
X998Y237D02*
X1020Y237D01*
X1056Y237D02*
X1066Y237D01*
X1096Y237D02*
X1105Y237D01*
X1139Y237D02*
X1149Y237D01*
X1167Y237D02*
X1177Y237D01*
X1200Y237D02*
X1210Y237D01*
X1240Y237D02*
X1249Y237D01*
X553Y236D02*
X562Y236D01*
X583Y236D02*
X597Y236D01*
X626Y236D02*
X640Y236D01*
X658Y236D02*
X671Y236D01*
X697Y236D02*
X706Y236D01*
X736Y236D02*
X745Y236D01*
X769Y236D02*
X778Y236D01*
X799Y236D02*
X813Y236D01*
X841Y236D02*
X852Y236D01*
X870Y236D02*
X889Y236D01*
X913Y236D02*
X923Y236D01*
X952Y236D02*
X961Y236D01*
X998Y236D02*
X1020Y236D01*
X1056Y236D02*
X1066Y236D01*
X1096Y236D02*
X1105Y236D01*
X1139Y236D02*
X1150Y236D01*
X1166Y236D02*
X1177Y236D01*
X1200Y236D02*
X1210Y236D01*
X1240Y236D02*
X1249Y236D01*
X553Y235D02*
X562Y235D01*
X584Y235D02*
X599Y235D01*
X627Y235D02*
X671Y235D01*
X697Y235D02*
X706Y235D01*
X736Y235D02*
X745Y235D01*
X769Y235D02*
X778Y235D01*
X800Y235D02*
X814Y235D01*
X841Y235D02*
X889Y235D01*
X913Y235D02*
X961Y235D01*
X999Y235D02*
X1019Y235D01*
X1056Y235D02*
X1066Y235D01*
X1096Y235D02*
X1105Y235D01*
X1139Y235D02*
X1176Y235D01*
X1200Y235D02*
X1210Y235D01*
X1240Y235D02*
X1249Y235D01*
X553Y234D02*
X562Y234D01*
X585Y234D02*
X600Y234D01*
X628Y234D02*
X670Y234D01*
X697Y234D02*
X706Y234D01*
X736Y234D02*
X745Y234D01*
X769Y234D02*
X778Y234D01*
X801Y234D02*
X816Y234D01*
X842Y234D02*
X889Y234D01*
X913Y234D02*
X961Y234D01*
X999Y234D02*
X1019Y234D01*
X1056Y234D02*
X1066Y234D01*
X1096Y234D02*
X1105Y234D01*
X1140Y234D02*
X1176Y234D01*
X1200Y234D02*
X1210Y234D01*
X1240Y234D02*
X1249Y234D01*
X553Y233D02*
X562Y233D01*
X586Y233D02*
X600Y233D01*
X629Y233D02*
X669Y233D01*
X697Y233D02*
X706Y233D01*
X736Y233D02*
X745Y233D01*
X769Y233D02*
X778Y233D01*
X802Y233D02*
X816Y233D01*
X842Y233D02*
X889Y233D01*
X914Y233D02*
X961Y233D01*
X1000Y233D02*
X1018Y233D01*
X1056Y233D02*
X1066Y233D01*
X1096Y233D02*
X1105Y233D01*
X1140Y233D02*
X1175Y233D01*
X1200Y233D02*
X1210Y233D01*
X1240Y233D02*
X1249Y233D01*
X553Y232D02*
X562Y232D01*
X587Y232D02*
X601Y232D01*
X630Y232D02*
X668Y232D01*
X697Y232D02*
X706Y232D01*
X736Y232D02*
X745Y232D01*
X769Y232D02*
X778Y232D01*
X803Y232D02*
X817Y232D01*
X843Y232D02*
X889Y232D01*
X914Y232D02*
X960Y232D01*
X1000Y232D02*
X1018Y232D01*
X1056Y232D02*
X1066Y232D01*
X1096Y232D02*
X1105Y232D01*
X1141Y232D02*
X1175Y232D01*
X1200Y232D02*
X1210Y232D01*
X1240Y232D02*
X1249Y232D01*
X553Y231D02*
X562Y231D01*
X589Y231D02*
X601Y231D01*
X631Y231D02*
X667Y231D01*
X697Y231D02*
X706Y231D01*
X736Y231D02*
X745Y231D01*
X769Y231D02*
X778Y231D01*
X805Y231D02*
X817Y231D01*
X844Y231D02*
X889Y231D01*
X915Y231D02*
X960Y231D01*
X1001Y231D02*
X1017Y231D01*
X1056Y231D02*
X1066Y231D01*
X1096Y231D02*
X1105Y231D01*
X1142Y231D02*
X1174Y231D01*
X1200Y231D02*
X1210Y231D01*
X1240Y231D02*
X1249Y231D01*
X553Y230D02*
X562Y230D01*
X590Y230D02*
X601Y230D01*
X632Y230D02*
X666Y230D01*
X697Y230D02*
X706Y230D01*
X736Y230D02*
X745Y230D01*
X769Y230D02*
X778Y230D01*
X806Y230D02*
X817Y230D01*
X845Y230D02*
X889Y230D01*
X916Y230D02*
X959Y230D01*
X1002Y230D02*
X1017Y230D01*
X1057Y230D02*
X1066Y230D01*
X1096Y230D02*
X1105Y230D01*
X1142Y230D02*
X1173Y230D01*
X1201Y230D02*
X1210Y230D01*
X1240Y230D02*
X1249Y230D01*
X553Y229D02*
X561Y229D01*
X591Y229D02*
X601Y229D01*
X633Y229D02*
X665Y229D01*
X697Y229D02*
X705Y229D01*
X736Y229D02*
X745Y229D01*
X769Y229D02*
X777Y229D01*
X807Y229D02*
X817Y229D01*
X846Y229D02*
X877Y229D01*
X880Y229D02*
X889Y229D01*
X917Y229D02*
X958Y229D01*
X1006Y229D02*
X1016Y229D01*
X1057Y229D02*
X1065Y229D01*
X1096Y229D02*
X1105Y229D01*
X1144Y229D02*
X1172Y229D01*
X1201Y229D02*
X1209Y229D01*
X1240Y229D02*
X1249Y229D01*
X553Y228D02*
X561Y228D01*
X592Y228D02*
X601Y228D01*
X635Y228D02*
X663Y228D01*
X697Y228D02*
X705Y228D01*
X737Y228D02*
X745Y228D01*
X769Y228D02*
X777Y228D01*
X808Y228D02*
X817Y228D01*
X847Y228D02*
X875Y228D01*
X881Y228D02*
X889Y228D01*
X918Y228D02*
X957Y228D01*
X1006Y228D02*
X1016Y228D01*
X1057Y228D02*
X1065Y228D01*
X1097Y228D02*
X1105Y228D01*
X1145Y228D02*
X1171Y228D01*
X1201Y228D02*
X1209Y228D01*
X1241Y228D02*
X1249Y228D01*
X554Y227D02*
X560Y227D01*
X593Y227D02*
X600Y227D01*
X636Y227D02*
X662Y227D01*
X698Y227D02*
X704Y227D01*
X737Y227D02*
X744Y227D01*
X770Y227D02*
X776Y227D01*
X809Y227D02*
X816Y227D01*
X848Y227D02*
X874Y227D01*
X881Y227D02*
X888Y227D01*
X919Y227D02*
X956Y227D01*
X1005Y227D02*
X1016Y227D01*
X1058Y227D02*
X1064Y227D01*
X1097Y227D02*
X1104Y227D01*
X1146Y227D02*
X1169Y227D01*
X1202Y227D02*
X1208Y227D01*
X1241Y227D02*
X1248Y227D01*
X555Y226D02*
X559Y226D01*
X595Y226D02*
X599Y226D01*
X638Y226D02*
X660Y226D01*
X699Y226D02*
X703Y226D01*
X739Y226D02*
X743Y226D01*
X771Y226D02*
X775Y226D01*
X811Y226D02*
X815Y226D01*
X851Y226D02*
X872Y226D01*
X883Y226D02*
X887Y226D01*
X922Y226D02*
X954Y226D01*
X1005Y226D02*
X1015Y226D01*
X1059Y226D02*
X1063Y226D01*
X1099Y226D02*
X1103Y226D01*
X1149Y226D02*
X1167Y226D01*
X1203Y226D02*
X1207Y226D01*
X1243Y226D02*
X1247Y226D01*
X1005Y225D02*
X1015Y225D01*
X1004Y224D02*
X1014Y224D01*
X1004Y223D02*
X1014Y223D01*
X1003Y222D02*
X1013Y222D01*
X1003Y221D02*
X1013Y221D01*
X1002Y220D02*
X1013Y220D01*
X1002Y219D02*
X1012Y219D01*
X1002Y218D02*
X1012Y218D01*
X1001Y217D02*
X1011Y217D01*
X1001Y216D02*
X1011Y216D01*
X1000Y215D02*
X1010Y215D01*
X989Y214D02*
X1010Y214D01*
X987Y213D02*
X1009Y213D01*
X986Y212D02*
X1009Y212D01*
X985Y211D02*
X1009Y211D01*
X985Y210D02*
X1008Y210D01*
X985Y209D02*
X1008Y209D01*
X985Y208D02*
X1007Y208D01*
X985Y207D02*
X1007Y207D01*
X986Y206D02*
X1006Y206D01*
X987Y205D02*
X1005Y205D01*
X990Y204D02*
X1002Y204D01*
D02*
G04 End of Copper1*
M02*