<?xml version='1.0' encoding='UTF-8' standalone='no'?>
<!-- Created with Fritzing (http://www.fritzing.org/) -->
<svg xmlns="http://www.w3.org/2000/svg"  viewBox="0 0 255.851 256.603" xmlns:svg="http://www.w3.org/2000/svg" baseProfile="tiny" x="0in" y="0in" height="3.56393in" version="1.2" width="3.55349in">
 <g partID="20370">
  <g  id="board">
   <rect fill="none" fill-opacity="0.5"  stroke="black" id="boardoutline" x="0.288" y="0.288" height="256.027" width="255.275" stroke-width="0.5"/>
  </g>
 </g>
 <g partID="854330551">
  <g transform="translate(108.696,51.7558)">
   <g  id="copper1">
    <g  id="copper0">
     <circle fill="black"  r="2.13732" stroke="black" id="connector0pin" cx="5.04" cy="5.04" stroke-width="2.16"/>
     <circle fill="black"  r="2.13732" stroke="black" id="connector1pin" cx="5.04" cy="12.24" stroke-width="2.16"/>
     <circle fill="black"  r="2.13732" stroke="black" id="connector2pin" cx="5.04" cy="19.44" stroke-width="2.16"/>
     <circle fill="black"  r="2.13732" stroke="black" id="connector3pin" cx="5.04" cy="26.64" stroke-width="2.16"/>
     <circle fill="black"  r="2.13732" stroke="black" id="connector4pin" cx="5.04" cy="33.84" stroke-width="2.16"/>
     <circle fill="black"  r="2.13732" stroke="black" id="connector5pin" cx="5.04" cy="41.04" stroke-width="2.16"/>
     <circle fill="black"  r="2.13732" stroke="black" id="connector6pin" cx="5.04" cy="48.24" stroke-width="2.16"/>
     <circle fill="black"  r="2.13732" stroke="black" id="connector7pin" cx="5.04" cy="55.44" stroke-width="2.16"/>
     <circle fill="black"  r="2.13732" stroke="black" id="connector8pin" cx="5.04" cy="62.64" stroke-width="2.16"/>
     <circle fill="black"  r="2.13732" stroke="black" id="connector9pin" cx="5.04" cy="69.84" stroke-width="2.16"/>
     <circle fill="black"  r="2.13732" stroke="black" id="connector10pin" cx="5.04" cy="77.04" stroke-width="2.16"/>
     <circle fill="black"  r="2.13732" stroke="black" id="connector11pin" cx="5.04" cy="84.24" stroke-width="2.16"/>
     <circle fill="black"  r="2.13732" stroke="black" id="connector12pin" cx="5.04" cy="91.44" stroke-width="2.16"/>
     <circle fill="black"  r="2.13732" stroke="black" id="connector13pin" cx="5.04" cy="98.64" stroke-width="2.16"/>
    </g>
   </g>
  </g>
 </g>
 <g partID="854329951">
  <g transform="translate(151.999,51.6879)">
   <g  id="copper1">
    <g  id="copper0">
     <circle fill="black"  r="2.13732" stroke="black" id="connector0pin" cx="5.04" cy="5.04" stroke-width="2.16"/>
     <circle fill="black"  r="2.13732" stroke="black" id="connector1pin" cx="5.04" cy="12.24" stroke-width="2.16"/>
     <circle fill="black"  r="2.13732" stroke="black" id="connector2pin" cx="5.04" cy="19.44" stroke-width="2.16"/>
     <circle fill="black"  r="2.13732" stroke="black" id="connector3pin" cx="5.04" cy="26.64" stroke-width="2.16"/>
     <circle fill="black"  r="2.13732" stroke="black" id="connector4pin" cx="5.04" cy="33.84" stroke-width="2.16"/>
     <circle fill="black"  r="2.13732" stroke="black" id="connector5pin" cx="5.04" cy="41.04" stroke-width="2.16"/>
     <circle fill="black"  r="2.13732" stroke="black" id="connector6pin" cx="5.04" cy="48.24" stroke-width="2.16"/>
     <circle fill="black"  r="2.13732" stroke="black" id="connector7pin" cx="5.04" cy="55.44" stroke-width="2.16"/>
     <circle fill="black"  r="2.13732" stroke="black" id="connector8pin" cx="5.04" cy="62.64" stroke-width="2.16"/>
     <circle fill="black"  r="2.13732" stroke="black" id="connector9pin" cx="5.04" cy="69.84" stroke-width="2.16"/>
     <circle fill="black"  r="2.13732" stroke="black" id="connector10pin" cx="5.04" cy="77.04" stroke-width="2.16"/>
     <circle fill="black"  r="2.13732" stroke="black" id="connector11pin" cx="5.04" cy="84.24" stroke-width="2.16"/>
     <circle fill="black"  r="2.13732" stroke="black" id="connector12pin" cx="5.04" cy="91.44" stroke-width="2.16"/>
     <circle fill="black"  r="2.13732" stroke="black" id="connector13pin" cx="5.04" cy="98.64" stroke-width="2.16"/>
    </g>
   </g>
  </g>
 </g>
 <g partID="854310981">
  <g transform="translate(57.6607,31.3779)">
   <g  id="copper1">
    <circle fill="black"  r="0.992124" stroke="black" id="connector0pin" cx="3.01733" cy="3.01733" stroke-width="1.57039"/>
   </g>
  </g>
 </g>
 <g partID="854322661">
  <g transform="translate(236.192,48.2914)">
   <g  id="copper1">
    <circle fill="black"  r="0.992124" stroke="black" id="connector0pin" cx="3.01733" cy="3.01733" stroke-width="1.57039"/>
   </g>
  </g>
 </g>
 <g partID="854148481">
  <g transform="translate(90.2417,204.232)">
   <g  id="copper1">
    <g  id="copper0">
     <rect fill="black"  stroke="black" id="rect20" x="0.72" y="0.72" height="5.184" width="5.184" stroke-width="2.16"/>
     <circle fill="black"  r="2.592" stroke="black" id="connector0pin" cx="3.312" cy="3.312" stroke-width="2.16"/>
     <circle fill="black"  r="2.592" stroke="black" id="connector1pin" cx="24.912" cy="3.312" stroke-width="2.16"/>
    </g>
   </g>
  </g>
 </g>
 <g partID="854146861">
  <g transform="translate(39.8417,204.232)">
   <g  id="copper1">
    <g  id="copper0">
     <rect fill="black"  stroke="black" id="rect20" x="0.72" y="0.72" height="5.184" width="5.184" stroke-width="2.16"/>
     <circle fill="black"  r="2.592" stroke="black" id="connector0pin" cx="3.312" cy="3.312" stroke-width="2.16"/>
     <circle fill="black"  r="2.592" stroke="black" id="connector1pin" cx="24.912" cy="3.312" stroke-width="2.16"/>
    </g>
   </g>
  </g>
 </g>
 <g partID="854149281">
  <g transform="translate(133.442,204.232)">
   <g  id="copper1">
    <g  id="copper0">
     <rect fill="black"  stroke="black" id="rect20" x="0.72" y="0.72" height="5.184" width="5.184" stroke-width="2.16"/>
     <circle fill="black"  r="2.592" stroke="black" id="connector0pin" cx="3.312" cy="3.312" stroke-width="2.16"/>
     <circle fill="black"  r="2.592" stroke="black" id="connector1pin" cx="24.912" cy="3.312" stroke-width="2.16"/>
    </g>
   </g>
  </g>
 </g>
 <g partID="854149311">
  <g transform="translate(170.689,203.948)">
   <g  id="copper1">
    <g  id="copper0">
     <rect fill="black"  stroke="black" id="rect20" x="0.72" y="0.72" height="5.184" width="5.184" stroke-width="2.16"/>
     <circle fill="black"  r="2.592" stroke="black" id="connector0pin" cx="3.312" cy="3.312" stroke-width="2.16"/>
     <circle fill="black"  r="2.592" stroke="black" id="connector1pin" cx="24.912" cy="3.312" stroke-width="2.16"/>
    </g>
   </g>
  </g>
 </g>
 <g partID="854120071">
  <g transform="translate(32.134,68.4972)">
   <g transform="matrix(0,1,-1,0,0,0)">
    <g  id="copper1">
     <!-- <rect width="55" x="10" y="10" fill="none" height="55" stroke="rgb(255, 191, 0)" stroke-width="20" /> -->
     <circle fill="black"  r="1.98" stroke="black" id="connector0pin" cx="2.7" cy="2.7" stroke-width="2.16"/>
     <circle fill="black"  r="1.98" stroke="black" id="connector1pin" cx="24.3" cy="2.7" stroke-width="2.16"/>
    </g>
   </g>
  </g>
 </g>
 <g partID="854120251">
  <g transform="translate(32.53,25.9775)">
   <g transform="matrix(0,1,-1,0,0,0)">
    <g  id="copper1">
     <!-- <rect width="55" x="10" y="15.5" fill="none" height="55" stroke="rgb(255, 191, 0)" stroke-width="20" />  -->
     <circle fill="black"  r="1.98" stroke="black" id="connector0pin" cx="2.7" cy="3.096" stroke-width="2.16"/>
     <circle fill="black"  r="1.98" stroke="black" id="connector1pin" cx="31.5" cy="3.096" stroke-width="2.16"/>
    </g>
   </g>
  </g>
 </g>
 <g partID="854165831">
  <g transform="translate(292.338,190.064)">
   <g transform="matrix(0,1,-1,0,0,0)">
    <g  id="copper1">
     <circle fill="black"  r="1.91905" stroke="black" id="connector0pad" cx="10.2798" cy="69.1838" connectorname="P$1" stroke-width="1.44"/>
     <circle fill="black"  r="1.91905" stroke="black" id="connector1pad" cx="23.6877" cy="69.1838" connectorname="P$2" stroke-width="1.44"/>
     <circle fill="black"  r="1.91905" stroke="black" id="connector2pad" cx="36.9255" cy="69.1554" connectorname="P$3" stroke-width="1.44"/>
     <g  id="copper0">
      <circle fill="black"  r="1.91905" stroke="black" id="connector0pad" cx="10.2798" cy="69.1838" connectorname="P$1" stroke-width="1.44"/>
      <circle fill="black"  r="1.91905" stroke="black" id="connector1pad" cx="23.6877" cy="69.1838" connectorname="P$2" stroke-width="1.44"/>
      <circle fill="black"  r="1.91905" stroke="black" id="connector2pad" cx="36.9255" cy="69.1554" connectorname="P$3" stroke-width="1.44"/>
     </g>
    </g>
   </g>
  </g>
 </g>
 <g partID="854165811">
  <g transform="translate(292.338,125.264)">
   <g transform="matrix(0,1,-1,0,0,0)">
    <g  id="copper1">
     <circle fill="black"  r="1.91905" stroke="black" id="connector0pad" cx="10.2798" cy="69.1838" connectorname="P$1" stroke-width="1.44"/>
     <circle fill="black"  r="1.91905" stroke="black" id="connector1pad" cx="23.6877" cy="69.1838" connectorname="P$2" stroke-width="1.44"/>
     <circle fill="black"  r="1.91905" stroke="black" id="connector2pad" cx="36.9255" cy="69.1554" connectorname="P$3" stroke-width="1.44"/>
     <g  id="copper0">
      <circle fill="black"  r="1.91905" stroke="black" id="connector0pad" cx="10.2798" cy="69.1838" connectorname="P$1" stroke-width="1.44"/>
      <circle fill="black"  r="1.91905" stroke="black" id="connector1pad" cx="23.6877" cy="69.1838" connectorname="P$2" stroke-width="1.44"/>
      <circle fill="black"  r="1.91905" stroke="black" id="connector2pad" cx="36.9255" cy="69.1554" connectorname="P$3" stroke-width="1.44"/>
     </g>
    </g>
   </g>
  </g>
 </g>
 <g partID="854121091">
  <g transform="translate(292.338,17.2641)">
   <g transform="matrix(0,1,-1,0,0,0)">
    <g  id="copper1">
     <circle fill="black"  r="1.91905" stroke="black" id="connector0pad" cx="10.2798" cy="69.1838" connectorname="P$1" stroke-width="1.44"/>
     <circle fill="black"  r="1.91905" stroke="black" id="connector1pad" cx="23.6877" cy="69.1838" connectorname="P$2" stroke-width="1.44"/>
     <circle fill="black"  r="1.91905" stroke="black" id="connector2pad" cx="36.9255" cy="69.1554" connectorname="P$3" stroke-width="1.44"/>
     <g  id="copper0">
      <circle fill="black"  r="1.91905" stroke="black" id="connector0pad" cx="10.2798" cy="69.1838" connectorname="P$1" stroke-width="1.44"/>
      <circle fill="black"  r="1.91905" stroke="black" id="connector1pad" cx="23.6877" cy="69.1838" connectorname="P$2" stroke-width="1.44"/>
      <circle fill="black"  r="1.91905" stroke="black" id="connector2pad" cx="36.9255" cy="69.1554" connectorname="P$3" stroke-width="1.44"/>
     </g>
    </g>
   </g>
  </g>
 </g>
 <g partID="854122401">
  <g transform="translate(292.338,74.8638)">
   <g transform="matrix(0,1,-1,0,0,0)">
    <g  id="copper1">
     <circle fill="black"  r="1.91905" stroke="black" id="connector0pad" cx="10.2798" cy="69.1838" connectorname="P$1" stroke-width="1.44"/>
     <circle fill="black"  r="1.91905" stroke="black" id="connector1pad" cx="23.6877" cy="69.1838" connectorname="P$2" stroke-width="1.44"/>
     <circle fill="black"  r="1.91905" stroke="black" id="connector2pad" cx="36.9255" cy="69.1554" connectorname="P$3" stroke-width="1.44"/>
     <g  id="copper0">
      <circle fill="black"  r="1.91905" stroke="black" id="connector0pad" cx="10.2798" cy="69.1838" connectorname="P$1" stroke-width="1.44"/>
      <circle fill="black"  r="1.91905" stroke="black" id="connector1pad" cx="23.6877" cy="69.1838" connectorname="P$2" stroke-width="1.44"/>
      <circle fill="black"  r="1.91905" stroke="black" id="connector2pad" cx="36.9255" cy="69.1554" connectorname="P$3" stroke-width="1.44"/>
     </g>
    </g>
   </g>
  </g>
 </g>
 <g partID="854213831">
  <g transform="translate(169.658,203.044)">
   <g transform="matrix(0,-1,1,0,0,0)">
    <g  id="copper1">
     <!-- <rect width="55" x="10" y="15.5" fill="none" height="55" stroke="rgb(255, 191, 0)" stroke-width="20" />  -->
     <circle fill="black"  r="1.98" stroke="black" id="connector0pin" cx="2.7" cy="3.096" stroke-width="2.16"/>
     <circle fill="black"  r="1.98" stroke="black" id="connector1pin" cx="31.5" cy="3.096" stroke-width="2.16"/>
    </g>
   </g>
  </g>
 </g>
 <g partID="854213651">
  <g transform="translate(133.658,203.044)">
   <g transform="matrix(0,-1,1,0,0,0)">
    <g  id="copper1">
     <!-- <rect width="55" x="10" y="15.5" fill="none" height="55" stroke="rgb(255, 191, 0)" stroke-width="20" />  -->
     <circle fill="black"  r="1.98" stroke="black" id="connector0pin" cx="2.7" cy="3.096" stroke-width="2.16"/>
     <circle fill="black"  r="1.98" stroke="black" id="connector1pin" cx="31.5" cy="3.096" stroke-width="2.16"/>
    </g>
   </g>
  </g>
 </g>
 <g partID="854213471">
  <g transform="translate(90.4577,203.044)">
   <g transform="matrix(0,-1,1,0,0,0)">
    <g  id="copper1">
     <!-- <rect width="55" x="10" y="15.5" fill="none" height="55" stroke="rgb(255, 191, 0)" stroke-width="20" />  -->
     <circle fill="black"  r="1.98" stroke="black" id="connector0pin" cx="2.7" cy="3.096" stroke-width="2.16"/>
     <circle fill="black"  r="1.98" stroke="black" id="connector1pin" cx="31.5" cy="3.096" stroke-width="2.16"/>
    </g>
   </g>
  </g>
 </g>
 <g partID="854213291">
  <g transform="translate(40.0577,203.044)">
   <g transform="matrix(0,-1,1,0,0,0)">
    <g  id="copper1">
     <!-- <rect width="55" x="10" y="15.5" fill="none" height="55" stroke="rgb(255, 191, 0)" stroke-width="20" />  -->
     <circle fill="black"  r="1.98" stroke="black" id="connector0pin" cx="2.7" cy="3.096" stroke-width="2.16"/>
     <circle fill="black"  r="1.98" stroke="black" id="connector1pin" cx="31.5" cy="3.096" stroke-width="2.16"/>
    </g>
   </g>
  </g>
 </g>
 <g partID="854344251">
  <g transform="translate(57.6607,31.3778)">
   <g  id="copper1">
    <circle fill="black"  r="0.992124" stroke="black" id="connector0pin" cx="3.01733" cy="3.01733" stroke-width="1.57039"/>
   </g>
  </g>
 </g>
 <g partID="854344311">
  <g transform="translate(137.102,31.2008)">
   <g  id="copper1">
    <circle fill="black"  r="0.992124" stroke="black" id="connector0pin" cx="3.01733" cy="3.01733" stroke-width="1.57039"/>
   </g>
  </g>
 </g>
 <g partID="854352911">
  <g transform="translate(121.377,234.007)">
   <g  id="copper1">
    <circle fill="black"  r="5.66929" stroke="black" id="nonconn0" cx="7.26926" cy="7.26926" stroke-width="0.72"/>
   </g>
  </g>
 </g>
 <g partID="854352891">
  <g transform="translate(121.377,7.23497)">
   <g  id="copper1">
    <circle fill="black"  r="5.66929" stroke="black" id="nonconn0" cx="7.26926" cy="7.26926" stroke-width="0.72"/>
   </g>
  </g>
 </g>
 <g partID="854350981">
  <g transform="translate(7.9915,234.007)">
   <g  id="copper1">
    <circle fill="black"  r="5.66929" stroke="black" id="nonconn0" cx="7.26926" cy="7.26926" stroke-width="0.72"/>
   </g>
  </g>
 </g>
 <g partID="854350961">
  <g transform="translate(7.9915,7.23497)">
   <g  id="copper1">
    <circle fill="black"  r="5.66929" stroke="black" id="nonconn0" cx="7.26926" cy="7.26926" stroke-width="0.72"/>
   </g>
  </g>
 </g>
 <g partID="854350941">
  <g transform="translate(234.763,7.23497)">
   <g  id="copper1">
    <circle fill="black"  r="5.66929" stroke="black" id="nonconn0" cx="7.26926" cy="7.26926" stroke-width="0.72"/>
   </g>
  </g>
 </g>
 <g partID="854350911">
  <g transform="translate(234.763,234.007)">
   <g  id="copper1">
    <circle fill="black"  r="5.66929" stroke="black" id="nonconn0" cx="7.26926" cy="7.26926" stroke-width="0.72"/>
   </g>
  </g>
 </g>
 <g partID="854362131">
  <g transform="translate(24.394,135.266)">
   <g  id="copper1">
    <g  id="copper0">
     <circle fill="black"  r="2.088" stroke="black" id="connector0pin" cx="5.04" cy="5.04" stroke-width="2.16"/>
     <circle fill="black"  r="2.088" stroke="black" id="connector1pin" cx="5.04" cy="12.24" stroke-width="2.16"/>
     <circle fill="black"  r="2.088" stroke="black" id="connector2pin" cx="5.04" cy="19.44" stroke-width="2.16"/>
     <circle fill="black"  r="2.088" stroke="black" id="connector3pin" cx="5.04" cy="26.64" stroke-width="2.16"/>
    </g>
   </g>
  </g>
 </g>
</svg>
