<?xml version='1.0' encoding='UTF-8' standalone='no'?>
<!-- Created with Fritzing (http://www.fritzing.org/) -->
<svg xmlns="http://www.w3.org/2000/svg" width="4.31091in" height="3.92224in" version="1.2"  baseProfile="tiny" viewBox="0 0 310.385 282.402" x="0in" xmlns:svg="http://www.w3.org/2000/svg" y="0in">
 <g transform="matrix(-1, 0, 0, 1, 310.385, 0)">
  <g partID="20370">
   <g id="board" >
    <rect fill="none" width="309.81" height="281.826" fill-opacity="0.5" id="boardoutline"  x="0.288" stroke="black" y="0.288" stroke-width="0.5"/>
   </g>
  </g>
  <g partID="854310981">
   <g transform="translate(70.649,45.0351)">
    <g id="copper1" >
     <circle fill="none" id="connector0pin"  cx="3.01733" r="0.992124" cy="3.01733" stroke="black" stroke-width="0.850392"/>
    </g>
   </g>
  </g>
  <g partID="854322661">
   <g transform="translate(249.18,61.9486)">
    <g id="copper1" >
     <circle fill="none" id="connector0pin"  cx="3.01733" r="0.992124" cy="3.01733" stroke="black" stroke-width="0.850392"/>
    </g>
   </g>
  </g>
  <g partID="854148482">
   <g transform="translate(103.23,217.889)">
    <g id="copper1" >
     <g id="copper0" >
      <rect width="5.184" fill="none" height="5.184" id="rect20"  x="0.72" y="0.72" stroke="black" stroke-width="1.44"/>
      <circle fill="none" id="connector0pin"  cx="3.312" r="2.592" cy="3.312" stroke="black" stroke-width="1.44"/>
      <circle fill="none" id="connector1pin"  cx="24.912" r="2.592" cy="3.312" stroke="black" stroke-width="1.44"/>
     </g>
    </g>
   </g>
  </g>
  <g partID="854146862">
   <g transform="translate(52.83,217.889)">
    <g id="copper1" >
     <g id="copper0" >
      <rect width="5.184" fill="none" height="5.184" id="rect20"  x="0.72" y="0.72" stroke="black" stroke-width="1.44"/>
      <circle fill="none" id="connector0pin"  cx="3.312" r="2.592" cy="3.312" stroke="black" stroke-width="1.44"/>
      <circle fill="none" id="connector1pin"  cx="24.912" r="2.592" cy="3.312" stroke="black" stroke-width="1.44"/>
     </g>
    </g>
   </g>
  </g>
  <g partID="854149282">
   <g transform="translate(146.43,217.889)">
    <g id="copper1" >
     <g id="copper0" >
      <rect width="5.184" fill="none" height="5.184" id="rect20"  x="0.72" y="0.72" stroke="black" stroke-width="1.44"/>
      <circle fill="none" id="connector0pin"  cx="3.312" r="2.592" cy="3.312" stroke="black" stroke-width="1.44"/>
      <circle fill="none" id="connector1pin"  cx="24.912" r="2.592" cy="3.312" stroke="black" stroke-width="1.44"/>
     </g>
    </g>
   </g>
  </g>
  <g partID="854149312">
   <g transform="translate(183.677,217.606)">
    <g id="copper1" >
     <g id="copper0" >
      <rect width="5.184" fill="none" height="5.184" id="rect20"  x="0.72" y="0.72" stroke="black" stroke-width="1.44"/>
      <circle fill="none" id="connector0pin"  cx="3.312" r="2.592" cy="3.312" stroke="black" stroke-width="1.44"/>
      <circle fill="none" id="connector1pin"  cx="24.912" r="2.592" cy="3.312" stroke="black" stroke-width="1.44"/>
     </g>
    </g>
   </g>
  </g>
  <g partID="854120072">
   <g transform="translate(45.1223,82.1544)">
    <g transform="matrix(0,1,-1,0,0,0)">
     <g id="copper1" >
      <!-- <rect width="55" x="10" y="10" fill="none" height="55" stroke="rgb(255, 191, 0)" stroke-width="20" /> -->
      <circle fill="none" id="connector0pin"  cx="2.7" r="1.98" cy="2.7" stroke="black" stroke-width="1.44"/>
      <circle fill="none" id="connector1pin"  cx="24.3" r="1.98" cy="2.7" stroke="black" stroke-width="1.44"/>
     </g>
    </g>
   </g>
  </g>
  <g partID="854120252">
   <g transform="translate(45.5183,39.6347)">
    <g transform="matrix(0,1,-1,0,0,0)">
     <g id="copper1" >
      <!-- <rect width="55" x="10" y="15.5" fill="none" height="55" stroke="rgb(255, 191, 0)" stroke-width="20" />  -->
      <circle fill="none" id="connector0pin"  cx="2.7" r="1.98" cy="3.096" stroke="black" stroke-width="1.44"/>
      <circle fill="none" id="connector1pin"  cx="31.5" r="1.98" cy="3.096" stroke="black" stroke-width="1.44"/>
     </g>
    </g>
   </g>
  </g>
  <g partID="854165832">
   <g transform="translate(305.326,203.721)">
    <g transform="matrix(0,1,-1,0,0,0)">
     <g id="copper1" >
      <circle fill="none" id="connector0pad"  cx="10.2798" r="1.91905" connectorname="P$1" cy="69.1838" stroke="black" stroke-width="0.72"/>
      <circle fill="none" id="connector1pad"  cx="23.6877" r="1.91905" connectorname="P$2" cy="69.1838" stroke="black" stroke-width="0.72"/>
      <circle fill="none" id="connector2pad"  cx="36.9255" r="1.91905" connectorname="P$3" cy="69.1554" stroke="black" stroke-width="0.72"/>
      <g id="copper0" >
       <circle fill="none" id="connector0pad"  cx="10.2798" r="1.91905" connectorname="P$1" cy="69.1838" stroke="black" stroke-width="0.72"/>
       <circle fill="none" id="connector1pad"  cx="23.6877" r="1.91905" connectorname="P$2" cy="69.1838" stroke="black" stroke-width="0.72"/>
       <circle fill="none" id="connector2pad"  cx="36.9255" r="1.91905" connectorname="P$3" cy="69.1554" stroke="black" stroke-width="0.72"/>
      </g>
     </g>
    </g>
   </g>
  </g>
  <g partID="854165812">
   <g transform="translate(305.326,138.921)">
    <g transform="matrix(0,1,-1,0,0,0)">
     <g id="copper1" >
      <circle fill="none" id="connector0pad"  cx="10.2798" r="1.91905" connectorname="P$1" cy="69.1838" stroke="black" stroke-width="0.72"/>
      <circle fill="none" id="connector1pad"  cx="23.6877" r="1.91905" connectorname="P$2" cy="69.1838" stroke="black" stroke-width="0.72"/>
      <circle fill="none" id="connector2pad"  cx="36.9255" r="1.91905" connectorname="P$3" cy="69.1554" stroke="black" stroke-width="0.72"/>
      <g id="copper0" >
       <circle fill="none" id="connector0pad"  cx="10.2798" r="1.91905" connectorname="P$1" cy="69.1838" stroke="black" stroke-width="0.72"/>
       <circle fill="none" id="connector1pad"  cx="23.6877" r="1.91905" connectorname="P$2" cy="69.1838" stroke="black" stroke-width="0.72"/>
       <circle fill="none" id="connector2pad"  cx="36.9255" r="1.91905" connectorname="P$3" cy="69.1554" stroke="black" stroke-width="0.72"/>
      </g>
     </g>
    </g>
   </g>
  </g>
  <g partID="854121092">
   <g transform="translate(305.326,30.9213)">
    <g transform="matrix(0,1,-1,0,0,0)">
     <g id="copper1" >
      <circle fill="none" id="connector0pad"  cx="10.2798" r="1.91905" connectorname="P$1" cy="69.1838" stroke="black" stroke-width="0.72"/>
      <circle fill="none" id="connector1pad"  cx="23.6877" r="1.91905" connectorname="P$2" cy="69.1838" stroke="black" stroke-width="0.72"/>
      <circle fill="none" id="connector2pad"  cx="36.9255" r="1.91905" connectorname="P$3" cy="69.1554" stroke="black" stroke-width="0.72"/>
      <g id="copper0" >
       <circle fill="none" id="connector0pad"  cx="10.2798" r="1.91905" connectorname="P$1" cy="69.1838" stroke="black" stroke-width="0.72"/>
       <circle fill="none" id="connector1pad"  cx="23.6877" r="1.91905" connectorname="P$2" cy="69.1838" stroke="black" stroke-width="0.72"/>
       <circle fill="none" id="connector2pad"  cx="36.9255" r="1.91905" connectorname="P$3" cy="69.1554" stroke="black" stroke-width="0.72"/>
      </g>
     </g>
    </g>
   </g>
  </g>
  <g partID="854122402">
   <g transform="translate(305.326,88.521)">
    <g transform="matrix(0,1,-1,0,0,0)">
     <g id="copper1" >
      <circle fill="none" id="connector0pad"  cx="10.2798" r="1.91905" connectorname="P$1" cy="69.1838" stroke="black" stroke-width="0.72"/>
      <circle fill="none" id="connector1pad"  cx="23.6877" r="1.91905" connectorname="P$2" cy="69.1838" stroke="black" stroke-width="0.72"/>
      <circle fill="none" id="connector2pad"  cx="36.9255" r="1.91905" connectorname="P$3" cy="69.1554" stroke="black" stroke-width="0.72"/>
      <g id="copper0" >
       <circle fill="none" id="connector0pad"  cx="10.2798" r="1.91905" connectorname="P$1" cy="69.1838" stroke="black" stroke-width="0.72"/>
       <circle fill="none" id="connector1pad"  cx="23.6877" r="1.91905" connectorname="P$2" cy="69.1838" stroke="black" stroke-width="0.72"/>
       <circle fill="none" id="connector2pad"  cx="36.9255" r="1.91905" connectorname="P$3" cy="69.1554" stroke="black" stroke-width="0.72"/>
      </g>
     </g>
    </g>
   </g>
  </g>
  <g partID="854213832">
   <g transform="translate(182.646,216.701)">
    <g transform="matrix(0,-1,1,0,0,0)">
     <g id="copper1" >
      <!-- <rect width="55" x="10" y="15.5" fill="none" height="55" stroke="rgb(255, 191, 0)" stroke-width="20" />  -->
      <circle fill="none" id="connector0pin"  cx="2.7" r="1.98" cy="3.096" stroke="black" stroke-width="1.44"/>
      <circle fill="none" id="connector1pin"  cx="31.5" r="1.98" cy="3.096" stroke="black" stroke-width="1.44"/>
     </g>
    </g>
   </g>
  </g>
  <g partID="854213652">
   <g transform="translate(146.646,216.701)">
    <g transform="matrix(0,-1,1,0,0,0)">
     <g id="copper1" >
      <!-- <rect width="55" x="10" y="15.5" fill="none" height="55" stroke="rgb(255, 191, 0)" stroke-width="20" />  -->
      <circle fill="none" id="connector0pin"  cx="2.7" r="1.98" cy="3.096" stroke="black" stroke-width="1.44"/>
      <circle fill="none" id="connector1pin"  cx="31.5" r="1.98" cy="3.096" stroke="black" stroke-width="1.44"/>
     </g>
    </g>
   </g>
  </g>
  <g partID="854213472">
   <g transform="translate(103.446,216.701)">
    <g transform="matrix(0,-1,1,0,0,0)">
     <g id="copper1" >
      <!-- <rect width="55" x="10" y="15.5" fill="none" height="55" stroke="rgb(255, 191, 0)" stroke-width="20" />  -->
      <circle fill="none" id="connector0pin"  cx="2.7" r="1.98" cy="3.096" stroke="black" stroke-width="1.44"/>
      <circle fill="none" id="connector1pin"  cx="31.5" r="1.98" cy="3.096" stroke="black" stroke-width="1.44"/>
     </g>
    </g>
   </g>
  </g>
  <g partID="854213292">
   <g transform="translate(53.046,216.701)">
    <g transform="matrix(0,-1,1,0,0,0)">
     <g id="copper1" >
      <!-- <rect width="55" x="10" y="15.5" fill="none" height="55" stroke="rgb(255, 191, 0)" stroke-width="20" />  -->
      <circle fill="none" id="connector0pin"  cx="2.7" r="1.98" cy="3.096" stroke="black" stroke-width="1.44"/>
      <circle fill="none" id="connector1pin"  cx="31.5" r="1.98" cy="3.096" stroke="black" stroke-width="1.44"/>
     </g>
    </g>
   </g>
  </g>
  <g partID="854329952">
   <g transform="translate(164.987,65.3451)">
    <g id="copper1" >
     <g id="copper0" >
      <circle fill="none" id="connector0pin"  cx="5.04" r="2.13732" cy="5.04" stroke="black" stroke-width="1.44"/>
      <circle fill="none" id="connector1pin"  cx="5.04" r="2.13732" cy="12.24" stroke="black" stroke-width="1.44"/>
      <circle fill="none" id="connector2pin"  cx="5.04" r="2.13732" cy="19.44" stroke="black" stroke-width="1.44"/>
      <circle fill="none" id="connector3pin"  cx="5.04" r="2.13732" cy="26.64" stroke="black" stroke-width="1.44"/>
      <circle fill="none" id="connector4pin"  cx="5.04" r="2.13732" cy="33.84" stroke="black" stroke-width="1.44"/>
      <circle fill="none" id="connector5pin"  cx="5.04" r="2.13732" cy="41.04" stroke="black" stroke-width="1.44"/>
      <circle fill="none" id="connector6pin"  cx="5.04" r="2.13732" cy="48.24" stroke="black" stroke-width="1.44"/>
      <circle fill="none" id="connector7pin"  cx="5.04" r="2.13732" cy="55.44" stroke="black" stroke-width="1.44"/>
      <circle fill="none" id="connector8pin"  cx="5.04" r="2.13732" cy="62.64" stroke="black" stroke-width="1.44"/>
      <circle fill="none" id="connector9pin"  cx="5.04" r="2.13732" cy="69.84" stroke="black" stroke-width="1.44"/>
      <circle fill="none" id="connector10pin"  cx="5.04" r="2.13732" cy="77.04" stroke="black" stroke-width="1.44"/>
      <circle fill="none" id="connector11pin"  cx="5.04" r="2.13732" cy="84.24" stroke="black" stroke-width="1.44"/>
      <circle fill="none" id="connector12pin"  cx="5.04" r="2.13732" cy="91.44" stroke="black" stroke-width="1.44"/>
      <circle fill="none" id="connector13pin"  cx="5.04" r="2.13732" cy="98.64" stroke="black" stroke-width="1.44"/>
     </g>
    </g>
   </g>
  </g>
  <g partID="854330552">
   <g transform="translate(121.684,65.413)">
    <g id="copper1" >
     <g id="copper0" >
      <circle fill="none" id="connector0pin"  cx="5.04" r="2.13732" cy="5.04" stroke="black" stroke-width="1.44"/>
      <circle fill="none" id="connector1pin"  cx="5.04" r="2.13732" cy="12.24" stroke="black" stroke-width="1.44"/>
      <circle fill="none" id="connector2pin"  cx="5.04" r="2.13732" cy="19.44" stroke="black" stroke-width="1.44"/>
      <circle fill="none" id="connector3pin"  cx="5.04" r="2.13732" cy="26.64" stroke="black" stroke-width="1.44"/>
      <circle fill="none" id="connector4pin"  cx="5.04" r="2.13732" cy="33.84" stroke="black" stroke-width="1.44"/>
      <circle fill="none" id="connector5pin"  cx="5.04" r="2.13732" cy="41.04" stroke="black" stroke-width="1.44"/>
      <circle fill="none" id="connector6pin"  cx="5.04" r="2.13732" cy="48.24" stroke="black" stroke-width="1.44"/>
      <circle fill="none" id="connector7pin"  cx="5.04" r="2.13732" cy="55.44" stroke="black" stroke-width="1.44"/>
      <circle fill="none" id="connector8pin"  cx="5.04" r="2.13732" cy="62.64" stroke="black" stroke-width="1.44"/>
      <circle fill="none" id="connector9pin"  cx="5.04" r="2.13732" cy="69.84" stroke="black" stroke-width="1.44"/>
      <circle fill="none" id="connector10pin"  cx="5.04" r="2.13732" cy="77.04" stroke="black" stroke-width="1.44"/>
      <circle fill="none" id="connector11pin"  cx="5.04" r="2.13732" cy="84.24" stroke="black" stroke-width="1.44"/>
      <circle fill="none" id="connector12pin"  cx="5.04" r="2.13732" cy="91.44" stroke="black" stroke-width="1.44"/>
      <circle fill="none" id="connector13pin"  cx="5.04" r="2.13732" cy="98.64" stroke="black" stroke-width="1.44"/>
     </g>
    </g>
   </g>
  </g>
  <g partID="854336672">
   <g transform="translate(173.704,64.1125)">
    <g transform="matrix(0,1,-1,0,0,0)">
     <g id="copper1"  gorn="0.2">
      <g id="copper0"  gorn="0.2.0">
       <circle fill="none" id="connector19pin"  cx="99.9407" r="1.90799" cy="3.723" gorn="0.2.0.0" stroke="black" stroke-width="0.999997"/>
       <circle fill="none" id="connector20pin"  cx="92.7417" r="1.90799" cy="3.723" gorn="0.2.0.1" stroke="black" stroke-width="0.999997"/>
       <circle fill="none" id="connector21pin"  cx="85.5418" r="1.90799" cy="3.723" gorn="0.2.0.2" stroke="black" stroke-width="0.999997"/>
       <circle fill="none" id="connector22pin"  cx="78.3418" r="1.90799" cy="3.723" gorn="0.2.0.3" stroke="black" stroke-width="0.999997"/>
       <circle fill="none" id="connector23pin"  cx="71.1428" r="1.90799" cy="3.723" gorn="0.2.0.4" stroke="black" stroke-width="0.999997"/>
       <circle fill="none" id="connector24pin"  cx="63.9408" r="1.90799" cy="3.723" gorn="0.2.0.5" stroke="black" stroke-width="0.999997"/>
       <circle fill="none" id="connector25pin"  cx="56.7428" r="1.90799" cy="3.723" gorn="0.2.0.6" stroke="black" stroke-width="0.999997"/>
       <circle fill="none" id="connector26pin"  cx="49.5419" r="1.90799" cy="3.723" gorn="0.2.0.7" stroke="black" stroke-width="0.999997"/>
       <circle fill="none" id="connector27pin"  cx="42.3419" r="1.90799" cy="3.723" gorn="0.2.0.8" stroke="black" stroke-width="0.999997"/>
       <circle fill="none" id="connector28pin"  cx="35.1429" r="1.90799" cy="3.723" gorn="0.2.0.9" stroke="black" stroke-width="0.999997"/>
       <circle fill="none" id="connector29pin"  cx="27.9419" r="1.90799" cy="3.723" gorn="0.2.0.10" stroke="black" stroke-width="0.999997"/>
       <circle fill="none" id="connector30pin"  cx="20.7419" r="1.90799" cy="3.723" gorn="0.2.0.11" stroke="black" stroke-width="0.999997"/>
       <circle fill="none" id="connector31pin"  cx="13.542" r="1.90799" cy="3.723" gorn="0.2.0.12" stroke="black" stroke-width="0.999997"/>
       <circle fill="none" id="connector32pin"  cx="6.34198" r="1.90799" cy="3.723" gorn="0.2.0.13" stroke="black" stroke-width="0.999997"/>
       <circle fill="none" id="connector36pin"  cx="13.542" r="1.90799" cy="11.949" gorn="0.2.0.14" stroke="black" stroke-width="0.999997"/>
       <circle fill="none" id="connector33pin"  cx="35.1489" r="1.90799" cy="11.949" gorn="0.2.0.15" stroke="black" stroke-width="0.999997"/>
       <circle fill="none" id="connector35pin"  cx="27.9419" r="1.90799" cy="11.949" gorn="0.2.0.16" stroke="black" stroke-width="0.999997"/>
       <circle fill="none" id="connector13pin"  cx="99.9407" r="1.90799" cy="46.922" gorn="0.2.0.17" stroke="black" stroke-width="0.999997"/>
       <rect width="0" fill="none" height="0" id="connector13terminal"  gorn="0.2.0.18" x="0" y="0" stroke="none" stroke-width="0"/>
       <circle fill="none" id="connector12pin"  cx="92.7417" r="1.90799" cy="46.922" gorn="0.2.0.19" stroke="black" stroke-width="0.999997"/>
       <circle fill="none" id="connector11pin"  cx="85.5418" r="1.90799" cy="46.922" gorn="0.2.0.20" stroke="black" stroke-width="0.999997"/>
       <circle fill="none" id="connector10pin"  cx="78.3418" r="1.90799" cy="46.922" gorn="0.2.0.21" stroke="black" stroke-width="0.999997"/>
       <circle fill="none" id="connector9pin"  cx="71.1428" r="1.90799" cy="46.922" gorn="0.2.0.22" stroke="black" stroke-width="0.999997"/>
       <circle fill="none" id="connector8pin"  cx="63.9408" r="1.90799" cy="46.922" gorn="0.2.0.23" stroke="black" stroke-width="0.999997"/>
       <circle fill="none" id="connector7pin"  cx="56.7428" r="1.90799" cy="46.922" gorn="0.2.0.24" stroke="black" stroke-width="0.999997"/>
       <circle fill="none" id="connector6pin"  cx="49.5419" r="1.90799" cy="46.922" gorn="0.2.0.25" stroke="black" stroke-width="0.999997"/>
       <circle fill="none" id="connector5pin"  cx="42.3419" r="1.90799" cy="46.922" gorn="0.2.0.26" stroke="black" stroke-width="0.999997"/>
       <circle fill="none" id="connector4pin"  cx="35.1429" r="1.90799" cy="46.922" gorn="0.2.0.27" stroke="black" stroke-width="0.999997"/>
       <circle fill="none" id="connector3pin"  cx="27.9419" r="1.90799" cy="46.922" gorn="0.2.0.28" stroke="black" stroke-width="0.999997"/>
       <circle fill="none" id="connector2pin"  cx="20.7419" r="1.90799" cy="46.922" gorn="0.2.0.29" stroke="black" stroke-width="0.999997"/>
       <circle fill="none" id="connector1pin"  cx="13.542" r="1.90799" cy="46.922" gorn="0.2.0.30" stroke="black" stroke-width="0.999997"/>
       <circle fill="none" id="connector0pin"  cx="6.34198" r="1.90799" cy="46.922" gorn="0.2.0.31" stroke="black" stroke-width="0.999997"/>
       <circle fill="none" id="connector34pin"  cx="42.3489" r="1.90799" cy="11.95" gorn="0.2.0.32" stroke="black" stroke-width="0.999997"/>
       <circle fill="none" id="connector15pin"  cx="99.9427" r="1.90799" cy="32.523" gorn="0.2.0.33" stroke="black" stroke-width="0.999997"/>
       <circle fill="none" id="connector14pin"  cx="99.9407" r="1.90799" cy="39.723" gorn="0.2.0.34" stroke="black" stroke-width="0.999997"/>
       <circle fill="none" id="connector16pin"  cx="99.9427" r="1.90799" cy="25.323" gorn="0.2.0.35" stroke="black" stroke-width="0.999997"/>
       <circle fill="none" id="connector18pin"  cx="99.9407" r="1.90799" cy="10.923" gorn="0.2.0.36" stroke="black" stroke-width="0.999997"/>
       <circle fill="none" id="connector17pin"  cx="99.9427" r="1.90799" cy="18.122" gorn="0.2.0.37" stroke="black" stroke-width="0.999997"/>
      </g>
     </g>
    </g>
   </g>
  </g>
  <g partID="854290160">
   <line y1="185.201" y2="185.201" stroke-linecap="round" x1="108.202" x2="148.082" stroke="black" stroke-width="0.799999"/>
  </g>
  <g partID="854297220">
   <line y1="185.201" y2="185.201" stroke-linecap="round" x1="104.482" x2="58.202" stroke="black" stroke-width="1.728"/>
  </g>
  <g partID="854295830">
   <line y1="239.274" y2="222.472" stroke-linecap="round" x1="234.252" x2="210.762" stroke="black" stroke-width="1.728"/>
  </g>
  <g partID="854298550">
   <line y1="215.635" y2="218.682" stroke-linecap="round" x1="186.037" x2="186.586" stroke="black" stroke-width="0.799999"/>
  </g>
  <g partID="854298480">
   <line y1="216.061" y2="218.529" stroke-linecap="round" x1="56.142" x2="56.142" stroke="black" stroke-width="1.728"/>
  </g>
  <g partID="854298390">
   <line y1="216.061" y2="218.529" stroke-linecap="round" x1="106.542" x2="106.542" stroke="black" stroke-width="1.728"/>
  </g>
  <g partID="854297850">
   <line y1="185.201" y2="185.201" stroke-linecap="round" x1="151.402" x2="184.082" stroke="black" stroke-width="0.799999"/>
  </g>
  <g partID="854299130">
   <line y1="82.7944" y2="73.1947" stroke-linecap="round" x1="42.4223" x2="42.4223" stroke="black" stroke-width="1.728"/>
  </g>
  <g partID="854307850">
   <line y1="218.929" y2="215.661" stroke-linecap="round" x1="149.742" x2="149.742" stroke="black" stroke-width="0.799999"/>
  </g>
  <g partID="854310880">
   <line y1="49.0849" y2="47.02" stroke-linecap="round" x1="72.7705" x2="74.5621" stroke="black" stroke-width="1.728"/>
  </g>
  <g partID="854310820">
   <line y1="83.284" y2="49.0944" stroke-linecap="round" x1="43.7556" x2="72.7817" stroke="black" stroke-width="1.728"/>
  </g>
  <g partID="854322300">
   <line y1="43.1559" y2="63.8333" stroke-linecap="round" x1="237.463" x2="251.433" stroke="black" stroke-width="1.728"/>
  </g>
  <g partID="854321280">
   <line y1="150.572" y2="184.004" stroke-linecap="round" x1="234.223" x2="187.418" stroke="black" stroke-width="1.728"/>
  </g>
  <g partID="854321050">
   <line y1="212.979" y2="186.371" stroke-linecap="round" x1="234.353" x2="187.79" stroke="black" stroke-width="1.728"/>
  </g>
  <g partID="854339230">
   <line y1="42.3378" y2="42.464" stroke-linecap="round" x1="44.4823" x2="127.637" stroke="black" stroke-width="1.728"/>
  </g>
  <g partID="854339460">
   <line y1="42.464" y2="68.2475" stroke-linecap="round" x1="127.637" x2="126.85" stroke="black" stroke-width="1.728"/>
  </g>
  <g partID="854339690">
   <line y1="42.464" y2="41.2286" stroke-linecap="round" x1="127.637" x2="233.783" stroke="black" stroke-width="1.728"/>
  </g>
  <g partID="854339920">
   <line y1="84.7819" y2="84.7105" stroke-linecap="round" x1="172.244" x2="220.89" stroke="black" stroke-width="1.728"/>
  </g>
  <g partID="854344251">
   <g transform="translate(70.649,45.0351)">
    <g id="copper1" >
     <circle fill="none" id="connector0pin"  cx="3.01733" r="0.992124" cy="3.01733" stroke="black" stroke-width="0.850392"/>
    </g>
   </g>
  </g>
  <g partID="854344311">
   <g transform="translate(150.09,44.8581)">
    <g id="copper1" >
     <circle fill="none" id="connector0pin"  cx="3.01733" r="0.992124" cy="3.01733" stroke="black" stroke-width="0.850392"/>
    </g>
   </g>
  </g>
  <g partID="854350911">
   <g transform="translate(290.271,261.837)">
    <g id="copper1" >
     <circle fill="black" id="nonconn0"  cx="7.26926" r="5.66929" cy="7.26926" stroke="black" stroke-width="0"/>
    </g>
   </g>
  </g>
  <g partID="854350941">
   <g transform="translate(290.271,6.71896)">
    <g id="copper1" >
     <circle fill="black" id="nonconn0"  cx="7.26926" r="5.66929" cy="7.26926" stroke="black" stroke-width="0"/>
    </g>
   </g>
  </g>
  <g partID="854350961">
   <g transform="translate(6.80657,6.71896)">
    <g id="copper1" >
     <circle fill="black" id="nonconn0"  cx="7.26926" r="5.66929" cy="7.26926" stroke="black" stroke-width="0"/>
    </g>
   </g>
  </g>
  <g partID="854350981">
   <g transform="translate(6.80657,261.837)">
    <g id="copper1" >
     <circle fill="black" id="nonconn0"  cx="7.26926" r="5.66929" cy="7.26926" stroke="black" stroke-width="0"/>
    </g>
   </g>
  </g>
  <g partID="854352120">
   <g transform="translate(70.7976,258.626)">
    <g id="copper1" >
     <text fill="black" xml:space="preserve" id="label" text-anchor="middle"  xmlns:xml="http://www.w3.org/XML/1998/namespace" font-family="OCRA" x="36" y="6.48" font-size="7.2" stroke-width="0">KonkaSynth</text>
    </g>
   </g>
  </g>
  <g partID="854352891">
   <g transform="translate(162.712,6.71896)">
    <g id="copper1" >
     <circle fill="black" id="nonconn0"  cx="7.26926" r="5.66929" cy="7.26926" stroke="black" stroke-width="0"/>
    </g>
   </g>
  </g>
  <g partID="854352911">
   <g transform="translate(162.712,261.837)">
    <g id="copper1" >
     <circle fill="black" id="nonconn0"  cx="7.26926" r="5.66929" cy="7.26926" stroke="black" stroke-width="0"/>
    </g>
   </g>
  </g>
  <g partID="854338550">
   <line y1="49.2423" y2="113.201" stroke-linecap="round" x1="153.103" x2="152.9" stroke="black" stroke-width="1.728"/>
  </g>
  <g partID="854338540">
   <line y1="113.201" y2="113.535" stroke-linecap="round" x1="152.9" x2="167.81" stroke="black" stroke-width="1.728"/>
  </g>
  <g partID="854344580">
   <line y1="240.86" y2="240.687" stroke-linecap="round" x1="33.8782" x2="65.1255" stroke="black" stroke-width="1.728"/>
  </g>
  <g partID="854344810">
   <line y1="240.687" y2="223.444" stroke-linecap="round" x1="65.1255" x2="76.2898" stroke="black" stroke-width="1.728"/>
  </g>
  <g partID="854344700">
   <line y1="107.52" y2="240.86" stroke-linecap="round" x1="30.9775" x2="33.8782" stroke="black" stroke-width="1.728"/>
  </g>
  <g partID="854344590">
   <line y1="106.645" y2="107.52" stroke-linecap="round" x1="40.3712" x2="30.9775" stroke="black" stroke-width="1.728"/>
  </g>
  <g partID="854345990">
   <line y1="243.549" y2="223.016" stroke-linecap="round" x1="195.474" x2="173.302" stroke="black" stroke-width="1.728"/>
  </g>
  <g partID="854346000">
   <line y1="223.23" y2="243.549" stroke-linecap="round" x1="207.249" x2="195.474" stroke="black" stroke-width="1.728"/>
  </g>
  <g partID="854346170">
   <line y1="243.549" y2="223.138" stroke-linecap="round" x1="150.116" x2="169.502" stroke="black" stroke-width="1.728"/>
  </g>
  <g partID="854346180">
   <line y1="223.106" y2="243.549" stroke-linecap="round" x1="130.015" x2="150.116" stroke="black" stroke-width="1.728"/>
  </g>
  <g partID="854346350">
   <line y1="240.687" y2="222.911" stroke-linecap="round" x1="104.759" x2="126.089" stroke="black" stroke-width="1.728"/>
  </g>
  <g partID="854346360">
   <line y1="222.764" y2="240.687" stroke-linecap="round" x1="79.9091" x2="104.759" stroke="black" stroke-width="1.728"/>
  </g>
  <g partID="854346740">
   <line y1="93.3815" y2="123.655" stroke-linecap="round" x1="263.626" x2="237.705" stroke="black" stroke-width="1.728"/>
  </g>
  <g partID="854346750">
   <line y1="69.4534" y2="93.3815" stroke-linecap="round" x1="237.898" x2="263.626" stroke="black" stroke-width="1.728"/>
  </g>
  <g partID="854347200">
   <line y1="150.052" y2="127.113" stroke-linecap="round" x1="260.839" x2="237.841" stroke="black" stroke-width="1.728"/>
  </g>
  <g partID="854347210">
   <line y1="174.142" y2="150.052" stroke-linecap="round" x1="237.801" x2="260.839" stroke="black" stroke-width="1.728"/>
  </g>
  <g partID="854347340">
   <line y1="238.688" y2="203.936" stroke-linecap="round" x1="237.486" x2="260.839" stroke="black" stroke-width="1.728"/>
  </g>
  <g partID="854347450">
   <line y1="203.936" y2="177.619" stroke-linecap="round" x1="260.839" x2="237.727" stroke="black" stroke-width="1.728"/>
  </g>
  <g partID="854347770">
   <line y1="124.659" y2="100.543" stroke-linecap="round" x1="212.529" x2="234.551" stroke="black" stroke-width="1.728"/>
  </g>
  <g partID="854347560">
   <line y1="147.501" y2="124.659" stroke-linecap="round" x1="234.507" x2="212.529" stroke="black" stroke-width="1.728"/>
  </g>
  <g partID="854348350">
   <line y1="84.7105" y2="69.595" stroke-linecap="round" x1="220.89" x2="234.587" stroke="black" stroke-width="1.728"/>
  </g>
 </g>
</svg>
