<?xml version='1.0' encoding='UTF-8' standalone='no'?>
<!-- Created with Fritzing (http://www.fritzing.org/) -->
<svg xmlns="http://www.w3.org/2000/svg" width="4.31091in" height="3.92224in" version="1.2"  baseProfile="tiny" viewBox="0 0 310.385 282.402" x="0in" xmlns:svg="http://www.w3.org/2000/svg" y="0in">
 <g transform="matrix(-1, 0, 0, 1, 310.385, 0)">
  <g partID="20370">
   <g id="board" >
    <rect fill="none" width="309.81" height="281.826" fill-opacity="0.5" id="boardoutline"  x="0.288" stroke="black" y="0.288" stroke-width="0.5"/>
   </g>
  </g>
  <g partID="854330550">
   <g transform="translate(121.684,65.413)">
    <g id="copper0" >
     <circle fill="none" id="connector0pin"  cx="5.04" r="2.13732" cy="5.04" stroke="black" stroke-width="1.44"/>
     <circle fill="none" id="connector1pin"  cx="5.04" r="2.13732" cy="12.24" stroke="black" stroke-width="1.44"/>
     <circle fill="none" id="connector2pin"  cx="5.04" r="2.13732" cy="19.44" stroke="black" stroke-width="1.44"/>
     <circle fill="none" id="connector3pin"  cx="5.04" r="2.13732" cy="26.64" stroke="black" stroke-width="1.44"/>
     <circle fill="none" id="connector4pin"  cx="5.04" r="2.13732" cy="33.84" stroke="black" stroke-width="1.44"/>
     <circle fill="none" id="connector5pin"  cx="5.04" r="2.13732" cy="41.04" stroke="black" stroke-width="1.44"/>
     <circle fill="none" id="connector6pin"  cx="5.04" r="2.13732" cy="48.24" stroke="black" stroke-width="1.44"/>
     <circle fill="none" id="connector7pin"  cx="5.04" r="2.13732" cy="55.44" stroke="black" stroke-width="1.44"/>
     <circle fill="none" id="connector8pin"  cx="5.04" r="2.13732" cy="62.64" stroke="black" stroke-width="1.44"/>
     <circle fill="none" id="connector9pin"  cx="5.04" r="2.13732" cy="69.84" stroke="black" stroke-width="1.44"/>
     <circle fill="none" id="connector10pin"  cx="5.04" r="2.13732" cy="77.04" stroke="black" stroke-width="1.44"/>
     <circle fill="none" id="connector11pin"  cx="5.04" r="2.13732" cy="84.24" stroke="black" stroke-width="1.44"/>
     <circle fill="none" id="connector12pin"  cx="5.04" r="2.13732" cy="91.44" stroke="black" stroke-width="1.44"/>
     <circle fill="none" id="connector13pin"  cx="5.04" r="2.13732" cy="98.64" stroke="black" stroke-width="1.44"/>
    </g>
   </g>
  </g>
  <g partID="854329950">
   <g transform="translate(164.987,65.3451)">
    <g id="copper0" >
     <circle fill="none" id="connector0pin"  cx="5.04" r="2.13732" cy="5.04" stroke="black" stroke-width="1.44"/>
     <circle fill="none" id="connector1pin"  cx="5.04" r="2.13732" cy="12.24" stroke="black" stroke-width="1.44"/>
     <circle fill="none" id="connector2pin"  cx="5.04" r="2.13732" cy="19.44" stroke="black" stroke-width="1.44"/>
     <circle fill="none" id="connector3pin"  cx="5.04" r="2.13732" cy="26.64" stroke="black" stroke-width="1.44"/>
     <circle fill="none" id="connector4pin"  cx="5.04" r="2.13732" cy="33.84" stroke="black" stroke-width="1.44"/>
     <circle fill="none" id="connector5pin"  cx="5.04" r="2.13732" cy="41.04" stroke="black" stroke-width="1.44"/>
     <circle fill="none" id="connector6pin"  cx="5.04" r="2.13732" cy="48.24" stroke="black" stroke-width="1.44"/>
     <circle fill="none" id="connector7pin"  cx="5.04" r="2.13732" cy="55.44" stroke="black" stroke-width="1.44"/>
     <circle fill="none" id="connector8pin"  cx="5.04" r="2.13732" cy="62.64" stroke="black" stroke-width="1.44"/>
     <circle fill="none" id="connector9pin"  cx="5.04" r="2.13732" cy="69.84" stroke="black" stroke-width="1.44"/>
     <circle fill="none" id="connector10pin"  cx="5.04" r="2.13732" cy="77.04" stroke="black" stroke-width="1.44"/>
     <circle fill="none" id="connector11pin"  cx="5.04" r="2.13732" cy="84.24" stroke="black" stroke-width="1.44"/>
     <circle fill="none" id="connector12pin"  cx="5.04" r="2.13732" cy="91.44" stroke="black" stroke-width="1.44"/>
     <circle fill="none" id="connector13pin"  cx="5.04" r="2.13732" cy="98.64" stroke="black" stroke-width="1.44"/>
    </g>
   </g>
  </g>
  <g partID="854310980">
   <g transform="translate(70.649,45.0351)">
    <g id="copper0" >
     <circle fill="none" id="connector0pin"  cx="3.01733" r="0.992124" cy="3.01733" stroke="black" stroke-width="0.850392"/>
    </g>
   </g>
  </g>
  <g partID="854322660">
   <g transform="translate(249.18,61.9486)">
    <g id="copper0" >
     <circle fill="none" id="connector0pin"  cx="3.01733" r="0.992124" cy="3.01733" stroke="black" stroke-width="0.850392"/>
    </g>
   </g>
  </g>
  <g partID="854148480">
   <g transform="translate(103.23,217.889)">
    <g id="copper0" >
     <rect width="5.184" fill="none" height="5.184" id="rect20"  x="0.72" y="0.72" stroke="black" stroke-width="1.44"/>
     <circle fill="none" id="connector0pin"  cx="3.312" r="2.592" cy="3.312" stroke="black" stroke-width="1.44"/>
     <circle fill="none" id="connector1pin"  cx="24.912" r="2.592" cy="3.312" stroke="black" stroke-width="1.44"/>
    </g>
   </g>
  </g>
  <g partID="854146860">
   <g transform="translate(52.83,217.889)">
    <g id="copper0" >
     <rect width="5.184" fill="none" height="5.184" id="rect20"  x="0.72" y="0.72" stroke="black" stroke-width="1.44"/>
     <circle fill="none" id="connector0pin"  cx="3.312" r="2.592" cy="3.312" stroke="black" stroke-width="1.44"/>
     <circle fill="none" id="connector1pin"  cx="24.912" r="2.592" cy="3.312" stroke="black" stroke-width="1.44"/>
    </g>
   </g>
  </g>
  <g partID="854149280">
   <g transform="translate(146.43,217.889)">
    <g id="copper0" >
     <rect width="5.184" fill="none" height="5.184" id="rect20"  x="0.72" y="0.72" stroke="black" stroke-width="1.44"/>
     <circle fill="none" id="connector0pin"  cx="3.312" r="2.592" cy="3.312" stroke="black" stroke-width="1.44"/>
     <circle fill="none" id="connector1pin"  cx="24.912" r="2.592" cy="3.312" stroke="black" stroke-width="1.44"/>
    </g>
   </g>
  </g>
  <g partID="854149310">
   <g transform="translate(183.677,217.606)">
    <g id="copper0" >
     <rect width="5.184" fill="none" height="5.184" id="rect20"  x="0.72" y="0.72" stroke="black" stroke-width="1.44"/>
     <circle fill="none" id="connector0pin"  cx="3.312" r="2.592" cy="3.312" stroke="black" stroke-width="1.44"/>
     <circle fill="none" id="connector1pin"  cx="24.912" r="2.592" cy="3.312" stroke="black" stroke-width="1.44"/>
    </g>
   </g>
  </g>
  <g partID="854120070">
   <g transform="translate(45.1223,82.1544)">
    <g transform="matrix(0,1,-1,0,0,0)">
     <g id="copper0" >
      <g id="copper1" >
       <!-- <rect width="55" x="10" y="10" fill="none" height="55" stroke="rgb(255, 191, 0)" stroke-width="20" /> -->
       <circle fill="none" id="connector0pin"  cx="2.7" r="1.98" cy="2.7" stroke="black" stroke-width="1.44"/>
       <circle fill="none" id="connector1pin"  cx="24.3" r="1.98" cy="2.7" stroke="black" stroke-width="1.44"/>
      </g>
     </g>
    </g>
   </g>
  </g>
  <g partID="854120250">
   <g transform="translate(45.5183,39.6347)">
    <g transform="matrix(0,1,-1,0,0,0)">
     <g id="copper0" >
      <g id="copper1" >
       <!-- <rect width="55" x="10" y="15.5" fill="none" height="55" stroke="rgb(255, 191, 0)" stroke-width="20" />  -->
       <circle fill="none" id="connector0pin"  cx="2.7" r="1.98" cy="3.096" stroke="black" stroke-width="1.44"/>
       <circle fill="none" id="connector1pin"  cx="31.5" r="1.98" cy="3.096" stroke="black" stroke-width="1.44"/>
      </g>
     </g>
    </g>
   </g>
  </g>
  <g partID="854165830">
   <g transform="translate(305.326,203.721)">
    <g transform="matrix(0,1,-1,0,0,0)">
     <g id="copper0" >
      <circle fill="none" id="connector0pad"  cx="10.2798" r="1.91905" connectorname="P$1" cy="69.1838" stroke="black" stroke-width="0.72"/>
      <circle fill="none" id="connector1pad"  cx="23.6877" r="1.91905" connectorname="P$2" cy="69.1838" stroke="black" stroke-width="0.72"/>
      <circle fill="none" id="connector2pad"  cx="36.9255" r="1.91905" connectorname="P$3" cy="69.1554" stroke="black" stroke-width="0.72"/>
     </g>
    </g>
   </g>
  </g>
  <g partID="854165810">
   <g transform="translate(305.326,138.921)">
    <g transform="matrix(0,1,-1,0,0,0)">
     <g id="copper0" >
      <circle fill="none" id="connector0pad"  cx="10.2798" r="1.91905" connectorname="P$1" cy="69.1838" stroke="black" stroke-width="0.72"/>
      <circle fill="none" id="connector1pad"  cx="23.6877" r="1.91905" connectorname="P$2" cy="69.1838" stroke="black" stroke-width="0.72"/>
      <circle fill="none" id="connector2pad"  cx="36.9255" r="1.91905" connectorname="P$3" cy="69.1554" stroke="black" stroke-width="0.72"/>
     </g>
    </g>
   </g>
  </g>
  <g partID="854121090">
   <g transform="translate(305.326,30.9213)">
    <g transform="matrix(0,1,-1,0,0,0)">
     <g id="copper0" >
      <circle fill="none" id="connector0pad"  cx="10.2798" r="1.91905" connectorname="P$1" cy="69.1838" stroke="black" stroke-width="0.72"/>
      <circle fill="none" id="connector1pad"  cx="23.6877" r="1.91905" connectorname="P$2" cy="69.1838" stroke="black" stroke-width="0.72"/>
      <circle fill="none" id="connector2pad"  cx="36.9255" r="1.91905" connectorname="P$3" cy="69.1554" stroke="black" stroke-width="0.72"/>
     </g>
    </g>
   </g>
  </g>
  <g partID="854122400">
   <g transform="translate(305.326,88.521)">
    <g transform="matrix(0,1,-1,0,0,0)">
     <g id="copper0" >
      <circle fill="none" id="connector0pad"  cx="10.2798" r="1.91905" connectorname="P$1" cy="69.1838" stroke="black" stroke-width="0.72"/>
      <circle fill="none" id="connector1pad"  cx="23.6877" r="1.91905" connectorname="P$2" cy="69.1838" stroke="black" stroke-width="0.72"/>
      <circle fill="none" id="connector2pad"  cx="36.9255" r="1.91905" connectorname="P$3" cy="69.1554" stroke="black" stroke-width="0.72"/>
     </g>
    </g>
   </g>
  </g>
  <g partID="854213830">
   <g transform="translate(182.646,216.701)">
    <g transform="matrix(0,-1,1,0,0,0)">
     <g id="copper0" >
      <g id="copper1" >
       <!-- <rect width="55" x="10" y="15.5" fill="none" height="55" stroke="rgb(255, 191, 0)" stroke-width="20" />  -->
       <circle fill="none" id="connector0pin"  cx="2.7" r="1.98" cy="3.096" stroke="black" stroke-width="1.44"/>
       <circle fill="none" id="connector1pin"  cx="31.5" r="1.98" cy="3.096" stroke="black" stroke-width="1.44"/>
      </g>
     </g>
    </g>
   </g>
  </g>
  <g partID="854213650">
   <g transform="translate(146.646,216.701)">
    <g transform="matrix(0,-1,1,0,0,0)">
     <g id="copper0" >
      <g id="copper1" >
       <!-- <rect width="55" x="10" y="15.5" fill="none" height="55" stroke="rgb(255, 191, 0)" stroke-width="20" />  -->
       <circle fill="none" id="connector0pin"  cx="2.7" r="1.98" cy="3.096" stroke="black" stroke-width="1.44"/>
       <circle fill="none" id="connector1pin"  cx="31.5" r="1.98" cy="3.096" stroke="black" stroke-width="1.44"/>
      </g>
     </g>
    </g>
   </g>
  </g>
  <g partID="854213470">
   <g transform="translate(103.446,216.701)">
    <g transform="matrix(0,-1,1,0,0,0)">
     <g id="copper0" >
      <g id="copper1" >
       <!-- <rect width="55" x="10" y="15.5" fill="none" height="55" stroke="rgb(255, 191, 0)" stroke-width="20" />  -->
       <circle fill="none" id="connector0pin"  cx="2.7" r="1.98" cy="3.096" stroke="black" stroke-width="1.44"/>
       <circle fill="none" id="connector1pin"  cx="31.5" r="1.98" cy="3.096" stroke="black" stroke-width="1.44"/>
      </g>
     </g>
    </g>
   </g>
  </g>
  <g partID="854213290">
   <g transform="translate(53.046,216.701)">
    <g transform="matrix(0,-1,1,0,0,0)">
     <g id="copper0" >
      <g id="copper1" >
       <!-- <rect width="55" x="10" y="15.5" fill="none" height="55" stroke="rgb(255, 191, 0)" stroke-width="20" />  -->
       <circle fill="none" id="connector0pin"  cx="2.7" r="1.98" cy="3.096" stroke="black" stroke-width="1.44"/>
       <circle fill="none" id="connector1pin"  cx="31.5" r="1.98" cy="3.096" stroke="black" stroke-width="1.44"/>
      </g>
     </g>
    </g>
   </g>
  </g>
  <g partID="854336670">
   <g transform="translate(173.704,64.1125)">
    <g transform="matrix(0,1,-1,0,0,0)">
     <g id="copper0"  gorn="0.2.0">
      <circle fill="none" id="connector19pin"  cx="99.9407" r="1.90799" cy="3.723" gorn="0.2.0.0" stroke="black" stroke-width="0.999997"/>
      <circle fill="none" id="connector20pin"  cx="92.7417" r="1.90799" cy="3.723" gorn="0.2.0.1" stroke="black" stroke-width="0.999997"/>
      <circle fill="none" id="connector21pin"  cx="85.5418" r="1.90799" cy="3.723" gorn="0.2.0.2" stroke="black" stroke-width="0.999997"/>
      <circle fill="none" id="connector22pin"  cx="78.3418" r="1.90799" cy="3.723" gorn="0.2.0.3" stroke="black" stroke-width="0.999997"/>
      <circle fill="none" id="connector23pin"  cx="71.1428" r="1.90799" cy="3.723" gorn="0.2.0.4" stroke="black" stroke-width="0.999997"/>
      <circle fill="none" id="connector24pin"  cx="63.9408" r="1.90799" cy="3.723" gorn="0.2.0.5" stroke="black" stroke-width="0.999997"/>
      <circle fill="none" id="connector25pin"  cx="56.7428" r="1.90799" cy="3.723" gorn="0.2.0.6" stroke="black" stroke-width="0.999997"/>
      <circle fill="none" id="connector26pin"  cx="49.5419" r="1.90799" cy="3.723" gorn="0.2.0.7" stroke="black" stroke-width="0.999997"/>
      <circle fill="none" id="connector27pin"  cx="42.3419" r="1.90799" cy="3.723" gorn="0.2.0.8" stroke="black" stroke-width="0.999997"/>
      <circle fill="none" id="connector28pin"  cx="35.1429" r="1.90799" cy="3.723" gorn="0.2.0.9" stroke="black" stroke-width="0.999997"/>
      <circle fill="none" id="connector29pin"  cx="27.9419" r="1.90799" cy="3.723" gorn="0.2.0.10" stroke="black" stroke-width="0.999997"/>
      <circle fill="none" id="connector30pin"  cx="20.7419" r="1.90799" cy="3.723" gorn="0.2.0.11" stroke="black" stroke-width="0.999997"/>
      <circle fill="none" id="connector31pin"  cx="13.542" r="1.90799" cy="3.723" gorn="0.2.0.12" stroke="black" stroke-width="0.999997"/>
      <circle fill="none" id="connector32pin"  cx="6.34198" r="1.90799" cy="3.723" gorn="0.2.0.13" stroke="black" stroke-width="0.999997"/>
      <circle fill="none" id="connector36pin"  cx="13.542" r="1.90799" cy="11.949" gorn="0.2.0.14" stroke="black" stroke-width="0.999997"/>
      <circle fill="none" id="connector33pin"  cx="35.1489" r="1.90799" cy="11.949" gorn="0.2.0.15" stroke="black" stroke-width="0.999997"/>
      <circle fill="none" id="connector35pin"  cx="27.9419" r="1.90799" cy="11.949" gorn="0.2.0.16" stroke="black" stroke-width="0.999997"/>
      <circle fill="none" id="connector13pin"  cx="99.9407" r="1.90799" cy="46.922" gorn="0.2.0.17" stroke="black" stroke-width="0.999997"/>
      <g width="0" fill="none" height="0" id="connector13terminal"  gorn="0.2.0.18" x="0" y="0" stroke="none" stroke-width="0"/>
      <circle fill="none" id="connector12pin"  cx="92.7417" r="1.90799" cy="46.922" gorn="0.2.0.19" stroke="black" stroke-width="0.999997"/>
      <circle fill="none" id="connector11pin"  cx="85.5418" r="1.90799" cy="46.922" gorn="0.2.0.20" stroke="black" stroke-width="0.999997"/>
      <circle fill="none" id="connector10pin"  cx="78.3418" r="1.90799" cy="46.922" gorn="0.2.0.21" stroke="black" stroke-width="0.999997"/>
      <circle fill="none" id="connector9pin"  cx="71.1428" r="1.90799" cy="46.922" gorn="0.2.0.22" stroke="black" stroke-width="0.999997"/>
      <circle fill="none" id="connector8pin"  cx="63.9408" r="1.90799" cy="46.922" gorn="0.2.0.23" stroke="black" stroke-width="0.999997"/>
      <circle fill="none" id="connector7pin"  cx="56.7428" r="1.90799" cy="46.922" gorn="0.2.0.24" stroke="black" stroke-width="0.999997"/>
      <circle fill="none" id="connector6pin"  cx="49.5419" r="1.90799" cy="46.922" gorn="0.2.0.25" stroke="black" stroke-width="0.999997"/>
      <circle fill="none" id="connector5pin"  cx="42.3419" r="1.90799" cy="46.922" gorn="0.2.0.26" stroke="black" stroke-width="0.999997"/>
      <circle fill="none" id="connector4pin"  cx="35.1429" r="1.90799" cy="46.922" gorn="0.2.0.27" stroke="black" stroke-width="0.999997"/>
      <circle fill="none" id="connector3pin"  cx="27.9419" r="1.90799" cy="46.922" gorn="0.2.0.28" stroke="black" stroke-width="0.999997"/>
      <circle fill="none" id="connector2pin"  cx="20.7419" r="1.90799" cy="46.922" gorn="0.2.0.29" stroke="black" stroke-width="0.999997"/>
      <circle fill="none" id="connector1pin"  cx="13.542" r="1.90799" cy="46.922" gorn="0.2.0.30" stroke="black" stroke-width="0.999997"/>
      <circle fill="none" id="connector0pin"  cx="6.34198" r="1.90799" cy="46.922" gorn="0.2.0.31" stroke="black" stroke-width="0.999997"/>
      <circle fill="none" id="connector34pin"  cx="42.3489" r="1.90799" cy="11.95" gorn="0.2.0.32" stroke="black" stroke-width="0.999997"/>
      <circle fill="none" id="connector15pin"  cx="99.9427" r="1.90799" cy="32.523" gorn="0.2.0.33" stroke="black" stroke-width="0.999997"/>
      <circle fill="none" id="connector14pin"  cx="99.9407" r="1.90799" cy="39.723" gorn="0.2.0.34" stroke="black" stroke-width="0.999997"/>
      <circle fill="none" id="connector16pin"  cx="99.9427" r="1.90799" cy="25.323" gorn="0.2.0.35" stroke="black" stroke-width="0.999997"/>
      <circle fill="none" id="connector18pin"  cx="99.9407" r="1.90799" cy="10.923" gorn="0.2.0.36" stroke="black" stroke-width="0.999997"/>
      <circle fill="none" id="connector17pin"  cx="99.9427" r="1.90799" cy="18.122" gorn="0.2.0.37" stroke="black" stroke-width="0.999997"/>
     </g>
    </g>
   </g>
  </g>
  <g partID="854233190">
   <g transform="translate(44.5465,153.458)">
    <g transform="matrix(0,1,-1,0,0,0)">
     <g id="copper0" gorn="0.0">
      <metadata id="metadata3893">
       <rdf:RDF xmlns:rdf="http://www.w3.org/1999/02/22-rdf-syntax-ns#">
        <cc:Work rdf:about="" xmlns:rdf="http://www.w3.org/1999/02/22-rdf-syntax-ns#" xmlns:cc="http://creativecommons.org/ns#">
         <dc:format xmlns:dc="http://purl.org/dc/elements/1.1/">image/svg+xml</dc:format>
         <dc:type rdf:resource="http://purl.org/dc/dcmitype/StillImage" xmlns:rdf="http://www.w3.org/1999/02/22-rdf-syntax-ns#" xmlns:dc="http://purl.org/dc/elements/1.1/"/>
         <dc:title xmlns:dc="http://purl.org/dc/elements/1.1/"/>
        </cc:Work>
       </rdf:RDF>
      </metadata>
      <defs id="defs3891"/>
      <desc id="desc3862">Fritzing footprint SVG</desc>
      <g transform="matrix(0, 1, -1, 0, 28.0937, -23.75)">
       <g>
        <g id="g3909" gorn="0.0.3.0">
         <circle fill="none" id="connector4pad" cx="25.92" r="1.584" cy="25.92" d="m 27.504,25.92 c 0,0.874819 -0.709181,1.584 -1.584,1.584 -0.874819,0 -1.584,-0.709181 -1.584,-1.584 0,-0.874819 0.709181,-1.584 1.584,-1.584 0.874819,0 1.584,0.709181 1.584,1.584 z" gorn="0.0.3.0.0" stroke="black" stroke-width="1.152"/>
         <circle fill="none" id="connector5pad" cx="25.92" r="1.584" cy="18.72" d="m 27.504,18.719999 c 0,0.874819 -0.709181,1.584 -1.584,1.584 -0.874819,0 -1.584,-0.709181 -1.584,-1.584 0,-0.874819 0.709181,-1.584 1.584,-1.584 0.874819,0 1.584,0.709181 1.584,1.584 z" gorn="0.0.3.0.1" stroke="black" stroke-width="1.152"/>
         <circle fill="none" id="connector6pad" cx="25.92" r="1.584" cy="11.52" d="m 27.504,11.52 c 0,0.874819 -0.709181,1.584 -1.584,1.584 -0.874819,0 -1.584,-0.709181 -1.584,-1.584 0,-0.874819 0.709181,-1.5839995 1.584,-1.5839995 0.874819,0 1.584,0.7091805 1.584,1.5839995 z" gorn="0.0.3.0.2" stroke="black" stroke-width="1.152"/>
         <circle fill="none" id="connector7pad" cx="25.92" r="1.584" cy="4.32" d="m 27.504,4.3200002 c 0,0.874819 -0.709181,1.584 -1.584,1.584 -0.874819,0 -1.584,-0.709181 -1.584,-1.584 0,-0.8748191 0.709181,-1.584 1.584,-1.584 0.874819,0 1.584,0.7091809 1.584,1.584 z" gorn="0.0.3.0.3" stroke="black" stroke-width="1.152"/>
        </g>
       </g>
      </g>
      <g transform="matrix(1, 0, 0, 1, -2.45058, -33.6296)">
       <g>
        <g id="keepout" gorn="0.0.4.0"/>
       </g>
      </g>
      <g transform="matrix(1, 0, 0, 1, -2.45058, -33.6296)">
       <g>
        <g id="soldermask" gorn="0.0.5.0"/>
       </g>
      </g>
      <g transform="matrix(1, 0, 0, 1, -2.45058, -33.6296)">
       <g>
        <g id="outline" gorn="0.0.6.0"/>
       </g>
      </g>
      <rect fill="none" width="4" height="4" id="connector9" gorn="0.0.7" x="7.35071" y="0.176683"/>
      <rect fill="none" width="4" height="4" id="connector8" gorn="0.0.8" x="0.262525" y="0.124178"/>
      <rect fill="none" width="4" height="4" id="connector10" gorn="0.0.9" x="14.5964" y="0.124178"/>
      <rect fill="none" width="4" height="4" id="connector11" gorn="0.0.10" x="21.5796" y="0.124178"/>
     </g>
    </g>
   </g>
  </g>
  <g partID="854298340">
   <line y1="182.716" y2="179.642" stroke-linecap="round" x1="44.6623" x2="43.4498" stroke="black" stroke-width="1.728"/>
  </g>
  <g partID="854307290">
   <line y1="162.339" y2="162.228" stroke-linecap="round" x1="45.1302" x2="45.7864" stroke="black" stroke-width="1.728"/>
  </g>
  <g partID="854307330">
   <line y1="167.636" y2="169.126" stroke-linecap="round" x1="49.3004" x2="45.0638" stroke="black" stroke-width="1.728"/>
  </g>
  <g partID="854310650">
   <line y1="203.804" y2="178.526" stroke-linecap="round" x1="99.1432" x2="99.1432" stroke="black" stroke-width="1.728"/>
  </g>
  <g partID="854310930">
   <line y1="48.0494" y2="47.8785" stroke-linecap="round" x1="75.0332" x2="151.741" stroke="black" stroke-width="1.728"/>
  </g>
  <g partID="854312350">
   <line y1="191.272" y2="179.521" stroke-linecap="round" x1="121.198" x2="114.148" stroke="black" stroke-width="1.728"/>
  </g>
  <g partID="854312540">
   <line y1="182.244" y2="191.207" stroke-linecap="round" x1="156.579" x2="160.785" stroke="black" stroke-width="1.728"/>
  </g>
  <g partID="854322310">
   <line y1="66.2009" y2="96.6696" stroke-linecap="round" x1="251.612" x2="237.154" stroke="black" stroke-width="1.728"/>
  </g>
  <g partID="854340620">
   <line y1="56.5451" y2="68.1679" stroke-linecap="round" x1="169.926" x2="170.011" stroke="black" stroke-width="1.728"/>
  </g>
  <g partID="854338000">
   <line y1="56.5451" y2="56.5451" stroke-linecap="round" x1="96.2207" x2="169.926" stroke="black" stroke-width="1.728"/>
  </g>
  <g partID="854338010">
   <line y1="153.259" y2="56.5451" stroke-linecap="round" x1="43.7574" x2="96.2207" stroke="black" stroke-width="1.728"/>
  </g>
  <g partID="854340240">
   <line y1="106.454" y2="107.627" stroke-linecap="round" x1="172.243" x2="209.742" stroke="black" stroke-width="1.728"/>
  </g>
  <g partID="854340340">
   <line y1="135.266" y2="135.807" stroke-linecap="round" x1="172.243" x2="187.136" stroke="black" stroke-width="1.728"/>
  </g>
  <g partID="854340440">
   <line y1="142.476" y2="144.478" stroke-linecap="round" x1="172.242" x2="220.89" stroke="black" stroke-width="1.728"/>
  </g>
  <g partID="854340540">
   <line y1="225.746" y2="206.723" stroke-linecap="round" x1="234.468" x2="215.316" stroke="black" stroke-width="1.728"/>
  </g>
  <g partID="854338090">
   <line y1="160.794" y2="77.3272" stroke-linecap="round" x1="47.7798" x2="92.521" stroke="black" stroke-width="1.728"/>
  </g>
  <g partID="854338080">
   <line y1="77.3272" y2="77.6319" stroke-linecap="round" x1="92.521" x2="124.507" stroke="black" stroke-width="1.728"/>
  </g>
  <g partID="854338170">
   <line y1="165.981" y2="84.9061" stroke-linecap="round" x1="51.2426" x2="95.2999" stroke="black" stroke-width="1.728"/>
  </g>
  <g partID="854338160">
   <line y1="84.9061" y2="84.8568" stroke-linecap="round" x1="95.2999" x2="124.507" stroke="black" stroke-width="1.728"/>
  </g>
  <g partID="854338250">
   <line y1="209.485" y2="91.4745" stroke-linecap="round" x1="93.4627" x2="97.0683" stroke="black" stroke-width="1.728"/>
  </g>
  <g partID="854338240">
   <line y1="91.4745" y2="92.0098" stroke-linecap="round" x1="97.0683" x2="124.507" stroke="black" stroke-width="1.728"/>
  </g>
  <g partID="854338350">
   <line y1="178.526" y2="99.0535" stroke-linecap="round" x1="99.1432" x2="101.616" stroke="black" stroke-width="1.728"/>
  </g>
  <g partID="854338340">
   <line y1="99.0535" y2="99.2354" stroke-linecap="round" x1="101.616" x2="124.507" stroke="black" stroke-width="1.728"/>
  </g>
  <g partID="854338440">
   <line y1="107.52" y2="178.349" stroke-linecap="round" x1="113.344" x2="113.444" stroke="black" stroke-width="1.728"/>
  </g>
  <g partID="854338450">
   <line y1="106.629" y2="107.52" stroke-linecap="round" x1="124.514" x2="113.344" stroke="black" stroke-width="1.728"/>
  </g>
  <g partID="854312280">
   <line y1="212.985" y2="192.444" stroke-linecap="round" x1="148.429" x2="121.901" stroke="black" stroke-width="0.799999"/>
  </g>
  <g partID="854310440">
   <line y1="212.334" y2="203.804" stroke-linecap="round" x1="105.332" x2="99.1432" stroke="black" stroke-width="1.728"/>
  </g>
  <g partID="854309960">
   <line y1="214.001" y2="209.485" stroke-linecap="round" x1="56.142" x2="93.4627" stroke="black" stroke-width="1.728"/>
  </g>
  <g partID="854264560">
   <line y1="216.061" y2="214.001" stroke-linecap="round" x1="56.1462" x2="56.142" stroke="black" stroke-width="1.728"/>
  </g>
  <g partID="854298330">
   <line y1="184.974" y2="184.137" stroke-linecap="round" x1="54.0945" x2="46.5225" stroke="black" stroke-width="1.728"/>
  </g>
  <g partID="854344250">
   <g transform="translate(70.649,45.0351)">
    <g id="copper0" >
     <circle fill="none" id="connector0pin"  cx="3.01733" r="0.992124" cy="3.01733" stroke="black" stroke-width="0.850392"/>
    </g>
   </g>
  </g>
  <g partID="854344310">
   <g transform="translate(150.09,44.8581)">
    <g id="copper0" >
     <circle fill="none" id="connector0pin"  cx="3.01733" r="0.992124" cy="3.01733" stroke="black" stroke-width="0.850392"/>
    </g>
   </g>
  </g>
  <g partID="854350910">
   <g transform="translate(290.271,261.837)">
    <g id="copper0" >
     <circle fill="black" id="nonconn0"  cx="7.26926" r="5.66929" cy="7.26926" stroke="black" stroke-width="0"/>
    </g>
   </g>
  </g>
  <g partID="854352890">
   <g transform="translate(162.712,6.71896)">
    <g id="copper0" >
     <circle fill="black" id="nonconn0"  cx="7.26926" r="5.66929" cy="7.26926" stroke="black" stroke-width="0"/>
    </g>
   </g>
  </g>
  <g partID="854350980">
   <g transform="translate(6.80657,261.837)">
    <g id="copper0" >
     <circle fill="black" id="nonconn0"  cx="7.26926" r="5.66929" cy="7.26926" stroke="black" stroke-width="0"/>
    </g>
   </g>
  </g>
  <g partID="854352910">
   <g transform="translate(162.712,261.837)">
    <g id="copper0" >
     <circle fill="black" id="nonconn0"  cx="7.26926" r="5.66929" cy="7.26926" stroke="black" stroke-width="0"/>
    </g>
   </g>
  </g>
  <g partID="854350960">
   <g transform="translate(6.80657,6.71896)">
    <g id="copper0" >
     <circle fill="black" id="nonconn0"  cx="7.26926" r="5.66929" cy="7.26926" stroke="black" stroke-width="0"/>
    </g>
   </g>
  </g>
  <g partID="854350940">
   <g transform="translate(290.271,6.71896)">
    <g id="copper0" >
     <circle fill="black" id="nonconn0"  cx="7.26926" r="5.66929" cy="7.26926" stroke="black" stroke-width="0"/>
    </g>
   </g>
  </g>
  <g partID="854340150">
   <line y1="179.669" y2="113.201" stroke-linecap="round" x1="155.714" x2="141.598" stroke="black" stroke-width="1.728"/>
  </g>
  <g partID="854340140">
   <line y1="113.201" y2="113.586" stroke-linecap="round" x1="141.598" x2="128.94" stroke="black" stroke-width="1.728"/>
  </g>
  <g partID="854308170">
   <line y1="192.444" y2="212.901" stroke-linecap="round" x1="161.366" x2="184.499" stroke="black" stroke-width="0.799999"/>
  </g>
  <g partID="854312750">
   <line y1="191.714" y2="192.444" stroke-linecap="round" x1="162" x2="161.366" stroke="black" stroke-width="0.799999"/>
  </g>
  <g partID="854347980">
   <line y1="107.627" y2="53.7428" stroke-linecap="round" x1="209.742" x2="209.742" stroke="black" stroke-width="1.728"/>
  </g>
  <g partID="854348180">
   <line y1="53.7428" y2="54.5317" stroke-linecap="round" x1="209.742" x2="233.784" stroke="black" stroke-width="1.728"/>
  </g>
  <g partID="854348030">
   <line y1="113.201" y2="112.256" stroke-linecap="round" x1="187.136" x2="233.784" stroke="black" stroke-width="1.728"/>
  </g>
  <g partID="854348080">
   <line y1="144.478" y2="160.803" stroke-linecap="round" x1="220.89" x2="234.624" stroke="black" stroke-width="1.728"/>
  </g>
  <g partID="854348130">
   <line y1="135.807" y2="113.201" stroke-linecap="round" x1="187.136" x2="187.136" stroke="black" stroke-width="1.728"/>
  </g>
  <g partID="854348230">
   <line y1="150.052" y2="149.608" stroke-linecap="round" x1="215.316" x2="172.244" stroke="black" stroke-width="1.728"/>
  </g>
  <g partID="854348300">
   <line y1="206.723" y2="150.052" stroke-linecap="round" x1="215.316" x2="215.316" stroke="black" stroke-width="1.728"/>
  </g>
 </g>
</svg>
