<?xml version='1.0' encoding='UTF-8' standalone='no'?>
<!-- Created with Fritzing (http://www.fritzing.org/) -->
<svg xmlns="http://www.w3.org/2000/svg"  viewBox="0 0 255.851 256.603" xmlns:svg="http://www.w3.org/2000/svg" baseProfile="tiny" x="0in" y="0in" height="3.56393in" version="1.2" width="3.55349in">
 <g transform="matrix(-1, 0, 0, 1, 255.851, 0)">
  <g partID="20370">
   <g  id="board">
    <rect fill="none" fill-opacity="0.5"  stroke="black" id="boardoutline" x="0.288" y="0.288" height="256.027" width="255.275" stroke-width="0.5"/>
   </g>
  </g>
  <g partID="854330551">
   <g transform="translate(108.696,51.7558)">
    <g  id="copper1">
     <g  id="copper0">
      <circle fill="none"  r="2.13732" stroke="black" id="connector0pin" cx="5.04" cy="5.04" stroke-width="1.44"/>
      <circle fill="none"  r="2.13732" stroke="black" id="connector1pin" cx="5.04" cy="12.24" stroke-width="1.44"/>
      <circle fill="none"  r="2.13732" stroke="black" id="connector2pin" cx="5.04" cy="19.44" stroke-width="1.44"/>
      <circle fill="none"  r="2.13732" stroke="black" id="connector3pin" cx="5.04" cy="26.64" stroke-width="1.44"/>
      <circle fill="none"  r="2.13732" stroke="black" id="connector4pin" cx="5.04" cy="33.84" stroke-width="1.44"/>
      <circle fill="none"  r="2.13732" stroke="black" id="connector5pin" cx="5.04" cy="41.04" stroke-width="1.44"/>
      <circle fill="none"  r="2.13732" stroke="black" id="connector6pin" cx="5.04" cy="48.24" stroke-width="1.44"/>
      <circle fill="none"  r="2.13732" stroke="black" id="connector7pin" cx="5.04" cy="55.44" stroke-width="1.44"/>
      <circle fill="none"  r="2.13732" stroke="black" id="connector8pin" cx="5.04" cy="62.64" stroke-width="1.44"/>
      <circle fill="none"  r="2.13732" stroke="black" id="connector9pin" cx="5.04" cy="69.84" stroke-width="1.44"/>
      <circle fill="none"  r="2.13732" stroke="black" id="connector10pin" cx="5.04" cy="77.04" stroke-width="1.44"/>
      <circle fill="none"  r="2.13732" stroke="black" id="connector11pin" cx="5.04" cy="84.24" stroke-width="1.44"/>
      <circle fill="none"  r="2.13732" stroke="black" id="connector12pin" cx="5.04" cy="91.44" stroke-width="1.44"/>
      <circle fill="none"  r="2.13732" stroke="black" id="connector13pin" cx="5.04" cy="98.64" stroke-width="1.44"/>
     </g>
    </g>
   </g>
  </g>
  <g partID="854329951">
   <g transform="translate(151.999,51.6879)">
    <g  id="copper1">
     <g  id="copper0">
      <circle fill="none"  r="2.13732" stroke="black" id="connector0pin" cx="5.04" cy="5.04" stroke-width="1.44"/>
      <circle fill="none"  r="2.13732" stroke="black" id="connector1pin" cx="5.04" cy="12.24" stroke-width="1.44"/>
      <circle fill="none"  r="2.13732" stroke="black" id="connector2pin" cx="5.04" cy="19.44" stroke-width="1.44"/>
      <circle fill="none"  r="2.13732" stroke="black" id="connector3pin" cx="5.04" cy="26.64" stroke-width="1.44"/>
      <circle fill="none"  r="2.13732" stroke="black" id="connector4pin" cx="5.04" cy="33.84" stroke-width="1.44"/>
      <circle fill="none"  r="2.13732" stroke="black" id="connector5pin" cx="5.04" cy="41.04" stroke-width="1.44"/>
      <circle fill="none"  r="2.13732" stroke="black" id="connector6pin" cx="5.04" cy="48.24" stroke-width="1.44"/>
      <circle fill="none"  r="2.13732" stroke="black" id="connector7pin" cx="5.04" cy="55.44" stroke-width="1.44"/>
      <circle fill="none"  r="2.13732" stroke="black" id="connector8pin" cx="5.04" cy="62.64" stroke-width="1.44"/>
      <circle fill="none"  r="2.13732" stroke="black" id="connector9pin" cx="5.04" cy="69.84" stroke-width="1.44"/>
      <circle fill="none"  r="2.13732" stroke="black" id="connector10pin" cx="5.04" cy="77.04" stroke-width="1.44"/>
      <circle fill="none"  r="2.13732" stroke="black" id="connector11pin" cx="5.04" cy="84.24" stroke-width="1.44"/>
      <circle fill="none"  r="2.13732" stroke="black" id="connector12pin" cx="5.04" cy="91.44" stroke-width="1.44"/>
      <circle fill="none"  r="2.13732" stroke="black" id="connector13pin" cx="5.04" cy="98.64" stroke-width="1.44"/>
     </g>
    </g>
   </g>
  </g>
  <g partID="854310981">
   <g transform="translate(57.6607,31.3779)">
    <g  id="copper1">
     <circle fill="none"  r="0.992124" stroke="black" id="connector0pin" cx="3.01733" cy="3.01733" stroke-width="0.850392"/>
    </g>
   </g>
  </g>
  <g partID="854322661">
   <g transform="translate(236.192,48.2914)">
    <g  id="copper1">
     <circle fill="none"  r="0.992124" stroke="black" id="connector0pin" cx="3.01733" cy="3.01733" stroke-width="0.850392"/>
    </g>
   </g>
  </g>
  <g partID="854148481">
   <g transform="translate(90.2417,204.232)">
    <g  id="copper1">
     <g  id="copper0">
      <rect fill="none"  stroke="black" id="rect20" x="0.72" y="0.72" height="5.184" width="5.184" stroke-width="1.44"/>
      <circle fill="none"  r="2.592" stroke="black" id="connector0pin" cx="3.312" cy="3.312" stroke-width="1.44"/>
      <circle fill="none"  r="2.592" stroke="black" id="connector1pin" cx="24.912" cy="3.312" stroke-width="1.44"/>
     </g>
    </g>
   </g>
  </g>
  <g partID="854146861">
   <g transform="translate(39.8417,204.232)">
    <g  id="copper1">
     <g  id="copper0">
      <rect fill="none"  stroke="black" id="rect20" x="0.72" y="0.72" height="5.184" width="5.184" stroke-width="1.44"/>
      <circle fill="none"  r="2.592" stroke="black" id="connector0pin" cx="3.312" cy="3.312" stroke-width="1.44"/>
      <circle fill="none"  r="2.592" stroke="black" id="connector1pin" cx="24.912" cy="3.312" stroke-width="1.44"/>
     </g>
    </g>
   </g>
  </g>
  <g partID="854149281">
   <g transform="translate(133.442,204.232)">
    <g  id="copper1">
     <g  id="copper0">
      <rect fill="none"  stroke="black" id="rect20" x="0.72" y="0.72" height="5.184" width="5.184" stroke-width="1.44"/>
      <circle fill="none"  r="2.592" stroke="black" id="connector0pin" cx="3.312" cy="3.312" stroke-width="1.44"/>
      <circle fill="none"  r="2.592" stroke="black" id="connector1pin" cx="24.912" cy="3.312" stroke-width="1.44"/>
     </g>
    </g>
   </g>
  </g>
  <g partID="854149311">
   <g transform="translate(170.689,203.948)">
    <g  id="copper1">
     <g  id="copper0">
      <rect fill="none"  stroke="black" id="rect20" x="0.72" y="0.72" height="5.184" width="5.184" stroke-width="1.44"/>
      <circle fill="none"  r="2.592" stroke="black" id="connector0pin" cx="3.312" cy="3.312" stroke-width="1.44"/>
      <circle fill="none"  r="2.592" stroke="black" id="connector1pin" cx="24.912" cy="3.312" stroke-width="1.44"/>
     </g>
    </g>
   </g>
  </g>
  <g partID="854120071">
   <g transform="translate(32.134,68.4972)">
    <g transform="matrix(0,1,-1,0,0,0)">
     <g  id="copper1">
      <!-- <rect width="55" x="10" y="10" fill="none" height="55" stroke="rgb(255, 191, 0)" stroke-width="20" /> -->
      <circle fill="none"  r="1.98" stroke="black" id="connector0pin" cx="2.7" cy="2.7" stroke-width="1.44"/>
      <circle fill="none"  r="1.98" stroke="black" id="connector1pin" cx="24.3" cy="2.7" stroke-width="1.44"/>
     </g>
    </g>
   </g>
  </g>
  <g partID="854120251">
   <g transform="translate(32.53,25.9775)">
    <g transform="matrix(0,1,-1,0,0,0)">
     <g  id="copper1">
      <!-- <rect width="55" x="10" y="15.5" fill="none" height="55" stroke="rgb(255, 191, 0)" stroke-width="20" />  -->
      <circle fill="none"  r="1.98" stroke="black" id="connector0pin" cx="2.7" cy="3.096" stroke-width="1.44"/>
      <circle fill="none"  r="1.98" stroke="black" id="connector1pin" cx="31.5" cy="3.096" stroke-width="1.44"/>
     </g>
    </g>
   </g>
  </g>
  <g partID="854165831">
   <g transform="translate(292.338,190.064)">
    <g transform="matrix(0,1,-1,0,0,0)">
     <g  id="copper1">
      <circle fill="none"  r="1.91905" stroke="black" id="connector0pad" cx="10.2798" cy="69.1838" connectorname="P$1" stroke-width="0.72"/>
      <circle fill="none"  r="1.91905" stroke="black" id="connector1pad" cx="23.6877" cy="69.1838" connectorname="P$2" stroke-width="0.72"/>
      <circle fill="none"  r="1.91905" stroke="black" id="connector2pad" cx="36.9255" cy="69.1554" connectorname="P$3" stroke-width="0.72"/>
      <g  id="copper0">
       <circle fill="none"  r="1.91905" stroke="black" id="connector0pad" cx="10.2798" cy="69.1838" connectorname="P$1" stroke-width="0.72"/>
       <circle fill="none"  r="1.91905" stroke="black" id="connector1pad" cx="23.6877" cy="69.1838" connectorname="P$2" stroke-width="0.72"/>
       <circle fill="none"  r="1.91905" stroke="black" id="connector2pad" cx="36.9255" cy="69.1554" connectorname="P$3" stroke-width="0.72"/>
      </g>
     </g>
    </g>
   </g>
  </g>
  <g partID="854165811">
   <g transform="translate(292.338,125.264)">
    <g transform="matrix(0,1,-1,0,0,0)">
     <g  id="copper1">
      <circle fill="none"  r="1.91905" stroke="black" id="connector0pad" cx="10.2798" cy="69.1838" connectorname="P$1" stroke-width="0.72"/>
      <circle fill="none"  r="1.91905" stroke="black" id="connector1pad" cx="23.6877" cy="69.1838" connectorname="P$2" stroke-width="0.72"/>
      <circle fill="none"  r="1.91905" stroke="black" id="connector2pad" cx="36.9255" cy="69.1554" connectorname="P$3" stroke-width="0.72"/>
      <g  id="copper0">
       <circle fill="none"  r="1.91905" stroke="black" id="connector0pad" cx="10.2798" cy="69.1838" connectorname="P$1" stroke-width="0.72"/>
       <circle fill="none"  r="1.91905" stroke="black" id="connector1pad" cx="23.6877" cy="69.1838" connectorname="P$2" stroke-width="0.72"/>
       <circle fill="none"  r="1.91905" stroke="black" id="connector2pad" cx="36.9255" cy="69.1554" connectorname="P$3" stroke-width="0.72"/>
      </g>
     </g>
    </g>
   </g>
  </g>
  <g partID="854121091">
   <g transform="translate(292.338,17.2641)">
    <g transform="matrix(0,1,-1,0,0,0)">
     <g  id="copper1">
      <circle fill="none"  r="1.91905" stroke="black" id="connector0pad" cx="10.2798" cy="69.1838" connectorname="P$1" stroke-width="0.72"/>
      <circle fill="none"  r="1.91905" stroke="black" id="connector1pad" cx="23.6877" cy="69.1838" connectorname="P$2" stroke-width="0.72"/>
      <circle fill="none"  r="1.91905" stroke="black" id="connector2pad" cx="36.9255" cy="69.1554" connectorname="P$3" stroke-width="0.72"/>
      <g  id="copper0">
       <circle fill="none"  r="1.91905" stroke="black" id="connector0pad" cx="10.2798" cy="69.1838" connectorname="P$1" stroke-width="0.72"/>
       <circle fill="none"  r="1.91905" stroke="black" id="connector1pad" cx="23.6877" cy="69.1838" connectorname="P$2" stroke-width="0.72"/>
       <circle fill="none"  r="1.91905" stroke="black" id="connector2pad" cx="36.9255" cy="69.1554" connectorname="P$3" stroke-width="0.72"/>
      </g>
     </g>
    </g>
   </g>
  </g>
  <g partID="854122401">
   <g transform="translate(292.338,74.8638)">
    <g transform="matrix(0,1,-1,0,0,0)">
     <g  id="copper1">
      <circle fill="none"  r="1.91905" stroke="black" id="connector0pad" cx="10.2798" cy="69.1838" connectorname="P$1" stroke-width="0.72"/>
      <circle fill="none"  r="1.91905" stroke="black" id="connector1pad" cx="23.6877" cy="69.1838" connectorname="P$2" stroke-width="0.72"/>
      <circle fill="none"  r="1.91905" stroke="black" id="connector2pad" cx="36.9255" cy="69.1554" connectorname="P$3" stroke-width="0.72"/>
      <g  id="copper0">
       <circle fill="none"  r="1.91905" stroke="black" id="connector0pad" cx="10.2798" cy="69.1838" connectorname="P$1" stroke-width="0.72"/>
       <circle fill="none"  r="1.91905" stroke="black" id="connector1pad" cx="23.6877" cy="69.1838" connectorname="P$2" stroke-width="0.72"/>
       <circle fill="none"  r="1.91905" stroke="black" id="connector2pad" cx="36.9255" cy="69.1554" connectorname="P$3" stroke-width="0.72"/>
      </g>
     </g>
    </g>
   </g>
  </g>
  <g partID="854213831">
   <g transform="translate(169.658,203.044)">
    <g transform="matrix(0,-1,1,0,0,0)">
     <g  id="copper1">
      <!-- <rect width="55" x="10" y="15.5" fill="none" height="55" stroke="rgb(255, 191, 0)" stroke-width="20" />  -->
      <circle fill="none"  r="1.98" stroke="black" id="connector0pin" cx="2.7" cy="3.096" stroke-width="1.44"/>
      <circle fill="none"  r="1.98" stroke="black" id="connector1pin" cx="31.5" cy="3.096" stroke-width="1.44"/>
     </g>
    </g>
   </g>
  </g>
  <g partID="854213651">
   <g transform="translate(133.658,203.044)">
    <g transform="matrix(0,-1,1,0,0,0)">
     <g  id="copper1">
      <!-- <rect width="55" x="10" y="15.5" fill="none" height="55" stroke="rgb(255, 191, 0)" stroke-width="20" />  -->
      <circle fill="none"  r="1.98" stroke="black" id="connector0pin" cx="2.7" cy="3.096" stroke-width="1.44"/>
      <circle fill="none"  r="1.98" stroke="black" id="connector1pin" cx="31.5" cy="3.096" stroke-width="1.44"/>
     </g>
    </g>
   </g>
  </g>
  <g partID="854213471">
   <g transform="translate(90.4577,203.044)">
    <g transform="matrix(0,-1,1,0,0,0)">
     <g  id="copper1">
      <!-- <rect width="55" x="10" y="15.5" fill="none" height="55" stroke="rgb(255, 191, 0)" stroke-width="20" />  -->
      <circle fill="none"  r="1.98" stroke="black" id="connector0pin" cx="2.7" cy="3.096" stroke-width="1.44"/>
      <circle fill="none"  r="1.98" stroke="black" id="connector1pin" cx="31.5" cy="3.096" stroke-width="1.44"/>
     </g>
    </g>
   </g>
  </g>
  <g partID="854213291">
   <g transform="translate(40.0577,203.044)">
    <g transform="matrix(0,-1,1,0,0,0)">
     <g  id="copper1">
      <!-- <rect width="55" x="10" y="15.5" fill="none" height="55" stroke="rgb(255, 191, 0)" stroke-width="20" />  -->
      <circle fill="none"  r="1.98" stroke="black" id="connector0pin" cx="2.7" cy="3.096" stroke-width="1.44"/>
      <circle fill="none"  r="1.98" stroke="black" id="connector1pin" cx="31.5" cy="3.096" stroke-width="1.44"/>
     </g>
    </g>
   </g>
  </g>
  <g partID="854344251">
   <g transform="translate(57.6607,31.3778)">
    <g  id="copper1">
     <circle fill="none"  r="0.992124" stroke="black" id="connector0pin" cx="3.01733" cy="3.01733" stroke-width="0.850392"/>
    </g>
   </g>
  </g>
  <g partID="854344311">
   <g transform="translate(137.102,31.2008)">
    <g  id="copper1">
     <circle fill="none"  r="0.992124" stroke="black" id="connector0pin" cx="3.01733" cy="3.01733" stroke-width="0.850392"/>
    </g>
   </g>
  </g>
  <g partID="854352911">
   <g transform="translate(121.377,234.007)">
    <g  id="copper1">
     <circle fill="black"  r="5.66929" stroke="black" id="nonconn0" cx="7.26926" cy="7.26926" stroke-width="0"/>
    </g>
   </g>
  </g>
  <g partID="854352891">
   <g transform="translate(121.377,7.23497)">
    <g  id="copper1">
     <circle fill="black"  r="5.66929" stroke="black" id="nonconn0" cx="7.26926" cy="7.26926" stroke-width="0"/>
    </g>
   </g>
  </g>
  <g partID="854350981">
   <g transform="translate(7.9915,234.007)">
    <g  id="copper1">
     <circle fill="black"  r="5.66929" stroke="black" id="nonconn0" cx="7.26926" cy="7.26926" stroke-width="0"/>
    </g>
   </g>
  </g>
  <g partID="854350961">
   <g transform="translate(7.9915,7.23497)">
    <g  id="copper1">
     <circle fill="black"  r="5.66929" stroke="black" id="nonconn0" cx="7.26926" cy="7.26926" stroke-width="0"/>
    </g>
   </g>
  </g>
  <g partID="854350941">
   <g transform="translate(234.763,7.23497)">
    <g  id="copper1">
     <circle fill="black"  r="5.66929" stroke="black" id="nonconn0" cx="7.26926" cy="7.26926" stroke-width="0"/>
    </g>
   </g>
  </g>
  <g partID="854350911">
   <g transform="translate(234.763,234.007)">
    <g  id="copper1">
     <circle fill="black"  r="5.66929" stroke="black" id="nonconn0" cx="7.26926" cy="7.26926" stroke-width="0"/>
    </g>
   </g>
  </g>
  <g partID="854352120">
   <g transform="translate(28.8979,234.013)">
    <g  id="copper1">
     <text fill="black"  text-anchor="middle" font-size="7.2" id="label" x="36" xml:space="preserve" y="6.48" font-family="OCRA" xmlns:xml="http://www.w3.org/XML/1998/namespace" stroke-width="0">KonkaSynth</text>
    </g>
   </g>
  </g>
  <g partID="854362131">
   <g transform="translate(24.394,135.266)">
    <g  id="copper1">
     <g  id="copper0">
      <circle fill="none"  r="2.088" stroke="black" id="connector0pin" cx="5.04" cy="5.04" stroke-width="1.44"/>
      <circle fill="none"  r="2.088" stroke="black" id="connector1pin" cx="5.04" cy="12.24" stroke-width="1.44"/>
      <circle fill="none"  r="2.088" stroke="black" id="connector2pin" cx="5.04" cy="19.44" stroke-width="1.44"/>
      <circle fill="none"  r="2.088" stroke="black" id="connector3pin" cx="5.04" cy="26.64" stroke-width="1.44"/>
     </g>
    </g>
   </g>
  </g>
  <g partID="854290160">
   <line stroke="black" stroke-linecap="round" y1="171.544" y2="171.544" x1="95.2137" stroke-width="0.799999" x2="135.094"/>
  </g>
  <g partID="854297220">
   <line stroke="black" stroke-linecap="round" y1="171.544" y2="171.544" x1="45.2137" stroke-width="1.728" x2="91.4937"/>
  </g>
  <g partID="854295830">
   <line stroke="black" stroke-linecap="round" y1="208.815" y2="225.617" x1="197.774" stroke-width="1.728" x2="221.264"/>
  </g>
  <g partID="854298550">
   <line stroke="black" stroke-linecap="round" y1="205.024" y2="201.977" x1="173.598" stroke-width="0.799999" x2="173.048"/>
  </g>
  <g partID="854298480">
   <line stroke="black" stroke-linecap="round" y1="203.016" y2="205.484" x1="43.1537" stroke-width="1.728" x2="43.1537"/>
  </g>
  <g partID="854298390">
   <line stroke="black" stroke-linecap="round" y1="203.016" y2="205.484" x1="93.5537" stroke-width="1.728" x2="93.5537"/>
  </g>
  <g partID="854297850">
   <line stroke="black" stroke-linecap="round" y1="171.544" y2="171.544" x1="138.414" stroke-width="0.799999" x2="171.094"/>
  </g>
  <g partID="854299130">
   <line stroke="black" stroke-linecap="round" y1="69.1372" y2="59.5375" x1="29.434" stroke-width="1.728" x2="29.434"/>
  </g>
  <g partID="854307850">
   <line stroke="black" stroke-linecap="round" y1="202.004" y2="205.272" x1="136.754" stroke-width="0.799999" x2="136.754"/>
  </g>
  <g partID="854310880">
   <line stroke="black" stroke-linecap="round" y1="35.4276" y2="33.3627" x1="59.7822" stroke-width="1.728" x2="61.5738"/>
  </g>
  <g partID="854310820">
   <line stroke="black" stroke-linecap="round" y1="70.1551" y2="35.9655" x1="30.3187" stroke-width="1.728" x2="59.3448"/>
  </g>
  <g partID="854322300">
   <line stroke="black" stroke-linecap="round" y1="50.1761" y2="29.4987" x1="238.444" stroke-width="1.728" x2="224.475"/>
  </g>
  <g partID="854321280">
   <line stroke="black" stroke-linecap="round" y1="136.741" y2="170.172" x1="221.477" stroke-width="1.728" x2="174.673"/>
  </g>
  <g partID="854321050">
   <line stroke="black" stroke-linecap="round" y1="199.173" y2="172.566" x1="221.106" stroke-width="1.728" x2="174.542"/>
  </g>
  <g partID="854338550">
   <line stroke="black" stroke-linecap="round" y1="34.2182" y2="98.1767" x1="140.119" stroke-width="1.728" x2="139.916"/>
  </g>
  <g partID="854338540">
   <line stroke="black" stroke-linecap="round" y1="99.5934" y2="99.9279" x1="142.128" stroke-width="1.728" x2="157.038"/>
  </g>
  <g partID="854347770">
   <line stroke="black" stroke-linecap="round" y1="109.26" y2="85.1436" x1="201.132" stroke-width="1.728" x2="223.154"/>
  </g>
  <g partID="854347560">
   <line stroke="black" stroke-linecap="round" y1="135.544" y2="112.702" x1="223.154" stroke-width="1.728" x2="201.176"/>
  </g>
  <g partID="854347450">
   <line stroke="black" stroke-linecap="round" y1="159.858" y2="162.189" x1="223.544" stroke-width="1.728" x2="223.182"/>
  </g>
  <g partID="854365250">
   <line stroke="black" stroke-linecap="round" y1="157.973" y2="212.888" x1="236.477" stroke-width="1.728" x2="236.457"/>
  </g>
  <g partID="854365590">
   <line stroke="black" stroke-linecap="round" y1="212.888" y2="225.272" x1="236.457" stroke-width="1.728" x2="224.799"/>
  </g>
  <g partID="854347340">
   <line stroke="black" stroke-linecap="round" y1="162.189" y2="157.973" x1="223.182" stroke-width="1.728" x2="236.477"/>
  </g>
  <g partID="854356250">
   <line stroke="black" stroke-linecap="round" y1="28.7569" y2="54.5793" x1="114.494" stroke-width="1.728" x2="113.796"/>
  </g>
  <g partID="854356260">
   <line stroke="black" stroke-linecap="round" y1="28.6794" y2="28.7569" x1="31.494" stroke-width="1.728" x2="114.494"/>
  </g>
  <g partID="854356590">
   <line stroke="black" stroke-linecap="round" y1="28.7569" y2="27.5703" x1="114.494" stroke-width="1.728" x2="220.795"/>
  </g>
  <g partID="854364070">
   <line stroke="black" stroke-linecap="round" y1="170.36" y2="163.152" x1="41.4681" stroke-width="1.728" x2="31.2081"/>
  </g>
  <g partID="854366000">
   <line stroke="black" stroke-linecap="round" y1="157.973" y2="114.056" x1="236.477" stroke-width="1.728" x2="223.835"/>
  </g>
  <g partID="854366300">
   <line stroke="black" stroke-linecap="round" y1="71.2517" y2="56.0504" x1="236.477" stroke-width="1.728" x2="224.632"/>
  </g>
  <g partID="854366170">
   <line stroke="black" stroke-linecap="round" y1="157.973" y2="71.2517" x1="236.477" stroke-width="1.728" x2="236.477"/>
  </g>
  <g partID="854366730">
   <line stroke="black" stroke-linecap="round" y1="68.3455" y2="54.7778" x1="168.197" stroke-width="1.728" x2="220.898"/>
  </g>
  <g partID="854366740">
   <line stroke="black" stroke-linecap="round" y1="70.5914" y2="68.3455" x1="159.19" stroke-width="1.728" x2="168.197"/>
  </g>
  <g partID="854367620">
   <line stroke="black" stroke-linecap="round" y1="221.393" y2="226.781" x1="159.956" stroke-width="1.728" x2="220.832"/>
  </g>
  <g partID="854367450">
   <line stroke="black" stroke-linecap="round" y1="210.198" y2="221.393" x1="158.661" stroke-width="1.728" x2="159.956"/>
  </g>
  <g partID="854367940">
   <line stroke="black" stroke-linecap="round" y1="221.981" y2="210.194" x1="116.985" stroke-width="1.728" x2="115.49"/>
  </g>
  <g partID="854367790">
   <line stroke="black" stroke-linecap="round" y1="221.393" y2="221.981" x1="159.956" stroke-width="1.728" x2="116.985"/>
  </g>
  <g partID="854368130">
   <line stroke="black" stroke-linecap="round" y1="221.981" y2="219.333" x1="116.985" stroke-width="1.728" x2="61.3581"/>
  </g>
  <g partID="854368260">
   <line stroke="black" stroke-linecap="round" y1="219.333" y2="210.111" x1="61.3581" stroke-width="1.728" x2="64.0142"/>
  </g>
  <g partID="854368610">
   <line stroke="black" stroke-linecap="round" y1="218.56" y2="184.51" x1="35.0397" stroke-width="1.728" x2="18.1738"/>
  </g>
  <g partID="854368390">
   <line stroke="black" stroke-linecap="round" y1="219.333" y2="218.56" x1="61.3581" stroke-width="1.728" x2="35.0397"/>
  </g>
  <g partID="854368500">
   <line stroke="black" stroke-linecap="round" y1="93.9515" y2="93.0058" x1="18.0928" stroke-width="1.728" x2="27.3846"/>
  </g>
  <g partID="854368720">
   <line stroke="black" stroke-linecap="round" y1="184.51" y2="93.9515" x1="18.1738" stroke-width="1.728" x2="18.0928"/>
  </g>
 </g>
</svg>
