<?xml version='1.0' encoding='UTF-8' standalone='no'?>
<!-- Created with Fritzing (http://www.fritzing.org/) -->
<svg xmlns="http://www.w3.org/2000/svg"  viewBox="0 0 255.851 256.603" xmlns:svg="http://www.w3.org/2000/svg" baseProfile="tiny" x="0in" y="0in" height="3.56393in" version="1.2" width="3.55349in">
 <g partID="20370">
  <g  id="board">
   <rect fill="none" fill-opacity="0.5"  stroke="black" id="boardoutline" x="0.288" y="0.288" height="256.027" width="255.275" stroke-width="0.5"/>
  </g>
 </g>
 <g partID="854330550">
  <g transform="translate(108.696,51.7558)">
   <g  id="copper0">
    <circle fill="none"  r="2.13732" stroke="black" id="connector0pin" cx="5.04" cy="5.04" stroke-width="1.44"/>
    <circle fill="none"  r="2.13732" stroke="black" id="connector1pin" cx="5.04" cy="12.24" stroke-width="1.44"/>
    <circle fill="none"  r="2.13732" stroke="black" id="connector2pin" cx="5.04" cy="19.44" stroke-width="1.44"/>
    <circle fill="none"  r="2.13732" stroke="black" id="connector3pin" cx="5.04" cy="26.64" stroke-width="1.44"/>
    <circle fill="none"  r="2.13732" stroke="black" id="connector4pin" cx="5.04" cy="33.84" stroke-width="1.44"/>
    <circle fill="none"  r="2.13732" stroke="black" id="connector5pin" cx="5.04" cy="41.04" stroke-width="1.44"/>
    <circle fill="none"  r="2.13732" stroke="black" id="connector6pin" cx="5.04" cy="48.24" stroke-width="1.44"/>
    <circle fill="none"  r="2.13732" stroke="black" id="connector7pin" cx="5.04" cy="55.44" stroke-width="1.44"/>
    <circle fill="none"  r="2.13732" stroke="black" id="connector8pin" cx="5.04" cy="62.64" stroke-width="1.44"/>
    <circle fill="none"  r="2.13732" stroke="black" id="connector9pin" cx="5.04" cy="69.84" stroke-width="1.44"/>
    <circle fill="none"  r="2.13732" stroke="black" id="connector10pin" cx="5.04" cy="77.04" stroke-width="1.44"/>
    <circle fill="none"  r="2.13732" stroke="black" id="connector11pin" cx="5.04" cy="84.24" stroke-width="1.44"/>
    <circle fill="none"  r="2.13732" stroke="black" id="connector12pin" cx="5.04" cy="91.44" stroke-width="1.44"/>
    <circle fill="none"  r="2.13732" stroke="black" id="connector13pin" cx="5.04" cy="98.64" stroke-width="1.44"/>
   </g>
  </g>
 </g>
 <g partID="854329950">
  <g transform="translate(151.999,51.6879)">
   <g  id="copper0">
    <circle fill="none"  r="2.13732" stroke="black" id="connector0pin" cx="5.04" cy="5.04" stroke-width="1.44"/>
    <circle fill="none"  r="2.13732" stroke="black" id="connector1pin" cx="5.04" cy="12.24" stroke-width="1.44"/>
    <circle fill="none"  r="2.13732" stroke="black" id="connector2pin" cx="5.04" cy="19.44" stroke-width="1.44"/>
    <circle fill="none"  r="2.13732" stroke="black" id="connector3pin" cx="5.04" cy="26.64" stroke-width="1.44"/>
    <circle fill="none"  r="2.13732" stroke="black" id="connector4pin" cx="5.04" cy="33.84" stroke-width="1.44"/>
    <circle fill="none"  r="2.13732" stroke="black" id="connector5pin" cx="5.04" cy="41.04" stroke-width="1.44"/>
    <circle fill="none"  r="2.13732" stroke="black" id="connector6pin" cx="5.04" cy="48.24" stroke-width="1.44"/>
    <circle fill="none"  r="2.13732" stroke="black" id="connector7pin" cx="5.04" cy="55.44" stroke-width="1.44"/>
    <circle fill="none"  r="2.13732" stroke="black" id="connector8pin" cx="5.04" cy="62.64" stroke-width="1.44"/>
    <circle fill="none"  r="2.13732" stroke="black" id="connector9pin" cx="5.04" cy="69.84" stroke-width="1.44"/>
    <circle fill="none"  r="2.13732" stroke="black" id="connector10pin" cx="5.04" cy="77.04" stroke-width="1.44"/>
    <circle fill="none"  r="2.13732" stroke="black" id="connector11pin" cx="5.04" cy="84.24" stroke-width="1.44"/>
    <circle fill="none"  r="2.13732" stroke="black" id="connector12pin" cx="5.04" cy="91.44" stroke-width="1.44"/>
    <circle fill="none"  r="2.13732" stroke="black" id="connector13pin" cx="5.04" cy="98.64" stroke-width="1.44"/>
   </g>
  </g>
 </g>
 <g partID="854310980">
  <g transform="translate(57.6607,31.3779)">
   <g  id="copper0">
    <circle fill="none"  r="0.992124" stroke="black" id="connector0pin" cx="3.01733" cy="3.01733" stroke-width="0.850392"/>
   </g>
  </g>
 </g>
 <g partID="854322660">
  <g transform="translate(236.192,48.2914)">
   <g  id="copper0">
    <circle fill="none"  r="0.992124" stroke="black" id="connector0pin" cx="3.01733" cy="3.01733" stroke-width="0.850392"/>
   </g>
  </g>
 </g>
 <g partID="854148480">
  <g transform="translate(90.2417,204.232)">
   <g  id="copper0">
    <rect fill="none"  stroke="black" id="rect20" x="0.72" y="0.72" height="5.184" width="5.184" stroke-width="1.44"/>
    <circle fill="none"  r="2.592" stroke="black" id="connector0pin" cx="3.312" cy="3.312" stroke-width="1.44"/>
    <circle fill="none"  r="2.592" stroke="black" id="connector1pin" cx="24.912" cy="3.312" stroke-width="1.44"/>
   </g>
  </g>
 </g>
 <g partID="854146860">
  <g transform="translate(39.8417,204.232)">
   <g  id="copper0">
    <rect fill="none"  stroke="black" id="rect20" x="0.72" y="0.72" height="5.184" width="5.184" stroke-width="1.44"/>
    <circle fill="none"  r="2.592" stroke="black" id="connector0pin" cx="3.312" cy="3.312" stroke-width="1.44"/>
    <circle fill="none"  r="2.592" stroke="black" id="connector1pin" cx="24.912" cy="3.312" stroke-width="1.44"/>
   </g>
  </g>
 </g>
 <g partID="854149280">
  <g transform="translate(133.442,204.232)">
   <g  id="copper0">
    <rect fill="none"  stroke="black" id="rect20" x="0.72" y="0.72" height="5.184" width="5.184" stroke-width="1.44"/>
    <circle fill="none"  r="2.592" stroke="black" id="connector0pin" cx="3.312" cy="3.312" stroke-width="1.44"/>
    <circle fill="none"  r="2.592" stroke="black" id="connector1pin" cx="24.912" cy="3.312" stroke-width="1.44"/>
   </g>
  </g>
 </g>
 <g partID="854149310">
  <g transform="translate(170.689,203.948)">
   <g  id="copper0">
    <rect fill="none"  stroke="black" id="rect20" x="0.72" y="0.72" height="5.184" width="5.184" stroke-width="1.44"/>
    <circle fill="none"  r="2.592" stroke="black" id="connector0pin" cx="3.312" cy="3.312" stroke-width="1.44"/>
    <circle fill="none"  r="2.592" stroke="black" id="connector1pin" cx="24.912" cy="3.312" stroke-width="1.44"/>
   </g>
  </g>
 </g>
 <g partID="854120070">
  <g transform="translate(32.134,68.4972)">
   <g transform="matrix(0,1,-1,0,0,0)">
    <g  id="copper0">
     <g  id="copper1">
      <!-- <rect width="55" x="10" y="10" fill="none" height="55" stroke="rgb(255, 191, 0)" stroke-width="20" /> -->
      <circle fill="none"  r="1.98" stroke="black" id="connector0pin" cx="2.7" cy="2.7" stroke-width="1.44"/>
      <circle fill="none"  r="1.98" stroke="black" id="connector1pin" cx="24.3" cy="2.7" stroke-width="1.44"/>
     </g>
    </g>
   </g>
  </g>
 </g>
 <g partID="854120250">
  <g transform="translate(32.53,25.9775)">
   <g transform="matrix(0,1,-1,0,0,0)">
    <g  id="copper0">
     <g  id="copper1">
      <!-- <rect width="55" x="10" y="15.5" fill="none" height="55" stroke="rgb(255, 191, 0)" stroke-width="20" />  -->
      <circle fill="none"  r="1.98" stroke="black" id="connector0pin" cx="2.7" cy="3.096" stroke-width="1.44"/>
      <circle fill="none"  r="1.98" stroke="black" id="connector1pin" cx="31.5" cy="3.096" stroke-width="1.44"/>
     </g>
    </g>
   </g>
  </g>
 </g>
 <g partID="854165830">
  <g transform="translate(292.338,190.064)">
   <g transform="matrix(0,1,-1,0,0,0)">
    <g  id="copper0">
     <circle fill="none"  r="1.91905" stroke="black" id="connector0pad" cx="10.2798" cy="69.1838" connectorname="P$1" stroke-width="0.72"/>
     <circle fill="none"  r="1.91905" stroke="black" id="connector1pad" cx="23.6877" cy="69.1838" connectorname="P$2" stroke-width="0.72"/>
     <circle fill="none"  r="1.91905" stroke="black" id="connector2pad" cx="36.9255" cy="69.1554" connectorname="P$3" stroke-width="0.72"/>
    </g>
   </g>
  </g>
 </g>
 <g partID="854165810">
  <g transform="translate(292.338,125.264)">
   <g transform="matrix(0,1,-1,0,0,0)">
    <g  id="copper0">
     <circle fill="none"  r="1.91905" stroke="black" id="connector0pad" cx="10.2798" cy="69.1838" connectorname="P$1" stroke-width="0.72"/>
     <circle fill="none"  r="1.91905" stroke="black" id="connector1pad" cx="23.6877" cy="69.1838" connectorname="P$2" stroke-width="0.72"/>
     <circle fill="none"  r="1.91905" stroke="black" id="connector2pad" cx="36.9255" cy="69.1554" connectorname="P$3" stroke-width="0.72"/>
    </g>
   </g>
  </g>
 </g>
 <g partID="854121090">
  <g transform="translate(292.338,17.2641)">
   <g transform="matrix(0,1,-1,0,0,0)">
    <g  id="copper0">
     <circle fill="none"  r="1.91905" stroke="black" id="connector0pad" cx="10.2798" cy="69.1838" connectorname="P$1" stroke-width="0.72"/>
     <circle fill="none"  r="1.91905" stroke="black" id="connector1pad" cx="23.6877" cy="69.1838" connectorname="P$2" stroke-width="0.72"/>
     <circle fill="none"  r="1.91905" stroke="black" id="connector2pad" cx="36.9255" cy="69.1554" connectorname="P$3" stroke-width="0.72"/>
    </g>
   </g>
  </g>
 </g>
 <g partID="854122400">
  <g transform="translate(292.338,74.8638)">
   <g transform="matrix(0,1,-1,0,0,0)">
    <g  id="copper0">
     <circle fill="none"  r="1.91905" stroke="black" id="connector0pad" cx="10.2798" cy="69.1838" connectorname="P$1" stroke-width="0.72"/>
     <circle fill="none"  r="1.91905" stroke="black" id="connector1pad" cx="23.6877" cy="69.1838" connectorname="P$2" stroke-width="0.72"/>
     <circle fill="none"  r="1.91905" stroke="black" id="connector2pad" cx="36.9255" cy="69.1554" connectorname="P$3" stroke-width="0.72"/>
    </g>
   </g>
  </g>
 </g>
 <g partID="854213830">
  <g transform="translate(169.658,203.044)">
   <g transform="matrix(0,-1,1,0,0,0)">
    <g  id="copper0">
     <g  id="copper1">
      <!-- <rect width="55" x="10" y="15.5" fill="none" height="55" stroke="rgb(255, 191, 0)" stroke-width="20" />  -->
      <circle fill="none"  r="1.98" stroke="black" id="connector0pin" cx="2.7" cy="3.096" stroke-width="1.44"/>
      <circle fill="none"  r="1.98" stroke="black" id="connector1pin" cx="31.5" cy="3.096" stroke-width="1.44"/>
     </g>
    </g>
   </g>
  </g>
 </g>
 <g partID="854213650">
  <g transform="translate(133.658,203.044)">
   <g transform="matrix(0,-1,1,0,0,0)">
    <g  id="copper0">
     <g  id="copper1">
      <!-- <rect width="55" x="10" y="15.5" fill="none" height="55" stroke="rgb(255, 191, 0)" stroke-width="20" />  -->
      <circle fill="none"  r="1.98" stroke="black" id="connector0pin" cx="2.7" cy="3.096" stroke-width="1.44"/>
      <circle fill="none"  r="1.98" stroke="black" id="connector1pin" cx="31.5" cy="3.096" stroke-width="1.44"/>
     </g>
    </g>
   </g>
  </g>
 </g>
 <g partID="854213470">
  <g transform="translate(90.4577,203.044)">
   <g transform="matrix(0,-1,1,0,0,0)">
    <g  id="copper0">
     <g  id="copper1">
      <!-- <rect width="55" x="10" y="15.5" fill="none" height="55" stroke="rgb(255, 191, 0)" stroke-width="20" />  -->
      <circle fill="none"  r="1.98" stroke="black" id="connector0pin" cx="2.7" cy="3.096" stroke-width="1.44"/>
      <circle fill="none"  r="1.98" stroke="black" id="connector1pin" cx="31.5" cy="3.096" stroke-width="1.44"/>
     </g>
    </g>
   </g>
  </g>
 </g>
 <g partID="854213290">
  <g transform="translate(40.0577,203.044)">
   <g transform="matrix(0,-1,1,0,0,0)">
    <g  id="copper0">
     <g  id="copper1">
      <!-- <rect width="55" x="10" y="15.5" fill="none" height="55" stroke="rgb(255, 191, 0)" stroke-width="20" />  -->
      <circle fill="none"  r="1.98" stroke="black" id="connector0pin" cx="2.7" cy="3.096" stroke-width="1.44"/>
      <circle fill="none"  r="1.98" stroke="black" id="connector1pin" cx="31.5" cy="3.096" stroke-width="1.44"/>
     </g>
    </g>
   </g>
  </g>
 </g>
 <g partID="854344250">
  <g transform="translate(57.6607,31.3778)">
   <g  id="copper0">
    <circle fill="none"  r="0.992124" stroke="black" id="connector0pin" cx="3.01733" cy="3.01733" stroke-width="0.850392"/>
   </g>
  </g>
 </g>
 <g partID="854344310">
  <g transform="translate(137.102,31.2008)">
   <g  id="copper0">
    <circle fill="none"  r="0.992124" stroke="black" id="connector0pin" cx="3.01733" cy="3.01733" stroke-width="0.850392"/>
   </g>
  </g>
 </g>
 <g partID="854352910">
  <g transform="translate(121.377,234.007)">
   <g  id="copper0">
    <circle fill="black"  r="5.66929" stroke="black" id="nonconn0" cx="7.26926" cy="7.26926" stroke-width="0"/>
   </g>
  </g>
 </g>
 <g partID="854352890">
  <g transform="translate(121.377,7.23497)">
   <g  id="copper0">
    <circle fill="black"  r="5.66929" stroke="black" id="nonconn0" cx="7.26926" cy="7.26926" stroke-width="0"/>
   </g>
  </g>
 </g>
 <g partID="854350980">
  <g transform="translate(7.9915,234.007)">
   <g  id="copper0">
    <circle fill="black"  r="5.66929" stroke="black" id="nonconn0" cx="7.26926" cy="7.26926" stroke-width="0"/>
   </g>
  </g>
 </g>
 <g partID="854350960">
  <g transform="translate(7.9915,7.23497)">
   <g  id="copper0">
    <circle fill="black"  r="5.66929" stroke="black" id="nonconn0" cx="7.26926" cy="7.26926" stroke-width="0"/>
   </g>
  </g>
 </g>
 <g partID="854350940">
  <g transform="translate(234.763,7.23497)">
   <g  id="copper0">
    <circle fill="black"  r="5.66929" stroke="black" id="nonconn0" cx="7.26926" cy="7.26926" stroke-width="0"/>
   </g>
  </g>
 </g>
 <g partID="854350910">
  <g transform="translate(234.763,234.007)">
   <g  id="copper0">
    <circle fill="black"  r="5.66929" stroke="black" id="nonconn0" cx="7.26926" cy="7.26926" stroke-width="0"/>
   </g>
  </g>
 </g>
 <g partID="854362130">
  <g transform="translate(24.394,135.266)">
   <g  id="copper0">
    <circle fill="none"  r="2.088" stroke="black" id="connector0pin" cx="5.04" cy="5.04" stroke-width="1.44"/>
    <circle fill="none"  r="2.088" stroke="black" id="connector1pin" cx="5.04" cy="12.24" stroke-width="1.44"/>
    <circle fill="none"  r="2.088" stroke="black" id="connector2pin" cx="5.04" cy="19.44" stroke-width="1.44"/>
    <circle fill="none"  r="2.088" stroke="black" id="connector3pin" cx="5.04" cy="26.64" stroke-width="1.44"/>
   </g>
  </g>
 </g>
 <g partID="854310930">
  <line stroke="black" stroke-linecap="round" y1="34.3922" y2="34.2213" x1="62.045" stroke-width="1.728" x2="138.752"/>
 </g>
 <g partID="854322310">
  <line stroke="black" stroke-linecap="round" y1="53.44" y2="83.9087" x1="238.198" stroke-width="1.728" x2="223.74"/>
 </g>
 <g partID="854353580">
  <line stroke="black" stroke-linecap="round" y1="93.9225" y2="159.128" x1="100.434" stroke-width="1.728" x2="100.434"/>
 </g>
 <g partID="854353660">
  <line stroke="black" stroke-linecap="round" y1="159.128" y2="198.798" x1="100.434" stroke-width="1.728" x2="135.392"/>
 </g>
 <g partID="854353590">
  <line stroke="black" stroke-linecap="round" y1="92.9829" y2="93.9225" x1="111.526" stroke-width="1.728" x2="100.434"/>
 </g>
 <g partID="854353810">
  <line stroke="black" stroke-linecap="round" y1="99.5436" y2="99.9281" x1="128.54" stroke-width="1.728" x2="115.952"/>
 </g>
 <g partID="854353820">
  <line stroke="black" stroke-linecap="round" y1="198.655" y2="161.751" x1="171.574" stroke-width="1.728" x2="145.779"/>
 </g>
 <g partID="854353890">
  <line stroke="black" stroke-linecap="round" y1="161.751" y2="99.5436" x1="145.779" stroke-width="1.728" x2="128.54"/>
 </g>
 <g partID="854354430">
  <line stroke="black" stroke-linecap="round" y1="79.6821" y2="78.5101" x1="88.8173" stroke-width="1.728" x2="111.521"/>
 </g>
 <g partID="854354510">
  <line stroke="black" stroke-linecap="round" y1="181.613" y2="79.6821" x1="55.0902" stroke-width="1.728" x2="88.8173"/>
 </g>
 <g partID="854354440">
  <line stroke="black" stroke-linecap="round" y1="198.606" y2="181.613" x1="44.2608" stroke-width="1.728" x2="55.0902"/>
 </g>
 <g partID="854354660">
  <line stroke="black" stroke-linecap="round" y1="88.3013" y2="85.9096" x1="94.8132" stroke-width="1.728" x2="111.541"/>
 </g>
 <g partID="854354670">
  <line stroke="black" stroke-linecap="round" y1="199.131" y2="184.611" x1="91.8886" stroke-width="1.728" x2="71.9537"/>
 </g>
 <g partID="854354740">
  <line stroke="black" stroke-linecap="round" y1="184.611" y2="88.3013" x1="71.9537" stroke-width="1.728" x2="94.8132"/>
 </g>
 <g partID="854355330">
  <line stroke="black" stroke-linecap="round" y1="136.446" y2="135.995" x1="174.051" stroke-width="1.728" x2="159.255"/>
 </g>
 <g partID="854355340">
  <line stroke="black" stroke-linecap="round" y1="211.76" y2="136.446" x1="221.889" stroke-width="1.728" x2="174.051"/>
 </g>
 <g partID="854355450">
  <line stroke="black" stroke-linecap="round" y1="127.836" y2="147.476" x1="196.807" stroke-width="1.728" x2="221.313"/>
 </g>
 <g partID="854355460">
  <line stroke="black" stroke-linecap="round" y1="128.678" y2="127.836" x1="159.255" stroke-width="1.728" x2="196.807"/>
 </g>
 <g partID="854355570">
  <line stroke="black" stroke-linecap="round" y1="122.068" y2="100.213" x1="199.458" stroke-width="1.728" x2="221.479"/>
 </g>
 <g partID="854355580">
  <line stroke="black" stroke-linecap="round" y1="121.556" y2="122.068" x1="159.256" stroke-width="1.728" x2="199.458"/>
 </g>
 <g partID="854355690">
  <line stroke="black" stroke-linecap="round" y1="94.0083" y2="42.8744" x1="185.429" stroke-width="1.728" x2="221.787"/>
 </g>
 <g partID="854355700">
  <line stroke="black" stroke-linecap="round" y1="92.8278" y2="94.0083" x1="159.254" stroke-width="1.728" x2="185.429"/>
 </g>
 <g partID="854363490">
  <line stroke="black" stroke-linecap="round" y1="65.5976" y2="147.725" x1="74.6913" stroke-width="1.728" x2="43.4828"/>
 </g>
 <g partID="854364290">
  <line stroke="black" stroke-linecap="round" y1="147.725" y2="147.54" x1="43.4828" stroke-width="1.728" x2="31.6018"/>
 </g>
 <g partID="854363500">
  <line stroke="black" stroke-linecap="round" y1="64.0867" y2="65.5976" x1="111.52" stroke-width="1.728" x2="74.6913"/>
 </g>
 <g partID="854363570">
  <line stroke="black" stroke-linecap="round" y1="45.6132" y2="45.6132" x1="74.6913" stroke-width="1.728" x2="148.606"/>
 </g>
 <g partID="854364340">
  <line stroke="black" stroke-linecap="round" y1="45.6132" y2="54.9614" x1="148.606" stroke-width="1.728" x2="155.698"/>
 </g>
 <g partID="854363580">
  <line stroke="black" stroke-linecap="round" y1="138.35" y2="45.6132" x1="30.3689" stroke-width="1.728" x2="74.6913"/>
 </g>
 <g partID="854363650">
  <line stroke="black" stroke-linecap="round" y1="74.0841" y2="71.3874" x1="80.4402" stroke-width="1.728" x2="111.527"/>
 </g>
 <g partID="854364240">
  <line stroke="black" stroke-linecap="round" y1="155.117" y2="74.0841" x1="48.958" stroke-width="1.728" x2="80.4402"/>
 </g>
 <g partID="854363660">
  <line stroke="black" stroke-linecap="round" y1="154.751" y2="155.117" x1="31.6015" stroke-width="1.728" x2="48.958"/>
 </g>
</svg>
