G04 MADE WITH FRITZING*
G04 WWW.FRITZING.ORG*
G04 DOUBLE SIDED*
G04 HOLES PLATED*
G04 CONTOUR ON CENTER OF CONTOUR VECTOR*
%ASAXBY*%
%FSLAX23Y23*%
%MOIN*%
%OFA0B0*%
%SFA1.0B1.0*%
%ADD10C,0.078000*%
%ADD11C,0.079370*%
%ADD12C,0.039370*%
%ADD13C,0.092000*%
%ADD14C,0.075000*%
%ADD15C,0.063307*%
%ADD16R,0.092000X0.092000*%
%ADD17C,0.024000*%
%ADD18C,0.011111*%
%ADD19R,0.001000X0.001000*%
%LNCOPPER1*%
G90*
G70*
G54D10*
X409Y1595D03*
X409Y1495D03*
X409Y1395D03*
X409Y1295D03*
G54D11*
X1580Y2754D03*
X1580Y2654D03*
X1580Y2554D03*
X1580Y2454D03*
X1580Y2354D03*
X1580Y2254D03*
X1580Y2154D03*
X1580Y2054D03*
X1580Y1954D03*
X1580Y1854D03*
X1580Y1754D03*
X1580Y1654D03*
X1580Y1554D03*
X1580Y1454D03*
X2181Y2755D03*
X2181Y2655D03*
X2181Y2555D03*
X2181Y2455D03*
X2181Y2355D03*
X2181Y2255D03*
X2181Y2155D03*
X2181Y2055D03*
X2181Y1955D03*
X2181Y1855D03*
X2181Y1755D03*
X2181Y1655D03*
X2181Y1555D03*
X2181Y1455D03*
G54D12*
X843Y3066D03*
X3322Y2831D03*
G54D13*
X1299Y661D03*
X1599Y661D03*
X599Y661D03*
X899Y661D03*
X1899Y661D03*
X2199Y661D03*
X2417Y665D03*
X2717Y665D03*
G54D14*
X409Y2554D03*
X409Y2254D03*
X409Y3145D03*
X409Y2745D03*
G54D15*
X3099Y761D03*
X3099Y575D03*
X3100Y391D03*
X3099Y761D03*
X3099Y575D03*
X3100Y391D03*
X3099Y1661D03*
X3099Y1475D03*
X3100Y1291D03*
X3099Y1661D03*
X3099Y1475D03*
X3100Y1291D03*
X3099Y3161D03*
X3099Y2975D03*
X3100Y2791D03*
X3099Y3161D03*
X3099Y2975D03*
X3100Y2791D03*
X3099Y2361D03*
X3099Y2175D03*
X3100Y1991D03*
X3099Y2361D03*
X3099Y2175D03*
X3100Y1991D03*
G54D14*
X2399Y761D03*
X2399Y1161D03*
X1899Y761D03*
X1899Y1161D03*
X1299Y761D03*
X1299Y1161D03*
X599Y761D03*
X599Y1161D03*
G54D12*
X843Y3066D03*
X1946Y3068D03*
G54D16*
X1299Y661D03*
X599Y661D03*
X1899Y661D03*
X2417Y665D03*
G54D17*
X1590Y3144D02*
X3067Y3160D01*
D02*
X437Y3145D02*
X1590Y3144D01*
D02*
X1590Y3144D02*
X1581Y2785D01*
D02*
X252Y981D02*
X251Y2238D01*
D02*
X487Y508D02*
X252Y981D01*
D02*
X251Y2238D02*
X380Y2252D01*
D02*
X852Y497D02*
X487Y508D01*
D02*
X852Y497D02*
X889Y625D01*
D02*
X1625Y460D02*
X852Y497D01*
D02*
X1625Y460D02*
X1604Y624D01*
D02*
X2222Y468D02*
X1625Y460D01*
D02*
X2222Y468D02*
X3067Y394D01*
D02*
X2204Y624D02*
X2222Y468D01*
D02*
X2211Y2563D02*
X2336Y2594D01*
D02*
X2336Y2594D02*
X3068Y2783D01*
D02*
X3284Y2554D02*
X3120Y2765D01*
D02*
X3284Y1349D02*
X3284Y2554D01*
D02*
X3284Y1349D02*
X3109Y1959D01*
D02*
X576Y1177D02*
X433Y1277D01*
G54D18*
D02*
X1322Y1161D02*
X1876Y1161D01*
G54D17*
D02*
X628Y1161D02*
X1271Y1161D01*
D02*
X2747Y643D02*
X3073Y410D01*
G54D18*
D02*
X2411Y696D02*
X2403Y738D01*
G54D17*
D02*
X599Y724D02*
X599Y689D01*
D02*
X1299Y724D02*
X1299Y689D01*
G54D18*
D02*
X1922Y1161D02*
X2376Y1161D01*
G54D17*
D02*
X409Y2583D02*
X409Y2716D01*
G54D18*
D02*
X1899Y738D02*
X1899Y692D01*
G54D17*
D02*
X830Y3051D02*
X855Y3080D01*
D02*
X421Y2569D02*
X824Y3044D01*
D02*
X3312Y2846D02*
X3118Y3134D01*
D02*
X3076Y1644D02*
X2426Y1180D01*
D02*
X3071Y777D02*
X2424Y1147D01*
D02*
X1946Y3068D02*
X1943Y2180D01*
D02*
X1974Y2160D02*
X2181Y2155D01*
D02*
X2794Y2026D02*
X3099Y2361D01*
D02*
X3099Y1661D02*
X2794Y1978D01*
D02*
X3105Y1323D02*
X3100Y1291D01*
D02*
X3100Y1291D02*
X3284Y1349D01*
D02*
X3284Y587D02*
X3122Y415D01*
D02*
X3284Y1349D02*
X3284Y587D01*
G54D19*
X555Y281D02*
X559Y281D01*
X595Y281D02*
X599Y281D01*
X771Y281D02*
X775Y281D01*
X920Y281D02*
X952Y281D01*
X1203Y281D02*
X1207Y281D01*
X554Y280D02*
X560Y280D01*
X594Y280D02*
X600Y280D01*
X770Y280D02*
X776Y280D01*
X918Y280D02*
X954Y280D01*
X1202Y280D02*
X1208Y280D01*
X553Y279D02*
X561Y279D01*
X592Y279D02*
X601Y279D01*
X769Y279D02*
X777Y279D01*
X917Y279D02*
X956Y279D01*
X1201Y279D02*
X1209Y279D01*
X553Y278D02*
X561Y278D01*
X591Y278D02*
X601Y278D01*
X769Y278D02*
X777Y278D01*
X916Y278D02*
X957Y278D01*
X1201Y278D02*
X1209Y278D01*
X553Y277D02*
X562Y277D01*
X590Y277D02*
X601Y277D01*
X769Y277D02*
X778Y277D01*
X915Y277D02*
X958Y277D01*
X1142Y277D02*
X1144Y277D01*
X1201Y277D02*
X1210Y277D01*
X553Y276D02*
X562Y276D01*
X589Y276D02*
X601Y276D01*
X769Y276D02*
X778Y276D01*
X914Y276D02*
X959Y276D01*
X1140Y276D02*
X1146Y276D01*
X1201Y276D02*
X1210Y276D01*
X553Y275D02*
X562Y275D01*
X588Y275D02*
X601Y275D01*
X769Y275D02*
X778Y275D01*
X914Y275D02*
X959Y275D01*
X1139Y275D02*
X1147Y275D01*
X1201Y275D02*
X1210Y275D01*
X553Y274D02*
X562Y274D01*
X587Y274D02*
X601Y274D01*
X769Y274D02*
X778Y274D01*
X913Y274D02*
X960Y274D01*
X1139Y274D02*
X1147Y274D01*
X1201Y274D02*
X1210Y274D01*
X553Y273D02*
X562Y273D01*
X585Y273D02*
X600Y273D01*
X769Y273D02*
X778Y273D01*
X913Y273D02*
X960Y273D01*
X1139Y273D02*
X1147Y273D01*
X1201Y273D02*
X1210Y273D01*
X553Y272D02*
X562Y272D01*
X584Y272D02*
X599Y272D01*
X769Y272D02*
X778Y272D01*
X913Y272D02*
X961Y272D01*
X1138Y272D02*
X1148Y272D01*
X1201Y272D02*
X1210Y272D01*
X553Y271D02*
X562Y271D01*
X583Y271D02*
X598Y271D01*
X769Y271D02*
X778Y271D01*
X913Y271D02*
X922Y271D01*
X950Y271D02*
X961Y271D01*
X1138Y271D02*
X1148Y271D01*
X1201Y271D02*
X1210Y271D01*
X553Y270D02*
X562Y270D01*
X582Y270D02*
X596Y270D01*
X769Y270D02*
X778Y270D01*
X913Y270D02*
X922Y270D01*
X952Y270D02*
X961Y270D01*
X1138Y270D02*
X1148Y270D01*
X1201Y270D02*
X1210Y270D01*
X553Y269D02*
X562Y269D01*
X581Y269D02*
X595Y269D01*
X769Y269D02*
X778Y269D01*
X913Y269D02*
X922Y269D01*
X952Y269D02*
X961Y269D01*
X1138Y269D02*
X1148Y269D01*
X1201Y269D02*
X1210Y269D01*
X553Y268D02*
X562Y268D01*
X580Y268D02*
X594Y268D01*
X769Y268D02*
X778Y268D01*
X913Y268D02*
X923Y268D01*
X952Y268D02*
X961Y268D01*
X1138Y268D02*
X1148Y268D01*
X1201Y268D02*
X1210Y268D01*
X553Y267D02*
X562Y267D01*
X578Y267D02*
X593Y267D01*
X769Y267D02*
X778Y267D01*
X913Y267D02*
X924Y267D01*
X952Y267D02*
X961Y267D01*
X1138Y267D02*
X1148Y267D01*
X1201Y267D02*
X1210Y267D01*
X553Y266D02*
X562Y266D01*
X577Y266D02*
X592Y266D01*
X769Y266D02*
X778Y266D01*
X913Y266D02*
X925Y266D01*
X953Y266D02*
X961Y266D01*
X1138Y266D02*
X1148Y266D01*
X1201Y266D02*
X1210Y266D01*
X553Y265D02*
X562Y265D01*
X576Y265D02*
X591Y265D01*
X769Y265D02*
X778Y265D01*
X914Y265D02*
X925Y265D01*
X953Y265D02*
X960Y265D01*
X1138Y265D02*
X1148Y265D01*
X1201Y265D02*
X1210Y265D01*
X553Y264D02*
X562Y264D01*
X575Y264D02*
X589Y264D01*
X769Y264D02*
X778Y264D01*
X914Y264D02*
X926Y264D01*
X954Y264D02*
X959Y264D01*
X1138Y264D02*
X1148Y264D01*
X1201Y264D02*
X1210Y264D01*
X553Y263D02*
X562Y263D01*
X574Y263D02*
X588Y263D01*
X769Y263D02*
X778Y263D01*
X915Y263D02*
X927Y263D01*
X1138Y263D02*
X1148Y263D01*
X1201Y263D02*
X1210Y263D01*
X553Y262D02*
X562Y262D01*
X572Y262D02*
X587Y262D01*
X769Y262D02*
X778Y262D01*
X916Y262D02*
X928Y262D01*
X1138Y262D02*
X1148Y262D01*
X1201Y262D02*
X1210Y262D01*
X553Y261D02*
X562Y261D01*
X571Y261D02*
X586Y261D01*
X769Y261D02*
X778Y261D01*
X917Y261D02*
X929Y261D01*
X1138Y261D02*
X1148Y261D01*
X1201Y261D02*
X1210Y261D01*
X553Y260D02*
X562Y260D01*
X570Y260D02*
X585Y260D01*
X640Y260D02*
X658Y260D01*
X700Y260D02*
X702Y260D01*
X721Y260D02*
X733Y260D01*
X769Y260D02*
X778Y260D01*
X806Y260D02*
X809Y260D01*
X854Y260D02*
X877Y260D01*
X917Y260D02*
X929Y260D01*
X988Y260D02*
X990Y260D01*
X1027Y260D02*
X1030Y260D01*
X1060Y260D02*
X1062Y260D01*
X1081Y260D02*
X1092Y260D01*
X1132Y260D02*
X1169Y260D01*
X1201Y260D02*
X1210Y260D01*
X1225Y260D02*
X1236Y260D01*
X553Y259D02*
X562Y259D01*
X569Y259D02*
X584Y259D01*
X637Y259D02*
X661Y259D01*
X698Y259D02*
X704Y259D01*
X718Y259D02*
X735Y259D01*
X769Y259D02*
X778Y259D01*
X805Y259D02*
X811Y259D01*
X852Y259D02*
X879Y259D01*
X918Y259D02*
X930Y259D01*
X986Y259D02*
X992Y259D01*
X1026Y259D02*
X1032Y259D01*
X1058Y259D02*
X1064Y259D01*
X1078Y259D02*
X1095Y259D01*
X1130Y259D02*
X1171Y259D01*
X1201Y259D02*
X1210Y259D01*
X1222Y259D02*
X1239Y259D01*
X553Y258D02*
X562Y258D01*
X568Y258D02*
X582Y258D01*
X635Y258D02*
X663Y258D01*
X697Y258D02*
X705Y258D01*
X716Y258D02*
X737Y258D01*
X769Y258D02*
X778Y258D01*
X804Y258D02*
X811Y258D01*
X851Y258D02*
X881Y258D01*
X919Y258D02*
X931Y258D01*
X985Y258D02*
X993Y258D01*
X1025Y258D02*
X1032Y258D01*
X1057Y258D02*
X1065Y258D01*
X1076Y258D02*
X1097Y258D01*
X1129Y258D02*
X1171Y258D01*
X1201Y258D02*
X1210Y258D01*
X1220Y258D02*
X1241Y258D01*
X553Y257D02*
X562Y257D01*
X567Y257D02*
X581Y257D01*
X634Y257D02*
X664Y257D01*
X697Y257D02*
X705Y257D01*
X715Y257D02*
X738Y257D01*
X769Y257D02*
X778Y257D01*
X802Y257D02*
X812Y257D01*
X851Y257D02*
X882Y257D01*
X920Y257D02*
X932Y257D01*
X985Y257D02*
X993Y257D01*
X1024Y257D02*
X1033Y257D01*
X1057Y257D02*
X1065Y257D01*
X1075Y257D02*
X1098Y257D01*
X1129Y257D02*
X1172Y257D01*
X1201Y257D02*
X1210Y257D01*
X1219Y257D02*
X1242Y257D01*
X553Y256D02*
X562Y256D01*
X565Y256D02*
X580Y256D01*
X633Y256D02*
X665Y256D01*
X697Y256D02*
X706Y256D01*
X713Y256D02*
X740Y256D01*
X769Y256D02*
X778Y256D01*
X801Y256D02*
X812Y256D01*
X851Y256D02*
X884Y256D01*
X920Y256D02*
X932Y256D01*
X985Y256D02*
X994Y256D01*
X1024Y256D02*
X1033Y256D01*
X1057Y256D02*
X1066Y256D01*
X1073Y256D02*
X1100Y256D01*
X1129Y256D02*
X1172Y256D01*
X1201Y256D02*
X1210Y256D01*
X1217Y256D02*
X1244Y256D01*
X553Y255D02*
X562Y255D01*
X564Y255D02*
X579Y255D01*
X631Y255D02*
X667Y255D01*
X697Y255D02*
X706Y255D01*
X712Y255D02*
X741Y255D01*
X769Y255D02*
X778Y255D01*
X800Y255D02*
X812Y255D01*
X851Y255D02*
X885Y255D01*
X921Y255D02*
X933Y255D01*
X985Y255D02*
X994Y255D01*
X1024Y255D02*
X1033Y255D01*
X1057Y255D02*
X1066Y255D01*
X1072Y255D02*
X1100Y255D01*
X1129Y255D02*
X1172Y255D01*
X1201Y255D02*
X1210Y255D01*
X1216Y255D02*
X1244Y255D01*
X553Y254D02*
X578Y254D01*
X630Y254D02*
X668Y254D01*
X697Y254D02*
X706Y254D01*
X710Y254D02*
X741Y254D01*
X769Y254D02*
X778Y254D01*
X799Y254D02*
X812Y254D01*
X851Y254D02*
X885Y254D01*
X922Y254D02*
X934Y254D01*
X985Y254D02*
X994Y254D01*
X1024Y254D02*
X1033Y254D01*
X1057Y254D02*
X1066Y254D01*
X1070Y254D02*
X1101Y254D01*
X1129Y254D02*
X1172Y254D01*
X1201Y254D02*
X1210Y254D01*
X1214Y254D02*
X1245Y254D01*
X553Y253D02*
X577Y253D01*
X629Y253D02*
X669Y253D01*
X697Y253D02*
X706Y253D01*
X708Y253D02*
X742Y253D01*
X769Y253D02*
X778Y253D01*
X798Y253D02*
X812Y253D01*
X851Y253D02*
X886Y253D01*
X923Y253D02*
X935Y253D01*
X985Y253D02*
X994Y253D01*
X1024Y253D02*
X1033Y253D01*
X1057Y253D02*
X1066Y253D01*
X1068Y253D02*
X1102Y253D01*
X1129Y253D02*
X1172Y253D01*
X1201Y253D02*
X1210Y253D01*
X1212Y253D02*
X1246Y253D01*
X553Y252D02*
X575Y252D01*
X628Y252D02*
X670Y252D01*
X697Y252D02*
X743Y252D01*
X769Y252D02*
X778Y252D01*
X797Y252D02*
X811Y252D01*
X852Y252D02*
X887Y252D01*
X924Y252D02*
X936Y252D01*
X985Y252D02*
X994Y252D01*
X1024Y252D02*
X1033Y252D01*
X1057Y252D02*
X1103Y252D01*
X1130Y252D02*
X1171Y252D01*
X1201Y252D02*
X1246Y252D01*
X553Y251D02*
X574Y251D01*
X628Y251D02*
X671Y251D01*
X697Y251D02*
X743Y251D01*
X769Y251D02*
X778Y251D01*
X795Y251D02*
X810Y251D01*
X853Y251D02*
X887Y251D01*
X924Y251D02*
X936Y251D01*
X985Y251D02*
X994Y251D01*
X1024Y251D02*
X1033Y251D01*
X1057Y251D02*
X1103Y251D01*
X1131Y251D02*
X1170Y251D01*
X1201Y251D02*
X1247Y251D01*
X553Y250D02*
X573Y250D01*
X627Y250D02*
X640Y250D01*
X657Y250D02*
X671Y250D01*
X697Y250D02*
X722Y250D01*
X732Y250D02*
X743Y250D01*
X769Y250D02*
X778Y250D01*
X794Y250D02*
X809Y250D01*
X876Y250D02*
X887Y250D01*
X925Y250D02*
X937Y250D01*
X985Y250D02*
X994Y250D01*
X1024Y250D02*
X1033Y250D01*
X1057Y250D02*
X1081Y250D01*
X1092Y250D02*
X1103Y250D01*
X1138Y250D02*
X1148Y250D01*
X1201Y250D02*
X1225Y250D01*
X1236Y250D02*
X1247Y250D01*
X553Y249D02*
X572Y249D01*
X626Y249D02*
X639Y249D01*
X659Y249D02*
X672Y249D01*
X697Y249D02*
X720Y249D01*
X733Y249D02*
X744Y249D01*
X769Y249D02*
X778Y249D01*
X793Y249D02*
X808Y249D01*
X877Y249D02*
X888Y249D01*
X926Y249D02*
X938Y249D01*
X985Y249D02*
X994Y249D01*
X1024Y249D02*
X1033Y249D01*
X1057Y249D02*
X1080Y249D01*
X1093Y249D02*
X1104Y249D01*
X1138Y249D02*
X1148Y249D01*
X1201Y249D02*
X1224Y249D01*
X1237Y249D02*
X1248Y249D01*
X553Y248D02*
X571Y248D01*
X626Y248D02*
X638Y248D01*
X661Y248D02*
X672Y248D01*
X697Y248D02*
X718Y248D01*
X734Y248D02*
X744Y248D01*
X769Y248D02*
X778Y248D01*
X792Y248D02*
X806Y248D01*
X878Y248D02*
X888Y248D01*
X927Y248D02*
X939Y248D01*
X985Y248D02*
X994Y248D01*
X1024Y248D02*
X1033Y248D01*
X1057Y248D02*
X1078Y248D01*
X1094Y248D02*
X1104Y248D01*
X1138Y248D02*
X1148Y248D01*
X1201Y248D02*
X1222Y248D01*
X1238Y248D02*
X1248Y248D01*
X553Y247D02*
X570Y247D01*
X626Y247D02*
X636Y247D01*
X662Y247D02*
X673Y247D01*
X697Y247D02*
X717Y247D01*
X735Y247D02*
X744Y247D01*
X769Y247D02*
X778Y247D01*
X791Y247D02*
X805Y247D01*
X878Y247D02*
X888Y247D01*
X927Y247D02*
X939Y247D01*
X985Y247D02*
X994Y247D01*
X1024Y247D02*
X1033Y247D01*
X1057Y247D02*
X1077Y247D01*
X1095Y247D02*
X1104Y247D01*
X1138Y247D02*
X1148Y247D01*
X1201Y247D02*
X1221Y247D01*
X1239Y247D02*
X1248Y247D01*
X553Y246D02*
X568Y246D01*
X625Y246D02*
X635Y246D01*
X663Y246D02*
X673Y246D01*
X697Y246D02*
X715Y246D01*
X735Y246D02*
X744Y246D01*
X769Y246D02*
X778Y246D01*
X790Y246D02*
X804Y246D01*
X879Y246D02*
X888Y246D01*
X928Y246D02*
X940Y246D01*
X985Y246D02*
X995Y246D01*
X1023Y246D02*
X1033Y246D01*
X1057Y246D02*
X1075Y246D01*
X1095Y246D02*
X1104Y246D01*
X1138Y246D02*
X1148Y246D01*
X1201Y246D02*
X1219Y246D01*
X1239Y246D02*
X1248Y246D01*
X553Y245D02*
X567Y245D01*
X625Y245D02*
X635Y245D01*
X663Y245D02*
X673Y245D01*
X697Y245D02*
X714Y245D01*
X735Y245D02*
X744Y245D01*
X769Y245D02*
X778Y245D01*
X788Y245D02*
X803Y245D01*
X879Y245D02*
X888Y245D01*
X929Y245D02*
X941Y245D01*
X985Y245D02*
X995Y245D01*
X1023Y245D02*
X1033Y245D01*
X1057Y245D02*
X1074Y245D01*
X1095Y245D02*
X1104Y245D01*
X1138Y245D02*
X1148Y245D01*
X1201Y245D02*
X1218Y245D01*
X1239Y245D02*
X1248Y245D01*
X553Y244D02*
X566Y244D01*
X625Y244D02*
X634Y244D01*
X664Y244D02*
X673Y244D01*
X697Y244D02*
X712Y244D01*
X735Y244D02*
X744Y244D01*
X769Y244D02*
X778Y244D01*
X787Y244D02*
X802Y244D01*
X879Y244D02*
X888Y244D01*
X930Y244D02*
X942Y244D01*
X985Y244D02*
X995Y244D01*
X1022Y244D02*
X1033Y244D01*
X1057Y244D02*
X1072Y244D01*
X1095Y244D02*
X1104Y244D01*
X1138Y244D02*
X1148Y244D01*
X1201Y244D02*
X1216Y244D01*
X1239Y244D02*
X1248Y244D01*
X553Y243D02*
X565Y243D01*
X625Y243D02*
X634Y243D01*
X664Y243D02*
X673Y243D01*
X697Y243D02*
X711Y243D01*
X735Y243D02*
X744Y243D01*
X769Y243D02*
X778Y243D01*
X786Y243D02*
X801Y243D01*
X879Y243D02*
X888Y243D01*
X931Y243D02*
X943Y243D01*
X986Y243D02*
X996Y243D01*
X1022Y243D02*
X1032Y243D01*
X1057Y243D02*
X1071Y243D01*
X1095Y243D02*
X1104Y243D01*
X1138Y243D02*
X1148Y243D01*
X1201Y243D02*
X1215Y243D01*
X1239Y243D02*
X1248Y243D01*
X553Y242D02*
X565Y242D01*
X625Y242D02*
X634Y242D01*
X664Y242D02*
X673Y242D01*
X697Y242D02*
X709Y242D01*
X735Y242D02*
X744Y242D01*
X769Y242D02*
X778Y242D01*
X785Y242D02*
X799Y242D01*
X879Y242D02*
X888Y242D01*
X931Y242D02*
X943Y242D01*
X986Y242D02*
X996Y242D01*
X1022Y242D02*
X1032Y242D01*
X1057Y242D02*
X1069Y242D01*
X1095Y242D02*
X1104Y242D01*
X1138Y242D02*
X1148Y242D01*
X1201Y242D02*
X1213Y242D01*
X1239Y242D02*
X1248Y242D01*
X553Y241D02*
X566Y241D01*
X625Y241D02*
X634Y241D01*
X664Y241D02*
X673Y241D01*
X697Y241D02*
X708Y241D01*
X735Y241D02*
X744Y241D01*
X769Y241D02*
X778Y241D01*
X784Y241D02*
X798Y241D01*
X879Y241D02*
X888Y241D01*
X932Y241D02*
X944Y241D01*
X987Y241D02*
X997Y241D01*
X1021Y241D02*
X1031Y241D01*
X1057Y241D02*
X1068Y241D01*
X1095Y241D02*
X1104Y241D01*
X1138Y241D02*
X1148Y241D01*
X1201Y241D02*
X1211Y241D01*
X1239Y241D02*
X1248Y241D01*
X553Y240D02*
X567Y240D01*
X625Y240D02*
X634Y240D01*
X664Y240D02*
X673Y240D01*
X697Y240D02*
X706Y240D01*
X735Y240D02*
X744Y240D01*
X769Y240D02*
X778Y240D01*
X783Y240D02*
X797Y240D01*
X879Y240D02*
X888Y240D01*
X933Y240D02*
X945Y240D01*
X987Y240D02*
X997Y240D01*
X1021Y240D02*
X1031Y240D01*
X1057Y240D02*
X1066Y240D01*
X1095Y240D02*
X1104Y240D01*
X1138Y240D02*
X1148Y240D01*
X1201Y240D02*
X1210Y240D01*
X1239Y240D02*
X1248Y240D01*
X553Y239D02*
X569Y239D01*
X625Y239D02*
X634Y239D01*
X664Y239D02*
X673Y239D01*
X697Y239D02*
X706Y239D01*
X735Y239D02*
X744Y239D01*
X769Y239D02*
X778Y239D01*
X781Y239D02*
X796Y239D01*
X853Y239D02*
X876Y239D01*
X879Y239D02*
X888Y239D01*
X934Y239D02*
X946Y239D01*
X988Y239D02*
X998Y239D01*
X1020Y239D02*
X1030Y239D01*
X1057Y239D02*
X1066Y239D01*
X1095Y239D02*
X1104Y239D01*
X1138Y239D02*
X1148Y239D01*
X1201Y239D02*
X1210Y239D01*
X1239Y239D02*
X1248Y239D01*
X553Y238D02*
X570Y238D01*
X625Y238D02*
X634Y238D01*
X664Y238D02*
X673Y238D01*
X697Y238D02*
X706Y238D01*
X735Y238D02*
X744Y238D01*
X769Y238D02*
X778Y238D01*
X780Y238D02*
X795Y238D01*
X850Y238D02*
X888Y238D01*
X934Y238D02*
X946Y238D01*
X988Y238D02*
X998Y238D01*
X1020Y238D02*
X1030Y238D01*
X1057Y238D02*
X1066Y238D01*
X1095Y238D02*
X1104Y238D01*
X1138Y238D02*
X1148Y238D01*
X1201Y238D02*
X1210Y238D01*
X1239Y238D02*
X1248Y238D01*
X553Y237D02*
X571Y237D01*
X625Y237D02*
X634Y237D01*
X664Y237D02*
X673Y237D01*
X697Y237D02*
X706Y237D01*
X735Y237D02*
X744Y237D01*
X769Y237D02*
X794Y237D01*
X848Y237D02*
X888Y237D01*
X935Y237D02*
X947Y237D01*
X988Y237D02*
X998Y237D01*
X1019Y237D02*
X1029Y237D01*
X1057Y237D02*
X1066Y237D01*
X1095Y237D02*
X1104Y237D01*
X1138Y237D02*
X1148Y237D01*
X1201Y237D02*
X1210Y237D01*
X1239Y237D02*
X1248Y237D01*
X553Y236D02*
X572Y236D01*
X625Y236D02*
X634Y236D01*
X664Y236D02*
X673Y236D01*
X697Y236D02*
X706Y236D01*
X735Y236D02*
X744Y236D01*
X769Y236D02*
X792Y236D01*
X846Y236D02*
X888Y236D01*
X936Y236D02*
X948Y236D01*
X989Y236D02*
X999Y236D01*
X1019Y236D02*
X1029Y236D01*
X1057Y236D02*
X1066Y236D01*
X1095Y236D02*
X1104Y236D01*
X1138Y236D02*
X1148Y236D01*
X1201Y236D02*
X1210Y236D01*
X1239Y236D02*
X1248Y236D01*
X553Y235D02*
X573Y235D01*
X625Y235D02*
X634Y235D01*
X664Y235D02*
X673Y235D01*
X697Y235D02*
X706Y235D01*
X735Y235D02*
X744Y235D01*
X769Y235D02*
X791Y235D01*
X845Y235D02*
X888Y235D01*
X937Y235D02*
X949Y235D01*
X989Y235D02*
X999Y235D01*
X1018Y235D02*
X1029Y235D01*
X1057Y235D02*
X1066Y235D01*
X1095Y235D02*
X1104Y235D01*
X1138Y235D02*
X1148Y235D01*
X1201Y235D02*
X1210Y235D01*
X1239Y235D02*
X1248Y235D01*
X553Y234D02*
X574Y234D01*
X625Y234D02*
X634Y234D01*
X664Y234D02*
X673Y234D01*
X697Y234D02*
X706Y234D01*
X735Y234D02*
X744Y234D01*
X769Y234D02*
X791Y234D01*
X844Y234D02*
X888Y234D01*
X938Y234D02*
X950Y234D01*
X990Y234D02*
X1000Y234D01*
X1018Y234D02*
X1028Y234D01*
X1057Y234D02*
X1066Y234D01*
X1095Y234D02*
X1104Y234D01*
X1138Y234D02*
X1148Y234D01*
X1201Y234D02*
X1210Y234D01*
X1239Y234D02*
X1248Y234D01*
X553Y233D02*
X576Y233D01*
X625Y233D02*
X634Y233D01*
X664Y233D02*
X673Y233D01*
X697Y233D02*
X706Y233D01*
X735Y233D02*
X745Y233D01*
X769Y233D02*
X792Y233D01*
X843Y233D02*
X889Y233D01*
X938Y233D02*
X950Y233D01*
X990Y233D02*
X1000Y233D01*
X1018Y233D02*
X1028Y233D01*
X1057Y233D02*
X1066Y233D01*
X1095Y233D02*
X1104Y233D01*
X1138Y233D02*
X1148Y233D01*
X1201Y233D02*
X1210Y233D01*
X1239Y233D02*
X1248Y233D01*
X553Y232D02*
X577Y232D01*
X625Y232D02*
X634Y232D01*
X664Y232D02*
X673Y232D01*
X697Y232D02*
X706Y232D01*
X735Y232D02*
X745Y232D01*
X769Y232D02*
X793Y232D01*
X843Y232D02*
X889Y232D01*
X939Y232D02*
X951Y232D01*
X991Y232D02*
X1001Y232D01*
X1017Y232D02*
X1027Y232D01*
X1057Y232D02*
X1066Y232D01*
X1095Y232D02*
X1104Y232D01*
X1138Y232D02*
X1148Y232D01*
X1201Y232D02*
X1210Y232D01*
X1239Y232D02*
X1248Y232D01*
X553Y231D02*
X578Y231D01*
X625Y231D02*
X634Y231D01*
X664Y231D02*
X673Y231D01*
X697Y231D02*
X706Y231D01*
X735Y231D02*
X745Y231D01*
X769Y231D02*
X794Y231D01*
X842Y231D02*
X889Y231D01*
X940Y231D02*
X952Y231D01*
X991Y231D02*
X1001Y231D01*
X1017Y231D02*
X1027Y231D01*
X1057Y231D02*
X1066Y231D01*
X1095Y231D02*
X1105Y231D01*
X1138Y231D02*
X1148Y231D01*
X1201Y231D02*
X1210Y231D01*
X1239Y231D02*
X1249Y231D01*
X553Y230D02*
X562Y230D01*
X565Y230D02*
X579Y230D01*
X625Y230D02*
X634Y230D01*
X664Y230D02*
X673Y230D01*
X697Y230D02*
X706Y230D01*
X736Y230D02*
X745Y230D01*
X769Y230D02*
X795Y230D01*
X842Y230D02*
X889Y230D01*
X941Y230D02*
X953Y230D01*
X991Y230D02*
X1001Y230D01*
X1016Y230D02*
X1026Y230D01*
X1057Y230D02*
X1066Y230D01*
X1095Y230D02*
X1105Y230D01*
X1138Y230D02*
X1148Y230D01*
X1201Y230D02*
X1210Y230D01*
X1239Y230D02*
X1249Y230D01*
X553Y229D02*
X562Y229D01*
X566Y229D02*
X580Y229D01*
X625Y229D02*
X634Y229D01*
X664Y229D02*
X673Y229D01*
X697Y229D02*
X706Y229D01*
X736Y229D02*
X745Y229D01*
X769Y229D02*
X796Y229D01*
X841Y229D02*
X854Y229D01*
X875Y229D02*
X889Y229D01*
X941Y229D02*
X953Y229D01*
X992Y229D02*
X1002Y229D01*
X1016Y229D02*
X1026Y229D01*
X1057Y229D02*
X1066Y229D01*
X1096Y229D02*
X1105Y229D01*
X1138Y229D02*
X1148Y229D01*
X1201Y229D02*
X1210Y229D01*
X1240Y229D02*
X1249Y229D01*
X553Y228D02*
X562Y228D01*
X567Y228D02*
X581Y228D01*
X625Y228D02*
X634Y228D01*
X664Y228D02*
X673Y228D01*
X697Y228D02*
X706Y228D01*
X736Y228D02*
X745Y228D01*
X769Y228D02*
X797Y228D01*
X841Y228D02*
X852Y228D01*
X878Y228D02*
X889Y228D01*
X942Y228D02*
X954Y228D01*
X992Y228D02*
X1002Y228D01*
X1015Y228D02*
X1026Y228D01*
X1057Y228D02*
X1066Y228D01*
X1096Y228D02*
X1105Y228D01*
X1138Y228D02*
X1148Y228D01*
X1201Y228D02*
X1210Y228D01*
X1240Y228D02*
X1249Y228D01*
X553Y227D02*
X562Y227D01*
X568Y227D02*
X583Y227D01*
X625Y227D02*
X634Y227D01*
X664Y227D02*
X673Y227D01*
X697Y227D02*
X706Y227D01*
X736Y227D02*
X745Y227D01*
X769Y227D02*
X782Y227D01*
X784Y227D02*
X799Y227D01*
X841Y227D02*
X851Y227D01*
X879Y227D02*
X889Y227D01*
X943Y227D02*
X955Y227D01*
X993Y227D02*
X1003Y227D01*
X1015Y227D02*
X1025Y227D01*
X1057Y227D02*
X1066Y227D01*
X1096Y227D02*
X1105Y227D01*
X1138Y227D02*
X1148Y227D01*
X1201Y227D02*
X1210Y227D01*
X1240Y227D02*
X1249Y227D01*
X553Y226D02*
X562Y226D01*
X569Y226D02*
X584Y226D01*
X625Y226D02*
X634Y226D01*
X664Y226D02*
X673Y226D01*
X697Y226D02*
X706Y226D01*
X736Y226D02*
X745Y226D01*
X769Y226D02*
X781Y226D01*
X785Y226D02*
X800Y226D01*
X841Y226D02*
X850Y226D01*
X879Y226D02*
X889Y226D01*
X944Y226D02*
X956Y226D01*
X993Y226D02*
X1003Y226D01*
X1015Y226D02*
X1025Y226D01*
X1057Y226D02*
X1066Y226D01*
X1096Y226D02*
X1105Y226D01*
X1138Y226D02*
X1148Y226D01*
X1201Y226D02*
X1210Y226D01*
X1240Y226D02*
X1249Y226D01*
X553Y225D02*
X562Y225D01*
X570Y225D02*
X585Y225D01*
X625Y225D02*
X634Y225D01*
X664Y225D02*
X673Y225D01*
X697Y225D02*
X706Y225D01*
X736Y225D02*
X745Y225D01*
X769Y225D02*
X780Y225D01*
X786Y225D02*
X801Y225D01*
X841Y225D02*
X850Y225D01*
X880Y225D02*
X889Y225D01*
X945Y225D02*
X957Y225D01*
X994Y225D02*
X1004Y225D01*
X1014Y225D02*
X1024Y225D01*
X1057Y225D02*
X1066Y225D01*
X1096Y225D02*
X1105Y225D01*
X1138Y225D02*
X1148Y225D01*
X1201Y225D02*
X1210Y225D01*
X1240Y225D02*
X1249Y225D01*
X553Y224D02*
X562Y224D01*
X572Y224D02*
X586Y224D01*
X625Y224D02*
X634Y224D01*
X664Y224D02*
X673Y224D01*
X697Y224D02*
X706Y224D01*
X736Y224D02*
X745Y224D01*
X769Y224D02*
X778Y224D01*
X788Y224D02*
X802Y224D01*
X841Y224D02*
X850Y224D01*
X880Y224D02*
X889Y224D01*
X945Y224D02*
X957Y224D01*
X994Y224D02*
X1004Y224D01*
X1014Y224D02*
X1024Y224D01*
X1057Y224D02*
X1066Y224D01*
X1096Y224D02*
X1105Y224D01*
X1138Y224D02*
X1148Y224D01*
X1201Y224D02*
X1210Y224D01*
X1240Y224D02*
X1249Y224D01*
X553Y223D02*
X562Y223D01*
X573Y223D02*
X587Y223D01*
X625Y223D02*
X634Y223D01*
X664Y223D02*
X673Y223D01*
X697Y223D02*
X706Y223D01*
X736Y223D02*
X745Y223D01*
X769Y223D02*
X778Y223D01*
X789Y223D02*
X803Y223D01*
X841Y223D02*
X850Y223D01*
X880Y223D02*
X889Y223D01*
X946Y223D02*
X958Y223D01*
X995Y223D02*
X1005Y223D01*
X1013Y223D02*
X1023Y223D01*
X1057Y223D02*
X1066Y223D01*
X1096Y223D02*
X1105Y223D01*
X1138Y223D02*
X1148Y223D01*
X1201Y223D02*
X1210Y223D01*
X1240Y223D02*
X1249Y223D01*
X553Y222D02*
X562Y222D01*
X574Y222D02*
X589Y222D01*
X625Y222D02*
X634Y222D01*
X664Y222D02*
X673Y222D01*
X697Y222D02*
X706Y222D01*
X736Y222D02*
X745Y222D01*
X769Y222D02*
X778Y222D01*
X790Y222D02*
X804Y222D01*
X841Y222D02*
X850Y222D01*
X880Y222D02*
X889Y222D01*
X917Y222D02*
X918Y222D01*
X947Y222D02*
X959Y222D01*
X995Y222D02*
X1005Y222D01*
X1013Y222D02*
X1023Y222D01*
X1057Y222D02*
X1066Y222D01*
X1096Y222D02*
X1105Y222D01*
X1138Y222D02*
X1148Y222D01*
X1172Y222D02*
X1173Y222D01*
X1201Y222D02*
X1210Y222D01*
X1240Y222D02*
X1249Y222D01*
X553Y221D02*
X562Y221D01*
X575Y221D02*
X590Y221D01*
X625Y221D02*
X634Y221D01*
X664Y221D02*
X673Y221D01*
X697Y221D02*
X706Y221D01*
X736Y221D02*
X745Y221D01*
X769Y221D02*
X778Y221D01*
X791Y221D02*
X806Y221D01*
X841Y221D02*
X850Y221D01*
X880Y221D02*
X889Y221D01*
X914Y221D02*
X920Y221D01*
X948Y221D02*
X960Y221D01*
X995Y221D02*
X1005Y221D01*
X1012Y221D02*
X1022Y221D01*
X1057Y221D02*
X1066Y221D01*
X1096Y221D02*
X1105Y221D01*
X1138Y221D02*
X1148Y221D01*
X1170Y221D02*
X1175Y221D01*
X1201Y221D02*
X1210Y221D01*
X1240Y221D02*
X1249Y221D01*
X553Y220D02*
X562Y220D01*
X576Y220D02*
X591Y220D01*
X625Y220D02*
X634Y220D01*
X664Y220D02*
X673Y220D01*
X697Y220D02*
X706Y220D01*
X736Y220D02*
X745Y220D01*
X769Y220D02*
X778Y220D01*
X792Y220D02*
X807Y220D01*
X841Y220D02*
X850Y220D01*
X879Y220D02*
X889Y220D01*
X914Y220D02*
X921Y220D01*
X948Y220D02*
X960Y220D01*
X996Y220D02*
X1006Y220D01*
X1012Y220D02*
X1022Y220D01*
X1057Y220D02*
X1066Y220D01*
X1096Y220D02*
X1105Y220D01*
X1138Y220D02*
X1148Y220D01*
X1169Y220D02*
X1176Y220D01*
X1201Y220D02*
X1210Y220D01*
X1240Y220D02*
X1249Y220D01*
X553Y219D02*
X562Y219D01*
X577Y219D02*
X592Y219D01*
X625Y219D02*
X635Y219D01*
X663Y219D02*
X673Y219D01*
X697Y219D02*
X706Y219D01*
X736Y219D02*
X745Y219D01*
X769Y219D02*
X778Y219D01*
X793Y219D02*
X808Y219D01*
X841Y219D02*
X850Y219D01*
X878Y219D02*
X889Y219D01*
X913Y219D02*
X921Y219D01*
X949Y219D02*
X961Y219D01*
X996Y219D02*
X1006Y219D01*
X1011Y219D02*
X1022Y219D01*
X1057Y219D02*
X1066Y219D01*
X1096Y219D02*
X1105Y219D01*
X1138Y219D02*
X1148Y219D01*
X1169Y219D02*
X1177Y219D01*
X1201Y219D02*
X1210Y219D01*
X1240Y219D02*
X1249Y219D01*
X553Y218D02*
X562Y218D01*
X579Y218D02*
X593Y218D01*
X625Y218D02*
X635Y218D01*
X662Y218D02*
X673Y218D01*
X697Y218D02*
X706Y218D01*
X736Y218D02*
X745Y218D01*
X769Y218D02*
X778Y218D01*
X795Y218D02*
X809Y218D01*
X841Y218D02*
X850Y218D01*
X876Y218D02*
X889Y218D01*
X913Y218D02*
X922Y218D01*
X950Y218D02*
X961Y218D01*
X997Y218D02*
X1007Y218D01*
X1011Y218D02*
X1021Y218D01*
X1057Y218D02*
X1066Y218D01*
X1096Y218D02*
X1105Y218D01*
X1139Y218D02*
X1148Y218D01*
X1168Y218D02*
X1177Y218D01*
X1201Y218D02*
X1210Y218D01*
X1240Y218D02*
X1249Y218D01*
X553Y217D02*
X562Y217D01*
X580Y217D02*
X594Y217D01*
X625Y217D02*
X636Y217D01*
X661Y217D02*
X673Y217D01*
X697Y217D02*
X706Y217D01*
X736Y217D02*
X745Y217D01*
X769Y217D02*
X778Y217D01*
X796Y217D02*
X810Y217D01*
X841Y217D02*
X850Y217D01*
X875Y217D02*
X889Y217D01*
X913Y217D02*
X922Y217D01*
X951Y217D02*
X961Y217D01*
X997Y217D02*
X1021Y217D01*
X1057Y217D02*
X1066Y217D01*
X1096Y217D02*
X1105Y217D01*
X1139Y217D02*
X1148Y217D01*
X1168Y217D02*
X1177Y217D01*
X1201Y217D02*
X1210Y217D01*
X1240Y217D02*
X1249Y217D01*
X553Y216D02*
X562Y216D01*
X581Y216D02*
X596Y216D01*
X626Y216D02*
X638Y216D01*
X660Y216D02*
X672Y216D01*
X697Y216D02*
X706Y216D01*
X736Y216D02*
X745Y216D01*
X769Y216D02*
X778Y216D01*
X797Y216D02*
X812Y216D01*
X841Y216D02*
X851Y216D01*
X873Y216D02*
X889Y216D01*
X913Y216D02*
X922Y216D01*
X951Y216D02*
X961Y216D01*
X998Y216D02*
X1020Y216D01*
X1057Y216D02*
X1066Y216D01*
X1096Y216D02*
X1105Y216D01*
X1139Y216D02*
X1148Y216D01*
X1167Y216D02*
X1177Y216D01*
X1201Y216D02*
X1210Y216D01*
X1240Y216D02*
X1249Y216D01*
X553Y215D02*
X562Y215D01*
X582Y215D02*
X597Y215D01*
X626Y215D02*
X639Y215D01*
X659Y215D02*
X672Y215D01*
X697Y215D02*
X706Y215D01*
X736Y215D02*
X745Y215D01*
X769Y215D02*
X778Y215D01*
X798Y215D02*
X813Y215D01*
X841Y215D02*
X851Y215D01*
X871Y215D02*
X889Y215D01*
X913Y215D02*
X922Y215D01*
X952Y215D02*
X961Y215D01*
X998Y215D02*
X1020Y215D01*
X1057Y215D02*
X1066Y215D01*
X1096Y215D02*
X1105Y215D01*
X1139Y215D02*
X1149Y215D01*
X1166Y215D02*
X1177Y215D01*
X1201Y215D02*
X1210Y215D01*
X1240Y215D02*
X1249Y215D01*
X553Y214D02*
X562Y214D01*
X583Y214D02*
X598Y214D01*
X627Y214D02*
X641Y214D01*
X657Y214D02*
X671Y214D01*
X697Y214D02*
X706Y214D01*
X736Y214D02*
X745Y214D01*
X769Y214D02*
X778Y214D01*
X799Y214D02*
X814Y214D01*
X841Y214D02*
X853Y214D01*
X869Y214D02*
X889Y214D01*
X913Y214D02*
X924Y214D01*
X952Y214D02*
X961Y214D01*
X998Y214D02*
X1019Y214D01*
X1057Y214D02*
X1066Y214D01*
X1096Y214D02*
X1105Y214D01*
X1139Y214D02*
X1151Y214D01*
X1165Y214D02*
X1177Y214D01*
X1201Y214D02*
X1210Y214D01*
X1240Y214D02*
X1249Y214D01*
X553Y213D02*
X562Y213D01*
X584Y213D02*
X599Y213D01*
X627Y213D02*
X670Y213D01*
X697Y213D02*
X706Y213D01*
X736Y213D02*
X745Y213D01*
X769Y213D02*
X778Y213D01*
X800Y213D02*
X815Y213D01*
X842Y213D02*
X889Y213D01*
X913Y213D02*
X961Y213D01*
X999Y213D02*
X1019Y213D01*
X1057Y213D02*
X1066Y213D01*
X1096Y213D02*
X1105Y213D01*
X1140Y213D02*
X1176Y213D01*
X1201Y213D02*
X1210Y213D01*
X1240Y213D02*
X1249Y213D01*
X553Y212D02*
X562Y212D01*
X586Y212D02*
X600Y212D01*
X628Y212D02*
X670Y212D01*
X697Y212D02*
X706Y212D01*
X736Y212D02*
X745Y212D01*
X769Y212D02*
X778Y212D01*
X802Y212D02*
X816Y212D01*
X842Y212D02*
X889Y212D01*
X914Y212D02*
X961Y212D01*
X999Y212D02*
X1018Y212D01*
X1057Y212D02*
X1066Y212D01*
X1096Y212D02*
X1105Y212D01*
X1140Y212D02*
X1176Y212D01*
X1201Y212D02*
X1210Y212D01*
X1240Y212D02*
X1249Y212D01*
X553Y211D02*
X562Y211D01*
X587Y211D02*
X601Y211D01*
X629Y211D02*
X669Y211D01*
X697Y211D02*
X706Y211D01*
X736Y211D02*
X745Y211D01*
X769Y211D02*
X778Y211D01*
X803Y211D02*
X817Y211D01*
X843Y211D02*
X889Y211D01*
X914Y211D02*
X961Y211D01*
X1000Y211D02*
X1018Y211D01*
X1057Y211D02*
X1066Y211D01*
X1096Y211D02*
X1105Y211D01*
X1141Y211D02*
X1175Y211D01*
X1201Y211D02*
X1210Y211D01*
X1240Y211D02*
X1249Y211D01*
X553Y210D02*
X562Y210D01*
X588Y210D02*
X601Y210D01*
X630Y210D02*
X668Y210D01*
X697Y210D02*
X706Y210D01*
X736Y210D02*
X745Y210D01*
X769Y210D02*
X778Y210D01*
X804Y210D02*
X817Y210D01*
X843Y210D02*
X889Y210D01*
X915Y210D02*
X960Y210D01*
X1000Y210D02*
X1018Y210D01*
X1057Y210D02*
X1066Y210D01*
X1096Y210D02*
X1105Y210D01*
X1141Y210D02*
X1174Y210D01*
X1201Y210D02*
X1210Y210D01*
X1240Y210D02*
X1249Y210D01*
X553Y209D02*
X562Y209D01*
X589Y209D02*
X601Y209D01*
X631Y209D02*
X667Y209D01*
X697Y209D02*
X706Y209D01*
X736Y209D02*
X745Y209D01*
X769Y209D02*
X778Y209D01*
X805Y209D02*
X817Y209D01*
X844Y209D02*
X889Y209D01*
X915Y209D02*
X959Y209D01*
X1001Y209D02*
X1017Y209D01*
X1057Y209D02*
X1066Y209D01*
X1096Y209D02*
X1105Y209D01*
X1142Y209D02*
X1174Y209D01*
X1201Y209D02*
X1210Y209D01*
X1240Y209D02*
X1249Y209D01*
X553Y208D02*
X562Y208D01*
X590Y208D02*
X601Y208D01*
X633Y208D02*
X665Y208D01*
X697Y208D02*
X706Y208D01*
X736Y208D02*
X745Y208D01*
X769Y208D02*
X778Y208D01*
X806Y208D02*
X817Y208D01*
X845Y208D02*
X878Y208D01*
X880Y208D02*
X889Y208D01*
X916Y208D02*
X959Y208D01*
X1003Y208D02*
X1017Y208D01*
X1057Y208D02*
X1066Y208D01*
X1096Y208D02*
X1105Y208D01*
X1143Y208D02*
X1173Y208D01*
X1201Y208D02*
X1210Y208D01*
X1240Y208D02*
X1249Y208D01*
X553Y207D02*
X561Y207D01*
X591Y207D02*
X601Y207D01*
X634Y207D02*
X664Y207D01*
X697Y207D02*
X705Y207D01*
X737Y207D02*
X745Y207D01*
X769Y207D02*
X777Y207D01*
X807Y207D02*
X817Y207D01*
X846Y207D02*
X877Y207D01*
X881Y207D02*
X889Y207D01*
X917Y207D02*
X958Y207D01*
X1006Y207D02*
X1016Y207D01*
X1057Y207D02*
X1065Y207D01*
X1097Y207D02*
X1105Y207D01*
X1144Y207D02*
X1172Y207D01*
X1201Y207D02*
X1209Y207D01*
X1241Y207D02*
X1249Y207D01*
X553Y206D02*
X561Y206D01*
X593Y206D02*
X601Y206D01*
X635Y206D02*
X663Y206D01*
X697Y206D02*
X705Y206D01*
X737Y206D02*
X744Y206D01*
X769Y206D02*
X777Y206D01*
X809Y206D02*
X817Y206D01*
X847Y206D02*
X875Y206D01*
X881Y206D02*
X889Y206D01*
X919Y206D02*
X957Y206D01*
X1006Y206D02*
X1016Y206D01*
X1057Y206D02*
X1065Y206D01*
X1097Y206D02*
X1104Y206D01*
X1145Y206D02*
X1170Y206D01*
X1201Y206D02*
X1209Y206D01*
X1241Y206D02*
X1248Y206D01*
X554Y205D02*
X560Y205D01*
X594Y205D02*
X600Y205D01*
X637Y205D02*
X661Y205D01*
X698Y205D02*
X704Y205D01*
X738Y205D02*
X744Y205D01*
X770Y205D02*
X776Y205D01*
X810Y205D02*
X816Y205D01*
X849Y205D02*
X873Y205D01*
X882Y205D02*
X888Y205D01*
X920Y205D02*
X955Y205D01*
X1005Y205D02*
X1015Y205D01*
X1058Y205D02*
X1064Y205D01*
X1098Y205D02*
X1104Y205D01*
X1147Y205D02*
X1168Y205D01*
X1202Y205D02*
X1208Y205D01*
X1242Y205D02*
X1248Y205D01*
X556Y204D02*
X558Y204D01*
X595Y204D02*
X598Y204D01*
X640Y204D02*
X658Y204D01*
X700Y204D02*
X702Y204D01*
X739Y204D02*
X742Y204D01*
X772Y204D02*
X774Y204D01*
X811Y204D02*
X814Y204D01*
X852Y204D02*
X871Y204D01*
X883Y204D02*
X886Y204D01*
X923Y204D02*
X953Y204D01*
X1005Y204D02*
X1015Y204D01*
X1060Y204D02*
X1062Y204D01*
X1099Y204D02*
X1102Y204D01*
X1150Y204D02*
X1166Y204D01*
X1204Y204D02*
X1206Y204D01*
X1243Y204D02*
X1246Y204D01*
X1004Y203D02*
X1015Y203D01*
X1004Y202D02*
X1014Y202D01*
X1004Y201D02*
X1014Y201D01*
X1003Y200D02*
X1013Y200D01*
X1003Y199D02*
X1013Y199D01*
X1002Y198D02*
X1012Y198D01*
X1002Y197D02*
X1012Y197D01*
X1001Y196D02*
X1011Y196D01*
X1001Y195D02*
X1011Y195D01*
X1001Y194D02*
X1011Y194D01*
X1000Y193D02*
X1010Y193D01*
X987Y192D02*
X1010Y192D01*
X986Y191D02*
X1009Y191D01*
X985Y190D02*
X1009Y190D01*
X985Y189D02*
X1008Y189D01*
X985Y188D02*
X1008Y188D01*
X985Y187D02*
X1008Y187D01*
X985Y186D02*
X1007Y186D01*
X985Y185D02*
X1007Y185D01*
X986Y184D02*
X1006Y184D01*
X987Y183D02*
X1005Y183D01*
D02*
G04 End of Copper1*
M02*