G04 MADE WITH FRITZING*
G04 WWW.FRITZING.ORG*
G04 DOUBLE SIDED*
G04 HOLES PLATED*
G04 CONTOUR ON CENTER OF CONTOUR VECTOR*
%ASAXBY*%
%FSLAX23Y23*%
%MOIN*%
%OFA0B0*%
%SFA1.0B1.0*%
%ADD10C,0.088000*%
%ADD11C,0.089370*%
%ADD12C,0.049370*%
%ADD13C,0.102000*%
%ADD14C,0.085000*%
%ADD15C,0.073307*%
%ADD16C,0.167480*%
%ADD17R,0.102000X0.102000*%
%LNMASK1*%
G90*
G70*
G54D10*
X409Y1595D03*
X409Y1495D03*
X409Y1395D03*
X409Y1295D03*
G54D11*
X1580Y2754D03*
X1580Y2654D03*
X1580Y2554D03*
X1580Y2454D03*
X1580Y2354D03*
X1580Y2254D03*
X1580Y2154D03*
X1580Y2054D03*
X1580Y1954D03*
X1580Y1854D03*
X1580Y1754D03*
X1580Y1654D03*
X1580Y1554D03*
X1580Y1454D03*
X2181Y2755D03*
X2181Y2655D03*
X2181Y2555D03*
X2181Y2455D03*
X2181Y2355D03*
X2181Y2255D03*
X2181Y2155D03*
X2181Y2055D03*
X2181Y1955D03*
X2181Y1855D03*
X2181Y1755D03*
X2181Y1655D03*
X2181Y1555D03*
X2181Y1455D03*
G54D12*
X843Y3066D03*
X3322Y2831D03*
G54D13*
X1299Y661D03*
X1599Y661D03*
X599Y661D03*
X899Y661D03*
X1899Y661D03*
X2199Y661D03*
X2417Y665D03*
X2717Y665D03*
G54D14*
X409Y2554D03*
X409Y2254D03*
X409Y3145D03*
X409Y2745D03*
G54D15*
X3099Y761D03*
X3099Y575D03*
X3100Y391D03*
X3099Y761D03*
X3099Y575D03*
X3100Y391D03*
X3099Y1661D03*
X3099Y1475D03*
X3100Y1291D03*
X3099Y1661D03*
X3099Y1475D03*
X3100Y1291D03*
X3099Y3161D03*
X3099Y2975D03*
X3100Y2791D03*
X3099Y3161D03*
X3099Y2975D03*
X3100Y2791D03*
X3099Y2361D03*
X3099Y2175D03*
X3100Y1991D03*
X3099Y2361D03*
X3099Y2175D03*
X3100Y1991D03*
G54D14*
X2399Y761D03*
X2399Y1161D03*
X1899Y761D03*
X1899Y1161D03*
X1299Y761D03*
X1299Y1161D03*
X599Y761D03*
X599Y1161D03*
G54D12*
X843Y3066D03*
X1946Y3068D03*
G54D16*
X1787Y192D03*
X1787Y3342D03*
X212Y192D03*
X212Y3342D03*
X3362Y3342D03*
X3362Y192D03*
G54D17*
X1299Y661D03*
X599Y661D03*
X1899Y661D03*
X2417Y665D03*
G04 End of Mask1*
M02*