G04 MADE WITH FRITZING*
G04 WWW.FRITZING.ORG*
G04 DOUBLE SIDED*
G04 HOLES PLATED*
G04 CONTOUR ON CENTER OF CONTOUR VECTOR*
%ASAXBY*%
%FSLAX23Y23*%
%MOIN*%
%OFA0B0*%
%SFA1.0B1.0*%
%ADD10C,0.078000*%
%ADD11C,0.079370*%
%ADD12C,0.039370*%
%ADD13C,0.092000*%
%ADD14C,0.075000*%
%ADD15C,0.063307*%
%ADD16R,0.092000X0.092000*%
%ADD17C,0.024000*%
%LNCOPPER0*%
G90*
G70*
G54D10*
X409Y1595D03*
X409Y1495D03*
X409Y1395D03*
X409Y1295D03*
G54D11*
X1580Y2754D03*
X1580Y2654D03*
X1580Y2554D03*
X1580Y2454D03*
X1580Y2354D03*
X1580Y2254D03*
X1580Y2154D03*
X1580Y2054D03*
X1580Y1954D03*
X1580Y1854D03*
X1580Y1754D03*
X1580Y1654D03*
X1580Y1554D03*
X1580Y1454D03*
X2181Y2755D03*
X2181Y2655D03*
X2181Y2555D03*
X2181Y2455D03*
X2181Y2355D03*
X2181Y2255D03*
X2181Y2155D03*
X2181Y2055D03*
X2181Y1955D03*
X2181Y1855D03*
X2181Y1755D03*
X2181Y1655D03*
X2181Y1555D03*
X2181Y1455D03*
G54D12*
X843Y3066D03*
X3322Y2831D03*
G54D13*
X1299Y661D03*
X1599Y661D03*
X599Y661D03*
X899Y661D03*
X1899Y661D03*
X2199Y661D03*
X2417Y665D03*
X2717Y665D03*
G54D14*
X409Y2554D03*
X409Y2254D03*
X409Y3145D03*
X409Y2745D03*
G54D15*
X3099Y761D03*
X3099Y575D03*
X3100Y391D03*
X3099Y1661D03*
X3099Y1475D03*
X3100Y1291D03*
X3099Y3161D03*
X3099Y2975D03*
X3100Y2791D03*
X3099Y2361D03*
X3099Y2175D03*
X3100Y1991D03*
G54D14*
X2399Y761D03*
X2399Y1161D03*
X1899Y761D03*
X1899Y1161D03*
X1299Y761D03*
X1299Y1161D03*
X599Y761D03*
X599Y1161D03*
G54D12*
X843Y3066D03*
X1946Y3068D03*
G54D16*
X1299Y661D03*
X599Y661D03*
X1899Y661D03*
X2417Y665D03*
G54D17*
X1395Y1333D02*
X1880Y782D01*
D02*
X1395Y2239D02*
X1395Y1333D01*
D02*
X1549Y2252D02*
X1395Y2239D01*
D02*
X1785Y2161D02*
X1610Y2155D01*
D02*
X2025Y1297D02*
X1785Y2161D01*
D02*
X2383Y784D02*
X2025Y1297D01*
D02*
X1234Y2437D02*
X1549Y2453D01*
D02*
X765Y1021D02*
X1234Y2437D01*
D02*
X615Y785D02*
X765Y1021D01*
D02*
X1317Y2317D02*
X1549Y2350D01*
D02*
X999Y979D02*
X1317Y2317D01*
D02*
X1276Y778D02*
X999Y979D01*
D02*
X2417Y1648D02*
X2212Y1654D01*
D02*
X3082Y602D02*
X2417Y1648D01*
D02*
X2733Y1768D02*
X3074Y1495D01*
D02*
X2212Y1756D02*
X2733Y1768D01*
D02*
X2770Y1848D02*
X3076Y2151D01*
D02*
X2212Y1855D02*
X2770Y1848D01*
D02*
X2575Y2238D02*
X3080Y2948D01*
D02*
X2212Y2254D02*
X2575Y2238D01*
D02*
X604Y1492D02*
X439Y1494D01*
D02*
X1037Y2632D02*
X604Y1492D01*
D02*
X1549Y2653D02*
X1037Y2632D01*
D02*
X2064Y2910D02*
X2162Y2780D01*
D02*
X1037Y2910D02*
X2064Y2910D01*
D02*
X422Y1622D02*
X1037Y2910D01*
D02*
X1117Y2514D02*
X1549Y2552D01*
D02*
X680Y1389D02*
X1117Y2514D01*
D02*
X439Y1394D02*
X680Y1389D01*
D02*
X862Y3066D02*
X1927Y3068D01*
D02*
X3308Y2801D02*
X3108Y2378D01*
G04 End of Copper0*
M02*