; NON-PLATED HOLES START AT T1
; THROUGH (PLATED) HOLES START AT T100
M48
INCH
T1C0.157480
T100C0.039370
T101C0.015748
T102C0.038000
T103C0.043307
T104C0.035000
T105C0.052000
%
T1
X033615Y001922
X033615Y033418
X002119Y033418
X002119Y001922
X017867Y033418
X017867Y001922
T100
X021810Y025554
X021810Y018554
X015796Y025544
X021810Y022554
X015796Y018544
X021810Y015554
X015796Y022544
X015796Y015544
X021810Y027554
X015796Y027544
X021810Y024554
X021810Y017554
X015796Y024544
X021810Y021554
X015796Y017544
X021810Y014554
X015796Y021544
X015796Y014544
X021810Y026554
X021810Y019554
X015796Y026544
X021810Y023554
X015796Y019544
X021810Y016554
X015796Y023544
X021810Y020554
X015796Y016544
X015796Y020544
T101
X008427Y030655
X019461Y030680
X033223Y028306
T102
X004088Y012946
X004088Y015946
X004088Y013946
X004088Y014946
T103
X030993Y014745
X030997Y027906
X030993Y016607
X030993Y005745
X030993Y007607
X030997Y012906
X030993Y031607
X030997Y019906
X030997Y003906
X030993Y021745
X030993Y023607
X030993Y029745
T104
X004088Y025544
X004088Y027450
X004088Y031450
X018993Y007607
X018993Y011607
X012993Y007607
X012993Y011607
X004088Y022544
X023993Y007607
X005993Y007607
X023993Y011607
X005993Y011607
T105
X015993Y006607
X024166Y006646
X012993Y006607
X021993Y006607
X008993Y006607
X018993Y006607
X027166Y006646
X005993Y006607
T00
M30
